<svg width="1131" height="923" viewBox="0 0 1131 923" fill="none" xmlns="http://www.w3.org/2000/svg">
<g clip-path="url(#clip0_101_275)">
<path d="M896.242 448.559C712.651 342.565 415.996 342.565 233.593 448.559C51.1899 554.552 52.167 726.379 235.739 832.391C419.311 938.403 716.004 938.384 898.407 832.391C1080.81 726.398 1079.83 554.552 896.242 448.559Z" fill="#F5F5F5"/>
<path d="M185.291 562.177L184.716 261.787C184.963 257.133 186.307 252.603 188.638 248.568C190.969 244.532 194.22 241.105 198.128 238.565L571.422 23.5323C575.101 21.4056 578.454 21.1948 580.887 22.5552L566.843 14.4122C564.372 12.841 560.904 12.9752 557.072 15.1977L183.682 230.25C179.775 232.786 176.524 236.21 174.193 240.243C171.862 244.275 170.518 248.801 170.27 253.452L170.94 553.843C170.94 557.866 172.32 560.74 174.523 562.235C174.758 562.404 175.008 562.552 175.27 562.676L189.142 570.742C186.785 569.324 185.31 566.373 185.291 562.177Z" fill="#9F86C0"/>
<path opacity="0.4" d="M566.844 14.4122C564.372 12.841 560.904 12.9752 557.072 15.1977L183.682 230.25C179.25 233.044 175.691 237.027 173.412 241.746L187.763 250.042C190.057 245.334 193.612 241.354 198.033 238.546L571.423 23.5323C575.102 21.4056 578.455 21.1948 580.888 22.5552L566.844 14.4122Z" fill="white"/>
<path opacity="0.3" d="M170.27 253.452L170.94 553.843C170.94 557.866 172.32 560.74 174.523 562.235C174.758 562.404 175.008 562.552 175.27 562.676L189.142 570.742C186.766 569.324 185.31 566.373 185.31 562.177L184.716 261.787C184.842 257.663 185.917 253.625 187.858 249.984L173.508 241.688C171.524 245.303 170.415 249.332 170.27 253.452Z" fill="white"/>
<path d="M184.716 279.203L185.348 562.177C185.348 566.373 186.843 569.324 189.18 570.742C189.243 570.798 189.314 570.843 189.391 570.876V570.876C191.805 572.16 195.139 571.911 198.722 569.822L572.188 354.828C576.098 352.295 579.352 348.871 581.683 344.838C584.014 340.805 585.357 336.277 585.6 331.625L584.968 48.1721L184.716 279.203Z" fill="#9F86C0"/>
<path opacity="0.4" d="M184.716 279.203L185.348 562.177C185.348 566.373 186.843 569.324 189.18 570.742C189.243 570.798 189.314 570.843 189.391 570.876V570.876C191.805 572.16 195.139 571.911 198.722 569.822L572.188 354.828C576.098 352.295 579.352 348.871 581.683 344.838C584.014 340.805 585.357 336.277 585.6 331.625L584.968 48.1721L184.716 279.203Z" fill="black"/>
<path d="M584.911 31.2346C584.911 27.0386 583.416 24.0688 581.079 22.6509H580.983C578.55 21.2906 575.235 21.5013 571.518 23.6281L198.128 238.565C194.22 241.105 190.968 244.532 188.637 248.568C186.307 252.603 184.963 257.133 184.716 261.787V279.203L584.949 48.1721L584.911 31.2346Z" fill="#9F86C0"/>
<g opacity="0.5">
<path d="M202.401 250.751C204.432 249.582 206.079 250.521 206.079 252.839C206.01 254.107 205.642 255.34 205.007 256.439C204.371 257.537 203.484 258.47 202.42 259.162C200.408 260.331 198.76 259.392 198.741 257.074C198.811 255.806 199.178 254.573 199.814 253.474C200.45 252.375 201.336 251.442 202.401 250.751V250.751Z" fill="white"/>
<path d="M212.421 244.964C214.452 243.796 216.081 244.734 216.1 247.053C216.034 248.324 215.667 249.561 215.031 250.663C214.395 251.765 213.507 252.701 212.44 253.395C210.409 254.564 208.762 253.625 208.762 251.287C208.831 250.02 209.199 248.786 209.835 247.688C210.471 246.589 211.357 245.656 212.421 244.964V244.964Z" fill="white"/>
<path d="M222.423 239.178C224.454 238.009 226.101 238.948 226.101 241.267C226.039 242.536 225.676 243.773 225.043 244.875C224.41 245.977 223.525 246.914 222.461 247.609C220.43 248.777 218.782 247.838 218.782 245.501C218.848 244.235 219.212 243.002 219.845 241.903C220.477 240.805 221.361 239.871 222.423 239.178V239.178Z" fill="white"/>
</g>
<g opacity="0.39">
<path d="M202.401 250.751C204.432 249.582 206.079 250.521 206.079 252.839C206.01 254.107 205.642 255.34 205.007 256.439C204.371 257.537 203.484 258.47 202.42 259.162C200.408 260.331 198.76 259.392 198.741 257.074C198.811 255.806 199.178 254.573 199.814 253.474C200.45 252.375 201.336 251.442 202.401 250.751V250.751Z" fill="white"/>
<path d="M212.421 244.964C214.452 243.796 216.081 244.734 216.1 247.053C216.034 248.324 215.667 249.561 215.031 250.663C214.395 251.765 213.507 252.701 212.44 253.395C210.409 254.564 208.762 253.625 208.762 251.287C208.831 250.02 209.199 248.786 209.835 247.688C210.471 246.589 211.357 245.656 212.421 244.964V244.964Z" fill="white"/>
<path d="M222.423 239.178C224.454 238.009 226.101 238.948 226.101 241.267C226.039 242.536 225.676 243.773 225.043 244.875C224.41 245.977 223.525 246.914 222.461 247.609C220.43 248.777 218.782 247.838 218.782 245.501C218.848 244.235 219.212 243.002 219.845 241.903C220.477 240.805 221.361 239.871 222.423 239.178V239.178Z" fill="white"/>
</g>
<path d="M469.012 305.51L521.53 275.199L521.511 268.55L468.993 298.862L469.012 305.51Z" fill="white"/>
<path d="M543.717 255.713L528.868 264.297L528.887 270.945L543.736 262.362L543.717 255.713Z" fill="white"/>
<path d="M445.254 335.706L566.881 265.485L566.862 258.836L445.234 329.058L445.254 335.706Z" fill="white"/>
<path d="M434.046 342.182L434.026 335.534L419.158 344.117L419.177 350.747L434.046 342.182Z" fill="white"/>
<path d="M461.233 303.345L389.594 344.711L389.613 351.36L461.271 309.993L461.233 303.345Z" fill="white"/>
<path d="M396.932 307.522L382.083 316.106L382.102 322.754L396.951 314.17L396.932 307.522Z" fill="white"/>
<path d="M379.478 357.204L379.458 350.555L332.555 377.647L332.574 384.296L379.478 357.204Z" fill="white"/>
<path d="M310.847 423.114L310.866 429.763L356.122 403.628L356.103 396.999L310.847 423.114Z" fill="white"/>
<path d="M408.026 357.204L408.007 350.555L332.593 394.087L332.612 400.735L408.026 357.204Z" fill="white"/>
<path d="M485.719 279.395L500.588 270.811L500.568 264.163L485.7 272.746L485.719 279.395Z" fill="#9F86C0"/>
<path d="M431.095 304.284L431.114 310.932L474.205 286.044L474.186 279.395L431.095 304.284Z" fill="#9F86C0"/>
<path d="M368.02 347.355L417.012 319.056L416.993 312.427L368.001 340.707L368.02 347.355Z" fill="#9F86C0"/>
<path d="M353.822 355.556L353.803 348.907L310.712 373.777L310.731 380.426L353.822 355.556Z" fill="#9F86C0"/>
<path d="M292.108 374.716L371.277 329L371.258 322.352L292.089 368.067L292.108 374.716Z" fill="white"/>
<path d="M416.82 253.28L416.801 246.631L290.422 319.593L290.441 326.241L416.82 253.28Z" fill="white"/>
<path d="M335.218 283.936L335.199 277.268L290.384 303.153L290.403 309.802L335.218 283.936Z" fill="white"/>
<path d="M348.132 253.337L290.326 286.695L290.345 293.363L348.151 260.005L348.132 253.337Z" fill="white"/>
<path d="M350.565 275.065L472.212 204.843L472.193 198.176L350.546 268.416L350.565 275.065Z" fill="white"/>
<path d="M393.847 226.935L362.022 245.309L362.061 251.958L393.866 233.603L393.847 226.935Z" fill="white"/>
<path d="M320.235 220.018L244.859 263.55V270.198L320.254 226.667L320.235 220.018Z" fill="#9F86C0"/>
<path d="M290.671 253.567L244.897 279.989L244.917 286.637L290.69 260.216L290.671 253.567Z" fill="#9F86C0"/>
<path d="M310.597 248.72L452.937 166.543L452.918 159.894L310.578 242.071L310.597 248.72Z" fill="#9F86C0"/>
<path d="M512.084 132.38L512.065 125.732L466.962 151.789L466.981 158.419L512.084 132.38Z" fill="#9F86C0"/>
<path d="M548.469 111.381V104.732L525.898 117.742L525.918 124.391L548.469 111.381Z" fill="#9F86C0"/>
<path d="M312.743 257.284L267.832 283.227L267.851 289.875L312.762 263.933L312.743 257.284Z" fill="white"/>
<path d="M503.845 179.897L483.823 191.451L483.842 198.118L503.865 186.565L503.845 179.897Z" fill="white"/>
<path d="M566.556 150.372L566.537 143.704L514.02 174.015L514.039 180.683L566.556 150.372Z" fill="white"/>
<path d="M455.85 263.703L455.83 257.035L333.379 327.736L333.398 334.384L455.85 263.703Z" fill="#9F86C0"/>
<path d="M319.411 335.802L268.062 365.443L268.082 372.11L319.43 342.451L319.411 335.802Z" fill="#9F86C0"/>
<path d="M293.641 334.212L268.005 349.003L268.024 355.671L293.66 340.879L293.641 334.212Z" fill="#9F86C0"/>
<path d="M482.214 363.795L497.082 355.211L497.063 348.543L482.194 357.127L482.214 363.795Z" fill="#9F86C0"/>
<path d="M472.231 369.562L472.212 362.894L424.58 390.408L424.599 397.057L472.231 369.562Z" fill="#9F86C0"/>
<path d="M567.054 324.613L358.076 445.263L358.095 451.912L567.073 331.28L567.054 324.613Z" fill="#9F86C0"/>
<path d="M414.636 396.137L358.037 428.824L358.056 435.472L414.655 402.805L414.636 396.137Z" fill="#9F86C0"/>
<path d="M310.98 472.451L311 479.119L347.519 458.024L347.499 451.375L310.98 472.451Z" fill="#9F86C0"/>
<path d="M347.442 434.917L290.844 467.604L290.863 474.271L347.462 441.584L347.442 434.917Z" fill="#9F86C0"/>
<path d="M320.522 433.997L290.805 451.164L290.824 457.832L320.541 440.665L320.522 433.997Z" fill="#9F86C0"/>
<g opacity="0.3">
<path d="M485.719 279.395L500.588 270.811L500.568 264.163L485.7 272.746L485.719 279.395Z" fill="white"/>
<path d="M431.094 304.284L431.113 310.932L474.204 286.043L474.185 279.395L431.094 304.284Z" fill="white"/>
<path d="M368.019 347.355L417.011 319.056L416.992 312.427L368 340.707L368.019 347.355Z" fill="white"/>
<path d="M353.822 355.556L353.803 348.907L310.712 373.777L310.731 380.426L353.822 355.556Z" fill="white"/>
</g>
<g opacity="0.3">
<path d="M320.235 220.018L244.859 263.55V270.198L320.254 226.667L320.235 220.018Z" fill="white"/>
<path d="M290.671 253.567L244.897 279.989L244.917 286.638L290.69 260.216L290.671 253.567Z" fill="white"/>
<path d="M310.597 248.72L452.937 166.543L452.918 159.894L310.578 242.071L310.597 248.72Z" fill="white"/>
<path d="M512.084 132.38L512.065 125.732L466.962 151.789L466.981 158.419L512.084 132.38Z" fill="white"/>
<path d="M548.469 111.381V104.732L525.898 117.742L525.918 124.391L548.469 111.381Z" fill="white"/>
</g>
<g opacity="0.3">
<path d="M455.85 263.703L455.83 257.035L333.379 327.736L333.398 334.384L455.85 263.703Z" fill="white"/>
<path d="M319.411 335.802L268.062 365.443L268.082 372.11L319.43 342.451L319.411 335.802Z" fill="white"/>
<path d="M293.641 334.212L268.005 349.003L268.024 355.671L293.66 340.879L293.641 334.212Z" fill="white"/>
</g>
<g opacity="0.3">
<path d="M482.214 363.795L497.082 355.211L497.063 348.543L482.194 357.127L482.214 363.795Z" fill="white"/>
<path d="M472.231 369.562L472.212 362.894L424.58 390.408L424.599 397.056L472.231 369.562Z" fill="white"/>
<path d="M567.053 324.613L358.075 445.263L358.094 451.912L567.072 331.28L567.053 324.613Z" fill="white"/>
<path d="M414.636 396.137L358.037 428.824L358.056 435.472L414.655 402.805L414.636 396.137Z" fill="white"/>
<path d="M310.98 472.451L311 479.119L347.519 458.024L347.499 451.375L310.98 472.451Z" fill="white"/>
<path d="M347.441 434.917L290.843 467.604L290.862 474.271L347.461 441.584L347.441 434.917Z" fill="white"/>
<path d="M320.522 433.997L290.805 451.164L290.824 457.832L320.541 440.665L320.522 433.997Z" fill="white"/>
</g>
<path d="M211.425 342.489L211.482 358.966L211.425 342.489Z" fill="white"/>
<path d="M211.482 365.289L225.814 357.012L211.482 365.289L211.54 381.748L211.482 365.289Z" fill="white"/>
<path d="M225.68 305.108L211.349 313.385L225.68 305.108Z" fill="white"/>
<path d="M219.626 314.918L211.368 319.688L211.406 336.166L211.368 319.688L219.626 314.918Z" fill="white"/>
<path d="M225.738 327.889L211.406 336.166L225.738 327.889Z" fill="white"/>
<path d="M225.795 350.689L211.482 358.966L225.795 350.689Z" fill="white"/>
<path d="M220.124 488.967L211.847 493.757L211.904 510.215L211.847 493.757L220.124 488.967Z" fill="white"/>
<path d="M225.756 334.212L211.425 342.489L211.482 358.966L225.795 350.689L225.756 334.212Z" fill="white"/>
<path d="M211.54 381.748L225.872 373.471L225.814 357.012L211.482 365.289L211.54 381.748Z" fill="white"/>
<path d="M226.063 439.898L211.731 448.175L211.77 464.634L226.101 456.357L226.063 439.898Z" fill="white"/>
<path d="M211.847 487.415L226.159 479.157L226.121 462.68L211.789 470.957L211.847 487.415Z" fill="white"/>
<path d="M225.987 417.098L211.655 425.375L211.713 441.853L226.044 433.575L225.987 417.098Z" fill="white"/>
<path d="M230.585 409.127L207.019 422.75L207.363 540.986L230.93 527.383L230.585 409.127ZM226.121 462.68V479.157L211.789 487.415V470.957L226.121 462.68V462.68ZM211.655 425.375L225.987 417.098V433.575L211.655 441.833V425.375ZM211.655 448.175L225.987 439.898V456.357L211.655 464.634V448.175ZM211.828 510.215V493.757L220.105 488.967L226.159 485.48V501.938L211.828 510.215V510.215ZM211.828 532.997V516.538L226.159 508.261V524.72L211.828 532.997Z" fill="#9F86C0"/>
<path d="M230.221 280.66L206.654 294.263L206.999 412.519L230.566 398.915L230.221 280.66ZM211.291 296.888L225.623 288.611V305.089L211.291 313.366V296.888ZM211.291 319.669L219.549 314.898L225.623 311.411V327.87L211.291 336.147V319.669ZM211.291 342.47L225.623 334.193V350.67L211.54 358.966L211.291 342.47ZM211.291 365.27L225.623 356.993V373.471L211.54 381.748L211.291 365.27ZM211.291 388.051L225.623 379.774V396.252L211.54 404.529L211.291 388.051Z" fill="#9F86C0"/>
<path opacity="0.3" d="M230.585 409.127L207.019 422.75L207.363 540.986L230.93 527.383L230.585 409.127ZM226.121 462.68V479.157L211.789 487.415V470.957L226.121 462.68V462.68ZM211.655 425.375L225.987 417.098V433.575L211.655 441.833V425.375ZM211.655 448.175L225.987 439.898V456.357L211.655 464.634V448.175ZM211.828 510.215V493.757L220.105 488.967L226.159 485.48V501.938L211.828 510.215V510.215ZM211.828 532.997V516.538L226.159 508.261V524.72L211.828 532.997Z" fill="white"/>
<path opacity="0.3" d="M230.221 280.66L206.654 294.263L206.999 412.519L230.566 398.915L230.221 280.66ZM211.291 296.888L225.623 288.611V305.089L211.291 313.366V296.888ZM211.291 319.669L219.549 314.898L225.623 311.411V327.87L211.291 336.147V319.669ZM211.291 342.47L225.623 334.193V350.67L211.54 358.966L211.291 342.47ZM211.291 365.27L225.623 356.993V373.471L211.54 381.748L211.291 365.27ZM211.291 388.051L225.623 379.774V396.252L211.54 404.529L211.291 388.051Z" fill="white"/>
<path d="M225.738 327.889L225.7 311.43L219.626 314.918L211.368 319.688L211.406 336.166L225.738 327.889Z" fill="white"/>
<path d="M230.221 280.66L230.202 271.482L206.635 285.086L206.654 294.263L230.221 280.66Z" fill="white"/>
<path d="M225.68 305.108L225.623 288.63L211.291 296.907L211.348 313.385L225.68 305.108Z" fill="white"/>
<path d="M225.891 379.793L211.56 388.071L211.598 404.548L225.93 396.271L225.891 379.793Z" fill="white"/>
<path d="M226.236 501.938L226.178 485.48L220.124 488.967L211.847 493.757L211.904 510.216L226.236 501.938Z" fill="white"/>
<path d="M211.924 516.538L211.962 532.997L226.294 524.739L226.256 508.261L211.924 516.538Z" fill="white"/>
<path d="M510.168 174.417V168.056C510.246 166.685 510.646 165.351 511.335 164.163C512.024 162.975 512.983 161.965 514.134 161.216L628.615 95.1141C629.027 94.8155 629.515 94.6376 630.022 94.6004C630.53 94.5631 631.038 94.668 631.489 94.9033V94.9033L635.321 97.7007C635.321 97.7007 632.792 99.291 632.792 99.3485H632.543V108.334L513.962 176.755L510.168 174.417Z" fill="#9F86C0"/>
<path opacity="0.7" d="M510.168 174.417V168.056C510.246 166.685 510.646 165.351 511.335 164.163C512.024 162.975 512.983 161.965 514.134 161.216L628.615 95.1141C629.027 94.8155 629.515 94.6376 630.022 94.6004C630.53 94.5631 631.038 94.668 631.489 94.9033V94.9033L635.321 97.7007C635.321 97.7007 632.792 99.291 632.792 99.3485H632.543V108.334L513.962 176.755L510.168 174.417Z" fill="white"/>
<path d="M513.962 176.755L632.581 108.258L632.811 189.63C632.745 191 632.354 192.334 631.671 193.524C630.988 194.713 630.033 195.723 628.883 196.47L516.165 261.614L517.2 262.898L515.284 265.619L511.452 262.822C511.093 262.532 510.811 262.158 510.631 261.734C510.451 261.31 510.377 260.847 510.417 260.388L510.168 174.494L513.962 176.755Z" fill="#37474F"/>
<path d="M517.889 163.956C516.737 164.697 515.777 165.703 515.091 166.889C514.405 168.075 514.011 169.408 513.942 170.777V176.755L636.336 106.074V100.115C636.336 97.6048 634.555 96.5894 632.37 97.8539L517.889 163.956Z" fill="#9F86C0"/>
<g opacity="0.5">
<path d="M517.889 163.956C516.737 164.697 515.777 165.703 515.091 166.889C514.405 168.075 514.011 169.408 513.942 170.777V176.755L636.336 106.074V100.115C636.336 97.6048 634.555 96.5894 632.37 97.8539L517.889 163.956Z" fill="white"/>
</g>
<path d="M513.962 176.755L514.192 262.975C514.192 265.485 515.993 266.5 518.177 265.236L632.658 199.172C633.806 198.426 634.762 197.419 635.448 196.234C636.134 195.049 636.531 193.718 636.605 192.351L636.356 106.131L513.962 176.755Z" fill="#455A64"/>
<path d="M596.158 200.666L596.177 204.269L630.148 184.649V181.047L596.158 200.666Z" fill="#9F86C0"/>
<path d="M520.131 191.029L520.15 194.631L607.577 144.145V140.542L520.131 191.029Z" fill="#9F86C0"/>
<path d="M595.985 139.45L596.005 143.052L629.975 123.433V119.83L595.985 139.45Z" fill="#9F86C0"/>
<g opacity="0.5">
<path d="M596.157 200.666L596.176 204.269L630.147 184.649V181.047L596.157 200.666Z" fill="white"/>
<path d="M520.131 191.029L520.15 194.631L607.577 144.144V140.542L520.131 191.029Z" fill="white"/>
<path d="M595.985 139.45L596.005 143.052L629.975 123.433V119.83L595.985 139.45Z" fill="white"/>
<path d="M596.101 178.364L596.12 181.966L630.09 162.346L630.071 158.744L596.101 178.364Z" fill="white"/>
<path d="M606.274 156.924L606.294 160.526L630.052 146.808L630.033 143.206L606.274 156.924Z" fill="white"/>
<path d="M564.026 227.012V230.614L607.75 205.361V201.778L564.026 227.012Z" fill="white"/>
<path d="M553.086 217.719L553.105 221.321L607.711 189.803L607.692 186.182L553.086 217.719Z" fill="white"/>
<path d="M580.542 162.902V166.504L607.596 150.889V147.287L580.542 162.902Z" fill="white"/>
<path d="M540.977 202.41L540.996 206.012L607.653 167.52L607.634 163.918L540.977 202.41Z" fill="white"/>
<path d="M520.246 229.943L520.265 233.545L607.692 183.058L607.673 179.456L520.246 229.943Z" fill="white"/>
</g>
<path d="M217.001 531.866V524.566C217.083 522.991 217.538 521.458 218.327 520.093C219.117 518.727 220.218 517.568 221.542 516.711L352.941 440.856C353.414 440.508 353.975 440.299 354.56 440.251C355.146 440.204 355.733 440.32 356.256 440.588V440.588L360.701 443.788L357.808 445.704H357.501V455.916L221.331 534.472L217.001 531.866Z" fill="#9F86C0"/>
<path opacity="0.3" d="M217.001 531.866V524.566C217.083 522.991 217.538 521.458 218.327 520.093C219.117 518.727 220.218 517.568 221.542 516.711L352.941 440.856C353.414 440.508 353.975 440.299 354.56 440.251C355.146 440.204 355.733 440.32 356.256 440.588V440.588L360.701 443.788L357.808 445.704H357.501V455.916L221.331 534.472L217.001 531.866Z" fill="white"/>
<path d="M221.331 534.472L357.52 455.916L357.789 549.34C357.702 550.912 357.245 552.44 356.456 553.802C355.667 555.164 354.568 556.32 353.248 557.177L223.86 631.901L225.048 633.376L222.883 636.48L218.457 633.28C218.047 632.942 217.727 632.508 217.523 632.017C217.319 631.526 217.239 630.993 217.288 630.464L217.001 531.866L221.331 534.472Z" fill="#37474F"/>
<path d="M225.852 519.853C224.533 520.711 223.435 521.867 222.646 523.229C221.857 524.59 221.4 526.118 221.312 527.689V534.472L361.812 453.349V446.508C361.812 443.615 359.762 442.466 357.271 443.903L225.852 519.853Z" fill="#9F86C0"/>
<g opacity="0.1">
<path d="M225.852 519.853C224.533 520.711 223.435 521.867 222.646 523.229C221.857 524.59 221.4 526.118 221.312 527.689V534.472L361.812 453.349V446.508C361.812 443.615 359.762 442.466 357.271 443.903L225.852 519.853Z" fill="white"/>
</g>
<path d="M221.331 534.472L221.618 633.51C221.618 636.403 223.669 637.553 226.179 636.116L357.597 560.242C358.913 559.383 360.009 558.226 360.795 556.865C361.58 555.503 362.034 553.975 362.119 552.406L361.831 453.349L221.331 534.472Z" fill="#455A64"/>
<path d="M228.631 613.028L228.65 617.167L267.641 594.654V590.515L228.631 613.028Z" fill="#9F86C0"/>
<path d="M228.555 587.43L228.574 591.569L267.584 569.056L267.564 564.917L228.555 587.43Z" fill="#9F86C0"/>
<path d="M228.555 569.841L228.574 573.98L255.839 558.23L255.819 554.092L228.555 569.841Z" fill="#9F86C0"/>
<path d="M255.915 605.441L255.934 609.56L306.114 580.59L306.095 576.471L255.915 605.441Z" fill="#9F86C0"/>
<path d="M256.049 587.718V591.837L318.74 555.663L318.721 551.524L256.049 587.718Z" fill="#9F86C0"/>
<path d="M253.75 544.301L253.769 548.44L284.828 530.506L284.808 526.367L253.75 544.301Z" fill="#9F86C0"/>
<path d="M256.087 561.047L256.106 565.186L332.612 521.022L332.593 516.883L256.087 561.047Z" fill="#9F86C0"/>
<path d="M256.049 580.284V584.422L356.428 526.463L356.409 522.344L256.049 580.284Z" fill="#9F86C0"/>
<path d="M253.615 536.905L253.634 541.044L353.994 483.085V478.946L253.615 536.905Z" fill="#9F86C0"/>
<path d="M228.439 542.749V546.888L267.449 524.375L267.43 520.236L228.439 542.749Z" fill="#9F86C0"/>
<g opacity="0.5">
<path d="M228.631 613.028L228.65 617.167L267.641 594.654V590.515L228.631 613.028Z" fill="white"/>
<path d="M228.555 587.43L228.574 591.569L267.584 569.056L267.564 564.917L228.555 587.43Z" fill="white"/>
<path d="M228.555 569.841L228.574 573.98L255.839 558.23L255.819 554.092L228.555 569.841Z" fill="white"/>
<path d="M255.915 605.441L255.934 609.56L306.114 580.59L306.095 576.471L255.915 605.441Z" fill="white"/>
<path d="M256.049 587.718V591.837L318.74 555.663L318.721 551.524L256.049 587.718Z" fill="white"/>
<path d="M253.75 544.301L253.769 548.44L284.828 530.506L284.808 526.367L253.75 544.301Z" fill="white"/>
<path d="M256.087 561.047L256.106 565.186L332.612 521.022L332.593 516.883L256.087 561.047Z" fill="white"/>
<path d="M256.049 580.284V584.422L356.428 526.463L356.409 522.344L256.049 580.284Z" fill="white"/>
<path d="M253.615 536.905L253.634 541.044L353.994 483.085V478.946L253.615 536.905Z" fill="white"/>
<path d="M228.439 542.749V546.888L267.449 524.375L267.43 520.236L228.439 542.749Z" fill="white"/>
</g>
<path d="M596.101 178.364L596.12 181.966L630.09 162.346L630.071 158.744L596.101 178.364Z" fill="#9F86C0"/>
<path d="M606.274 156.924L606.294 160.526L630.052 146.808L630.033 143.206L606.274 156.924Z" fill="#9F86C0"/>
<path d="M564.026 227.012V230.614L607.75 205.361V201.778L564.026 227.012Z" fill="#9F86C0"/>
<path d="M553.086 217.719L553.105 221.321L607.711 189.803L607.692 186.182L553.086 217.719Z" fill="#9F86C0"/>
<path d="M580.543 162.902V166.504L607.597 150.889V147.287L580.543 162.902Z" fill="#9F86C0"/>
<path d="M540.978 202.41L540.997 206.012L607.654 167.52L607.635 163.918L540.978 202.41Z" fill="#9F86C0"/>
<path d="M520.246 229.943L520.265 233.545L607.692 183.058L607.673 179.456L520.246 229.943Z" fill="#9F86C0"/>
<path d="M795.594 504.851H809.331C809.331 504.851 825.273 609.522 826.365 629.582C826.334 629.892 826.223 630.188 826.041 630.44C825.859 630.692 825.614 630.892 825.33 631.019C824.567 631.406 823.724 631.608 822.868 631.608C822.012 631.608 821.169 631.406 820.406 631.019C820.159 630.902 819.943 630.728 819.777 630.512C819.61 630.295 819.498 630.042 819.448 629.774V629.774C817.455 617.799 795.594 504.851 795.594 504.851Z" fill="#37474F"/>
<path opacity="0.3" d="M809.332 504.851C809.332 504.851 810.022 509.353 811.095 516.596C808.91 521.309 804.159 526.444 799.809 526.54C798.104 517.745 795.613 504.851 795.613 504.851H809.332Z" fill="black"/>
<path d="M810.98 592.623H797.261C797.261 592.623 781.32 697.294 780.209 717.373C780.237 717.681 780.348 717.976 780.53 718.226C780.712 718.475 780.959 718.671 781.244 718.791C782.007 719.188 782.855 719.394 783.715 719.394C784.576 719.394 785.423 719.188 786.187 718.791C786.431 718.671 786.645 718.496 786.811 718.28C786.977 718.064 787.091 717.813 787.145 717.546V717.546C789.118 705.571 810.98 592.623 810.98 592.623Z" fill="#37474F"/>
<path opacity="0.3" d="M797.261 592.623C797.261 592.623 796.572 597.125 795.479 604.387C799.52 606.026 803.824 606.922 808.183 607.031C809.888 598.217 810.98 592.623 810.98 592.623H797.261Z" fill="black"/>
<path d="M870.836 547.29H884.555C884.555 547.29 900.496 651.961 901.588 672.022C901.557 672.329 901.448 672.622 901.27 672.874C901.092 673.126 900.851 673.327 900.572 673.459C899.806 673.846 898.959 674.048 898.101 674.048C897.242 674.048 896.395 673.846 895.629 673.459C895.39 673.331 895.182 673.153 895.016 672.939C894.851 672.724 894.734 672.477 894.671 672.213C892.698 660.238 870.836 547.29 870.836 547.29Z" fill="#37474F"/>
<path opacity="0.3" d="M884.555 547.29C884.555 547.29 885.244 551.793 886.336 559.035C884.152 563.748 879.381 568.883 875.032 568.979C873.327 560.185 870.836 547.29 870.836 547.29H884.555Z" fill="black"/>
<path d="M729.779 545.853H716.061C716.061 545.853 700.119 650.524 699.027 670.508C699.058 670.817 699.169 671.113 699.351 671.366C699.533 671.618 699.778 671.818 700.062 671.945C700.825 672.332 701.668 672.534 702.524 672.534C703.38 672.534 704.223 672.332 704.986 671.945C705.236 671.828 705.454 671.651 705.621 671.431C705.788 671.211 705.899 670.953 705.944 670.68V670.68C707.918 658.801 729.779 545.853 729.779 545.853Z" fill="#37474F"/>
<path opacity="0.3" d="M716.061 545.853C716.061 545.853 715.371 550.356 714.298 557.598C716.635 560.376 721.77 564.649 726.139 564.745C727.825 555.95 729.779 545.853 729.779 545.853H716.061Z" fill="black"/>
<path d="M879.764 454.307L873.748 530.621L881.067 536.12L887.658 457.525L879.764 454.307Z" fill="#37474F"/>
<path d="M802.396 410.66L796.38 486.955L803.718 492.473L810.29 413.86L802.396 410.66Z" fill="#37474F"/>
<path d="M783.907 476.992C783.907 476.992 738.057 489.906 702.726 523.876V537.787C709.24 545.604 758.845 584.25 810.98 600.287C845.736 584.288 880.224 557.464 886.221 550.03V536.12C873.116 510.503 783.907 476.992 783.907 476.992Z" fill="#9F86C0"/>
<path opacity="0.2" d="M702.726 523.934V537.844C709.24 545.661 758.845 584.307 810.98 600.344V586.434C758.845 570.397 709.24 531.751 702.726 523.934Z" fill="white"/>
<path opacity="0.2" d="M810.979 586.434V600.344C845.736 584.288 880.224 557.464 886.221 550.03V536.12C880.224 543.458 845.736 570.397 810.979 586.434Z" fill="black"/>
<path d="M904.576 438.672C904.572 437.574 904.26 436.498 903.676 435.568C873.116 387.668 809.792 372.876 795.728 376.498L789.176 383.108V417.462C838.034 423.67 879.937 455.533 896.855 480.096L899.116 479.215C900.729 478.575 902.113 477.466 903.09 476.032C904.067 474.597 904.591 472.903 904.596 471.167V438.672H904.576Z" fill="#9F86C0"/>
<path opacity="0.1" d="M904.576 438.672C904.585 439.924 904.207 441.148 903.494 442.177C902.78 443.206 901.766 443.989 900.591 444.42L896.854 445.761V480.096L899.115 479.214C900.729 478.575 902.113 477.466 903.09 476.031C904.067 474.597 904.591 472.903 904.595 471.167V438.672H904.576Z" fill="black"/>
<path opacity="0.3" d="M896.855 445.761L900.591 444.42C901.767 443.989 902.781 443.206 903.494 442.177C904.208 441.148 904.586 439.924 904.576 438.672C904.572 437.574 904.26 436.498 903.676 435.568C873.116 387.668 809.792 372.876 795.728 376.498L789.176 383.108C803.258 380.521 872.886 394.431 896.855 445.761Z" fill="white"/>
<path opacity="0.3" d="M789.176 383.108V417.462C838.034 423.67 879.937 455.533 896.855 480.096V445.761C872.886 394.432 803.258 380.521 789.176 383.108Z" fill="black"/>
<path d="M697.706 751.9L699.622 763.281C708.646 758.989 711.559 754.141 711.559 754.141C711.789 745.404 711.674 736.418 711.559 732.05C709.164 737.357 703.895 740.94 700.638 745.845C699.418 747.737 698.433 749.77 697.706 751.9V751.9Z" fill="#9F86C0"/>
<path d="M694.793 762.054L699.602 763.281L697.686 751.9C696.517 755.176 695.732 758.644 694.793 762.054Z" fill="#9F86C0"/>
<path opacity="0.2" d="M697.706 751.9L699.622 763.281C708.646 758.989 711.559 754.141 711.559 754.141C711.789 745.404 711.674 736.418 711.559 732.05C709.164 737.357 703.895 740.94 700.638 745.845C699.418 747.737 698.433 749.77 697.706 751.9V751.9Z" fill="black"/>
<path opacity="0.3" d="M694.793 762.054L699.602 763.281L697.686 751.9C696.517 755.176 695.732 758.644 694.793 762.054Z" fill="black"/>
<path d="M712.019 719.443C711.069 716.431 709.817 713.523 708.283 710.763C708.148 715.437 706.7 719.979 704.106 723.869C700.848 729.099 696.442 733.621 693.395 738.928C689.563 745.404 687.647 753.03 682.646 758.625C680.186 761.341 677.127 763.448 673.712 764.778C670.297 766.108 666.619 766.625 662.969 766.289C660.235 766.2 657.646 765.037 655.765 763.051C655.001 762.07 654.584 760.864 654.577 759.621C652.124 762.26 649.409 764.642 646.472 766.73C643.177 769.01 639.249 771.424 638.713 775.39C638.623 777.048 639.022 778.696 639.86 780.13C640.697 781.564 641.937 782.72 643.426 783.456C646.419 784.878 649.692 785.611 653.006 785.602C660.082 786.24 667.216 785.63 674.082 783.801C681.018 781.925 687.025 777.569 690.962 771.558C692.671 768.555 693.96 765.331 694.794 761.978C695.733 758.567 696.518 755.099 697.706 751.823C698.439 749.692 699.43 747.659 700.657 745.768C703.933 740.864 709.183 737.281 711.578 731.973C711.712 731.686 711.865 731.418 711.98 731.13C713.231 727.337 713.244 723.244 712.019 719.443V719.443Z" fill="#9F86C0"/>
<path d="M662.969 766.308C666.619 766.644 670.296 766.127 673.712 764.797C677.127 763.467 680.186 761.36 682.646 758.644C687.628 753.049 689.601 745.424 693.395 738.947C696.518 733.64 700.848 729.118 704.106 723.888C706.7 719.998 708.148 715.456 708.282 710.782C709.164 707.391 710.888 703.367 710.505 702.639C701.155 701.815 694.928 699.478 684.447 698.003C679.086 713.332 672.934 728.374 666.016 743.067C662.978 749.102 659.108 754.681 654.52 759.64C654.526 760.883 654.944 762.089 655.707 763.07C656.646 764.06 657.77 764.856 659.016 765.411C660.262 765.967 661.605 766.272 662.969 766.308V766.308Z" fill="#FFA8A7"/>
<path d="M724.472 649.969C723.322 668.075 718.724 681.18 715.16 705.877C715.16 705.877 693.49 712.334 679.982 702.908L679.427 664.875L724.472 649.969Z" fill="#37474F"/>
<path d="M630.109 725.785L632.025 737.146C641.05 732.855 643.962 728.007 643.962 728.007C644.192 719.27 644.096 710.284 643.962 705.916C641.567 711.223 636.298 714.825 633.041 719.711C631.818 721.607 630.833 723.647 630.109 725.785V725.785Z" fill="#9F86C0"/>
<path d="M627.312 735.92L632.102 737.147L630.186 725.785C628.94 729.042 628.155 732.529 627.312 735.92Z" fill="#9F86C0"/>
<path opacity="0.2" d="M630.109 725.785L632.025 737.146C641.05 732.855 643.962 728.007 643.962 728.007C644.192 719.27 644.096 710.284 643.962 705.916C641.567 711.223 636.298 714.825 633.041 719.711C631.818 721.607 630.833 723.647 630.109 725.785V725.785Z" fill="black"/>
<path opacity="0.3" d="M627.312 735.92L632.102 737.147L630.186 725.785C628.94 729.042 628.155 732.529 627.312 735.92Z" fill="black"/>
<path d="M644.422 693.308C643.487 690.294 642.241 687.385 640.705 684.629C640.564 689.305 639.11 693.847 636.509 697.734C633.271 702.984 628.845 707.487 625.817 712.813C621.985 719.27 620.069 726.896 615.049 732.51C612.594 735.227 609.538 737.334 606.126 738.665C602.714 739.995 599.038 740.512 595.391 740.174C592.656 740.092 590.065 738.927 588.187 736.936C587.424 735.953 587.001 734.75 586.98 733.506C584.536 736.154 581.82 738.537 578.875 740.614C575.599 742.914 571.652 745.328 571.116 749.294C571.031 750.951 571.432 752.597 572.269 754.03C573.106 755.463 574.344 756.62 575.829 757.36C578.822 758.781 582.096 759.515 585.409 759.506C592.487 760.125 599.618 759.509 606.485 757.686C613.416 755.809 619.416 751.452 623.346 745.443C625.054 742.439 626.344 739.216 627.178 735.863C628.117 732.471 628.902 728.984 630.071 725.727C630.807 723.588 631.804 721.548 633.041 719.653C636.298 714.768 641.567 711.166 643.962 705.858C644.105 705.585 644.233 705.303 644.345 705.015C645.622 701.221 645.648 697.118 644.422 693.308V693.308Z" fill="#9F86C0"/>
<path d="M595.392 740.155C599.038 740.493 602.714 739.976 606.126 738.645C609.539 737.315 612.594 735.208 615.05 732.491C620.05 726.877 622.005 719.251 625.818 712.794C628.922 707.468 633.271 702.965 636.509 697.715C639.11 693.827 640.565 689.286 640.705 684.61C641.567 681.218 643.311 677.195 642.908 676.467C633.558 675.643 627.331 673.305 616.87 671.83C611.502 687.16 605.344 702.202 598.419 716.894C595.386 722.932 591.516 728.512 586.923 733.468C586.944 734.711 587.367 735.915 588.13 736.897C589.065 737.894 590.188 738.695 591.434 739.254C592.681 739.813 594.026 740.119 595.392 740.155V740.155Z" fill="#FFA8A7"/>
<path d="M663.716 628.758C659.539 646.405 652.757 658.552 645.093 682.291C645.093 682.291 622.618 684.993 610.911 673.401L620.989 611.419L663.716 628.758Z" fill="#37474F"/>
<path d="M801.266 579.824C814.218 574.248 872.905 545.029 834.068 488.316L737.789 474.501C734.627 504.717 706.864 524.509 706.864 524.509L801.266 579.824Z" fill="#37474F"/>
<path d="M781.972 505.866C800.591 504.766 818.578 498.706 834.068 488.316C829.802 480.733 824.816 473.579 819.18 466.952L733.229 474.616C732.385 481.744 731.747 488.769 731.312 495.692C747.083 503.266 764.5 506.764 781.972 505.866V505.866Z" fill="#FFA8A7"/>
<path d="M728.075 355.115C727.691 352.858 727.749 350.548 728.247 348.313C728.688 346.397 734.129 334.901 733.401 334.173C728.788 329.496 725.927 323.372 725.299 316.833C724.67 310.294 726.314 303.737 729.952 298.267C727.945 297.552 726.234 296.188 725.09 294.39C723.945 292.593 723.432 290.466 723.632 288.345C723.832 286.223 724.734 284.229 726.194 282.678C727.655 281.126 729.59 280.106 731.696 279.778C735.164 279.184 738.632 280.506 742.1 281.253C748.017 282.326 754.078 282.326 759.995 281.253C765.916 280.391 771.817 279.107 777.795 278.667C783.788 278.018 789.848 278.881 795.422 281.177C798.196 282.341 800.666 284.127 802.643 286.395C804.619 288.664 806.049 291.355 806.822 294.263C815.693 292.519 825.982 299.762 827.63 308.652C829.278 317.542 824.143 325.896 824.928 334.652C825.789 340.581 828.467 346.097 832.592 350.44C836.424 354.943 841.042 358.775 845.066 363.124C856.164 375.166 862.787 390.657 863.823 407C864.36 416.121 862.98 425.681 857.884 433.269C847.882 448.175 821.039 451.912 804.542 451.279C787.622 450.61 771.255 445.068 757.409 435.319C747.829 428.613 739.187 418.631 739.532 407C739.686 401.521 741.831 396.348 743.364 391.059C744.897 385.771 745.529 379.889 742.981 375.042C740.433 370.194 734.742 367.186 731.332 362.607C729.652 360.412 728.534 357.84 728.075 355.115V355.115Z" fill="#263238"/>
<path d="M751.583 399.241C754.276 401.091 757.524 401.957 760.78 401.693C768.724 401.698 776.562 399.863 783.679 396.333C790.796 392.803 796.998 387.673 801.802 381.345L792.682 380.541V351.226L761.01 363.45V380.387H752.886C751.235 382.451 749.94 384.776 749.054 387.266C747.636 391.385 748.249 396.52 751.583 399.241Z" fill="#FFA8A7"/>
<path d="M790.46 352.069C785.325 363.68 775.132 373.643 761.011 375.291V363.45L790.46 352.069Z" fill="#F28F8F"/>
<path d="M787.048 328.655C786.618 331.102 786.502 333.594 786.704 336.07C786.962 337.946 787.822 339.688 789.156 341.033C789.802 341.673 790.598 342.143 791.47 342.401C792.343 342.658 793.266 342.695 794.157 342.508C793.58 340.027 794.005 337.42 795.339 335.25C796.673 333.081 798.809 331.525 801.282 330.92C803.756 330.315 806.368 330.709 808.553 332.018C810.738 333.326 812.319 335.443 812.953 337.91C813.373 339.636 813.409 341.433 813.058 343.174C812.707 344.916 811.978 346.559 810.922 347.988C808.793 350.839 806.023 353.15 802.836 354.732C801.016 355.333 799.043 355.279 797.259 354.579C795.475 353.879 793.991 352.578 793.065 350.9C783.657 362.837 767.237 371.784 751.851 370.501C747.635 370.28 743.571 368.85 740.145 366.381C734.397 361.879 733.899 355.077 733.17 348.371C732.084 339.875 732.149 331.271 733.362 322.792C735.278 311.105 740.451 299.609 749.533 292.002C754.802 317.428 778.12 326.778 787.048 328.655Z" fill="#FFA8A7"/>
<path d="M755.014 325.762L744.476 338.733L754.266 342.106L755.014 325.762Z" fill="#F28F8F"/>
<path d="M763.348 348.428L755.147 351.034C755.677 351.998 756.505 352.763 757.507 353.216C758.509 353.669 759.631 353.784 760.704 353.544C761.663 353.123 762.449 352.385 762.931 351.454C763.412 350.523 763.559 349.455 763.348 348.428V348.428Z" fill="#F28F8F"/>
<path opacity="0.3" d="M763.348 348.428L755.147 351.034C755.677 351.998 756.505 352.763 757.507 353.216C758.509 353.669 759.631 353.784 760.704 353.544C761.663 353.123 762.449 352.385 762.931 351.454C763.412 350.523 763.559 349.455 763.348 348.428V348.428Z" fill="black"/>
<path d="M757.926 353.391C758.792 353.707 759.731 353.76 760.627 353.544C761.384 353.246 762.037 352.734 762.507 352.07C762.976 351.407 763.242 350.62 763.271 349.808C762.175 349.644 761.054 349.853 760.091 350.402C759.003 351.074 758.225 352.148 757.926 353.391V353.391Z" fill="#F28F8F"/>
<path d="M769.517 328.464C769.49 329.043 769.292 329.6 768.948 330.067C768.604 330.533 768.129 330.887 767.584 331.084C767.039 331.281 766.448 331.312 765.885 331.172C765.323 331.033 764.814 330.731 764.423 330.303C764.033 329.874 763.778 329.34 763.691 328.767C763.603 328.194 763.688 327.608 763.934 327.084C764.18 326.559 764.575 326.118 765.071 325.818C765.567 325.518 766.141 325.372 766.72 325.398C767.106 325.413 767.485 325.504 767.835 325.667C768.185 325.829 768.5 326.06 768.76 326.345C769.02 326.631 769.221 326.965 769.351 327.328C769.481 327.692 769.538 328.078 769.517 328.464V328.464Z" fill="#263238"/>
<path d="M745.031 326.414C745.004 326.992 744.806 327.55 744.462 328.017C744.117 328.483 743.643 328.837 743.098 329.034C742.553 329.231 741.962 329.261 741.399 329.122C740.836 328.983 740.328 328.681 739.937 328.252C739.546 327.824 739.291 327.29 739.204 326.717C739.117 326.144 739.202 325.558 739.448 325.033C739.693 324.509 740.089 324.068 740.585 323.768C741.081 323.468 741.654 323.322 742.233 323.348C742.619 323.363 742.998 323.454 743.349 323.617C743.699 323.779 744.013 324.01 744.274 324.295C744.534 324.58 744.735 324.915 744.865 325.278C744.995 325.642 745.051 326.028 745.031 326.414V326.414Z" fill="#263238"/>
<path d="M742.713 314.649L736.026 318.845C735.784 318.028 735.795 317.157 736.059 316.346C736.322 315.535 736.825 314.823 737.501 314.304C738.316 313.87 739.235 313.671 740.156 313.732C741.078 313.793 741.963 314.111 742.713 314.649V314.649Z" fill="#263238"/>
<path d="M767.735 315.435L774.02 320.206C774.335 319.414 774.404 318.545 774.216 317.714C774.027 316.883 773.592 316.128 772.966 315.55C772.192 315.043 771.292 314.764 770.367 314.744C769.442 314.723 768.531 314.963 767.735 315.435V315.435Z" fill="#263238"/>
<path d="M837.669 489.676C821.306 465.074 820.329 447.85 828.491 433.326C830.982 428.919 830.561 411.139 829.852 398.129C829.644 394.127 827.995 390.335 825.209 387.454C822.424 384.573 818.689 382.798 814.696 382.456L801.802 381.345C796.998 387.673 790.795 392.803 783.679 396.333C776.562 399.863 768.724 401.698 760.78 401.693C755.99 401.693 750.702 400.831 748.786 394.968C748.262 393.342 748.124 391.617 748.383 389.929C749.011 386.394 750.565 383.088 752.886 380.349H745.011C735.546 388.76 717.651 422.807 716.54 441.124C715.984 450.321 723.073 454.843 728.036 457.698C728.036 457.698 731.369 471.263 726.407 496.439C750.51 513.53 806.783 515.312 837.669 489.676Z" fill="#9F86C0"/>
<path opacity="0.2" d="M797.568 441.01C793.134 447.379 786.659 452.044 779.213 454.232C771.767 456.42 763.798 456 756.623 453.042C759.662 455.999 763.395 458.145 767.479 459.283C771.563 460.421 775.868 460.515 779.998 459.556C788.256 457.468 795.135 449.076 797.568 441.01Z" fill="black"/>
<path d="M792.682 377.724V380.541L777.104 445.685C777.104 445.685 778.676 480.134 799.503 519.144C823.108 523.589 842.153 510.675 847.153 504.257C832.86 484.79 823.395 446.777 823.395 446.777L820.962 382.725L794.578 380.905L792.682 377.724Z" fill="#455A64"/>
<path d="M792.681 380.541V377.724L800.135 391.021C800.557 391.775 800.732 392.643 800.636 393.502C800.539 394.361 800.177 395.169 799.598 395.811L791.206 405.199L795.517 409.3C796.206 409.954 796.649 410.823 796.775 411.765C796.9 412.706 796.7 413.661 796.207 414.473L777.047 445.742L792.681 380.541Z" fill="#455A64"/>
<path opacity="0.3" d="M792.681 380.541V377.724L800.135 391.021C800.557 391.775 800.732 392.643 800.636 393.502C800.539 394.361 800.177 395.169 799.598 395.811L791.206 405.199L795.517 409.3C796.206 409.954 796.649 410.823 796.775 411.765C796.9 412.706 796.7 413.661 796.207 414.473L777.047 445.742L792.681 380.541Z" fill="white"/>
<path opacity="0.2" d="M803.929 395.198L785.957 473.486L782.221 474.827L783.849 464.231C787.5 440.461 794.251 417.271 803.929 395.255V395.198Z" fill="black"/>
<path opacity="0.2" d="M823.491 486.189L827.093 459.576C824.698 451.912 823.396 446.643 823.396 446.643L822.821 431.851L790.383 499.467C791.571 502.417 792.854 505.425 794.215 508.51L805.5 505.924C810.147 504.848 814.356 502.384 817.57 498.859C820.783 495.334 822.849 490.915 823.491 486.189V486.189Z" fill="black"/>
<path d="M730.24 500.444C730.125 478.486 730.24 453.004 732.405 438.864C739.475 407 748.71 395.083 756.566 380.387H761.011V375.291L753.96 380.387H745.012C712.555 418.611 712.708 439.649 712.44 445.742C712.172 451.835 713.417 490.749 713.417 490.749L730.24 500.444Z" fill="#455A64"/>
<path d="M742.272 388.856C741.696 389.276 741.237 389.836 740.938 390.483C740.64 391.13 740.512 391.843 740.567 392.554L741.161 400.218L733.784 403.092C732.963 403.414 732.265 403.988 731.79 404.731C731.315 405.475 731.087 406.35 731.14 407.23L733.056 436.2C740.031 406.387 748.959 394.7 756.585 380.426H761.03V375.329L742.272 388.856Z" fill="#455A64"/>
<g opacity="0.3">
<path d="M742.272 388.856C741.696 389.276 741.237 389.836 740.938 390.483C740.64 391.13 740.512 391.843 740.567 392.554L741.161 400.218L733.784 403.092C732.963 403.414 732.265 403.988 731.79 404.731C731.315 405.475 731.087 406.35 731.14 407.23L733.056 436.2C740.031 406.387 748.959 394.7 756.585 380.426H761.03V375.329L742.272 388.856Z" fill="white"/>
</g>
<path d="M426.764 521.788V708.809L433.374 704.996V517.956L426.764 521.788Z" fill="#455A64"/>
<path d="M426.764 521.788V708.809L420.154 704.996V517.956L426.764 521.788Z" fill="#37474F"/>
<path d="M433.374 571.662L588.168 482.299V475.191L433.374 564.553V571.662Z" fill="#455A64"/>
<path d="M433.374 557.043L581.557 471.378L588.168 475.191L433.374 564.553V557.043Z" fill="#37474F"/>
<path d="M858.478 584.786V771.807L865.088 767.994V580.954L858.478 584.786Z" fill="#455A64"/>
<path d="M858.477 584.786V771.807L851.867 767.994V580.954L858.477 584.786Z" fill="#37474F"/>
<path d="M697.073 678V865.02L703.683 861.208V674.168L697.073 678Z" fill="#455A64"/>
<path d="M697.073 678V865.02L690.463 861.208V674.168L697.073 678Z" fill="#37474F"/>
<path d="M703.684 727.873L858.477 638.511V631.402L703.684 720.765V727.873Z" fill="#455A64"/>
<path d="M703.684 713.254L851.867 627.59L858.477 631.402L703.684 720.765V713.254Z" fill="#37474F"/>
<g opacity="0.2">
<path d="M858.477 584.786V771.807L865.087 767.994V580.954L858.477 584.786Z" fill="white"/>
<path d="M858.477 584.786V771.807L851.867 767.994V580.954L858.477 584.786Z" fill="white"/>
<path d="M697.073 677.999V865.02L703.683 861.207V674.167L697.073 677.999Z" fill="white"/>
<path d="M697.073 677.999V865.02L690.463 861.207V674.167L697.073 677.999Z" fill="white"/>
<path d="M703.684 727.873L858.477 638.511V631.402L703.684 720.765V727.873Z" fill="white"/>
<path d="M703.684 713.254L851.867 627.59L858.477 631.402L703.684 720.765V713.254Z" fill="white"/>
</g>
<g opacity="0.2">
<path d="M426.765 521.788V708.809L433.375 704.996V517.956L426.765 521.788Z" fill="white"/>
<path d="M426.764 521.788V708.809L420.154 704.996V517.956L426.764 521.788Z" fill="white"/>
<path d="M433.375 571.662L588.169 482.299V475.191L433.375 564.553V571.662Z" fill="white"/>
<path d="M433.375 557.043L581.558 471.378L588.169 475.191L433.375 564.553V557.043Z" fill="white"/>
</g>
<path d="M697.073 659.951L420.135 500.444L588.149 403.398L865.087 562.905L697.073 659.951Z" fill="#9F86C0"/>
<path d="M697.073 678L420.135 517.956V500.444L697.073 659.951V678Z" fill="#9F86C0"/>
<path d="M697.073 659.932L865.087 562.886V580.954L697.073 678V659.932Z" fill="#9F86C0"/>
<path opacity="0.4" d="M697.073 659.951L420.135 500.444L588.149 403.398L865.087 562.905L697.073 659.951Z" fill="white"/>
<path opacity="0.3" d="M697.073 659.932L865.087 562.886V580.954L697.073 678V659.932Z" fill="white"/>
<path opacity="0.2" d="M697.073 678L420.135 517.956V500.444L697.073 659.951V678Z" fill="white"/>
<path opacity="0.05" d="M711.041 611.112C706.562 608.835 701.609 607.648 696.585 607.648C691.561 607.648 686.607 608.835 682.129 611.112C674.177 615.749 674.216 623.24 682.225 627.858C686.701 630.143 691.655 631.335 696.681 631.335C701.707 631.335 706.661 630.143 711.137 627.858C719.088 623.24 719.05 615.749 711.041 611.112Z" fill="black"/>
<path d="M717.977 582.027L696.019 582.659L674.043 582.027C673.104 596.857 675.959 611.974 679.982 619.37C680.925 621.27 682.449 622.82 684.332 623.796C687.956 625.638 691.964 626.599 696.029 626.599C700.094 626.599 704.102 625.638 707.726 623.796C709.641 622.809 711.172 621.211 712.075 619.255C716.061 611.821 718.935 596.78 717.977 582.027Z" fill="white"/>
<path d="M711.501 573.022C720.104 578.003 720.162 586.051 711.597 591.032C703.033 596.014 689.142 595.995 680.52 591.032C671.898 586.07 671.878 578.003 680.52 573.022C689.161 568.04 702.898 568.059 711.501 573.022Z" fill="#EBEBEB"/>
<path d="M708.091 574.995C714.816 578.827 714.854 585.169 708.091 589.04C704.339 590.957 700.186 591.957 695.972 591.957C691.759 591.957 687.605 590.957 683.853 589.04C677.147 585.208 677.109 578.885 683.853 574.995C687.61 573.093 691.761 572.102 695.972 572.102C700.183 572.102 704.334 573.093 708.091 574.995V574.995Z" fill="#E0E0E0"/>
<g opacity="0.15">
<path d="M708.091 574.995C714.816 578.827 714.854 585.169 708.091 589.04C704.339 590.957 700.186 591.957 695.972 591.957C691.759 591.957 687.605 590.957 683.853 589.04C677.147 585.208 677.109 578.885 683.853 574.995C687.61 573.093 691.761 572.102 695.972 572.102C700.183 572.102 704.334 573.093 708.091 574.995V574.995Z" fill="black"/>
</g>
<path d="M694.181 582.64C695.941 584.121 698.029 585.16 700.272 585.67C702.515 586.18 704.848 586.146 707.075 585.572C709.218 584.919 711.164 583.743 712.739 582.151C714.315 580.559 715.469 578.601 716.1 576.452C713.496 575.215 711.114 573.558 709.049 571.547C712.344 570.728 715.804 570.855 719.031 571.911C719.938 570.5 720.482 568.887 720.612 567.215C720.743 565.543 720.456 563.865 719.778 562.331C716.033 560.663 711.819 560.371 707.88 561.507C709.515 560.076 711.427 558.998 713.497 558.339C715.568 557.679 717.751 557.453 719.912 557.675C720.223 551.379 719.238 545.086 717.019 539.185C708.838 539.607 700.887 543.132 698.223 545.681C698.094 548.609 698.398 551.54 699.124 554.379C698.062 553.839 697.155 553.039 696.485 552.055C695.815 551.07 695.404 549.932 695.292 548.746C690.176 550.03 687.973 552.578 687.168 554.494C687.919 558.134 689.595 561.519 692.035 564.323C690.493 563.722 689.095 562.804 687.93 561.629C686.765 560.455 685.859 559.049 685.271 557.502C680.558 568.845 681.458 581.548 694.181 582.64Z" fill="#9F86C0"/>
<path opacity="0.2" d="M694.181 582.64C695.941 584.121 698.029 585.16 700.272 585.67C702.515 586.18 704.848 586.146 707.075 585.572C709.218 584.919 711.164 583.743 712.739 582.151C714.315 580.559 715.469 578.601 716.1 576.452C713.496 575.215 711.114 573.558 709.049 571.547C712.344 570.728 715.804 570.855 719.031 571.911C719.938 570.5 720.482 568.887 720.612 567.215C720.743 565.543 720.456 563.865 719.778 562.331C716.033 560.663 711.819 560.371 707.88 561.507C709.515 560.076 711.427 558.998 713.497 558.339C715.568 557.679 717.751 557.453 719.912 557.675C720.223 551.379 719.238 545.086 717.019 539.185C708.838 539.607 700.887 543.132 698.223 545.681C698.094 548.609 698.398 551.54 699.124 554.379C698.062 553.839 697.155 553.039 696.485 552.055C695.815 551.07 695.404 549.932 695.292 548.746C690.176 550.03 687.973 552.578 687.168 554.494C687.919 558.134 689.595 561.519 692.035 564.323C690.493 563.722 689.095 562.804 687.93 561.629C686.765 560.455 685.859 559.049 685.271 557.502C680.558 568.845 681.458 581.548 694.181 582.64Z" fill="black"/>
<path opacity="0.3" d="M694.181 582.64C695.941 584.121 698.029 585.16 700.272 585.67C702.515 586.18 704.848 586.146 707.075 585.572C709.218 584.919 711.164 583.743 712.739 582.151C714.315 580.559 715.469 578.601 716.1 576.452C713.496 575.215 711.114 573.558 709.049 571.547C712.344 570.728 715.804 570.855 719.031 571.911C719.938 570.5 720.482 568.887 720.612 567.215C720.743 565.543 720.456 563.865 719.778 562.331C716.033 560.663 711.819 560.371 707.88 561.507C709.515 560.076 711.427 558.998 713.497 558.339C715.568 557.679 717.751 557.453 719.912 557.675C720.223 551.379 719.238 545.086 717.019 539.185C708.838 539.607 700.887 543.132 698.223 545.681C698.094 548.609 698.398 551.54 699.124 554.379C698.062 553.839 697.155 553.039 696.485 552.055C695.815 551.07 695.404 549.932 695.292 548.746C690.176 550.03 687.973 552.578 687.168 554.494C687.919 558.134 689.595 561.519 692.035 564.323C690.493 563.722 689.095 562.804 687.93 561.629C686.765 560.455 685.859 559.049 685.271 557.502C680.558 568.845 681.458 581.548 694.181 582.64Z" fill="white"/>
<path d="M693.892 583.866C693.767 583.852 693.652 583.791 693.57 583.695C693.488 583.599 693.446 583.475 693.452 583.349C694.237 573.003 700.158 555.931 714.279 541.849C714.32 541.803 714.37 541.767 714.426 541.742C714.482 541.717 714.543 541.705 714.604 541.705C714.666 541.705 714.726 541.717 714.782 541.742C714.838 541.767 714.889 541.803 714.93 541.849C714.976 541.892 715.012 541.943 715.037 542.001C715.062 542.059 715.075 542.121 715.075 542.184C715.075 542.247 715.062 542.309 715.037 542.367C715.012 542.424 714.976 542.476 714.93 542.519C701.02 556.41 695.176 573.175 694.41 583.426C694.405 583.489 694.388 583.55 694.359 583.606C694.33 583.663 694.291 583.713 694.243 583.754C694.195 583.795 694.139 583.826 694.079 583.845C694.019 583.864 693.955 583.872 693.892 583.866V583.866Z" fill="#F5F5F5"/>
<path d="M697.763 588.12C696.124 589.478 694.185 590.427 692.106 590.887C690.028 591.347 687.869 591.306 685.81 590.766C683.75 590.227 681.849 589.206 680.263 587.786C678.676 586.366 677.451 584.589 676.687 582.602C679.045 581.525 681.203 580.054 683.067 578.253C679.949 577.513 676.69 577.612 673.622 578.54C672.692 577.357 672.082 575.955 671.851 574.469C671.619 572.983 671.774 571.462 672.299 570.052C675.868 568.576 679.828 568.339 683.546 569.382C680.23 566.803 676.065 565.565 671.878 565.914C671.164 560.36 671.701 554.717 673.449 549.398C681.266 549.877 688.988 553.115 691.67 555.395C691.967 557.95 691.864 560.536 691.364 563.059C692.309 562.613 693.111 561.913 693.68 561.036C694.248 560.159 694.561 559.141 694.583 558.096C699.487 559.284 701.691 561.564 702.553 563.308C702.086 566.517 700.718 569.527 698.606 571.987C699.981 571.499 701.228 570.706 702.254 569.667C703.279 568.629 704.056 567.372 704.527 565.99C709.7 576.03 709.585 587.239 697.763 588.12Z" fill="#9F86C0"/>
<path opacity="0.3" d="M697.763 588.12C696.124 589.478 694.185 590.427 692.106 590.887C690.028 591.347 687.869 591.306 685.81 590.766C683.75 590.227 681.849 589.206 680.263 587.786C678.676 586.366 677.451 584.589 676.687 582.602C679.045 581.525 681.203 580.054 683.067 578.253C679.949 577.513 676.69 577.612 673.622 578.54C672.692 577.357 672.082 575.955 671.851 574.469C671.619 572.983 671.774 571.462 672.299 570.052C675.868 568.576 679.828 568.339 683.546 569.382C680.23 566.803 676.065 565.565 671.878 565.914C671.164 560.36 671.701 554.717 673.449 549.398C681.266 549.877 688.988 553.115 691.67 555.395C691.967 557.95 691.864 560.536 691.364 563.059C692.309 562.613 693.111 561.913 693.68 561.036C694.248 560.159 694.561 559.141 694.583 558.096C699.487 559.284 701.691 561.564 702.553 563.308C702.086 566.517 700.718 569.527 698.606 571.987C699.981 571.499 701.228 570.706 702.254 569.667C703.279 568.629 704.056 567.372 704.527 565.99C709.7 576.03 709.585 587.239 697.763 588.12Z" fill="white"/>
<path d="M698.07 589.308C697.958 589.305 697.851 589.263 697.767 589.19C697.683 589.116 697.628 589.016 697.61 588.906C696.268 579.9 689.716 564.956 675.691 552.502C675.603 552.412 675.554 552.292 675.554 552.166C675.554 552.041 675.603 551.92 675.691 551.831C675.734 551.785 675.786 551.749 675.843 551.724C675.901 551.699 675.963 551.686 676.026 551.686C676.089 551.686 676.151 551.699 676.209 551.724C676.266 551.749 676.318 551.785 676.361 551.831C690.578 564.477 697.227 579.67 698.587 588.848C698.603 588.972 698.57 589.098 698.495 589.198C698.42 589.299 698.308 589.366 698.184 589.385L698.07 589.308Z" fill="white"/>
<path d="M560.673 493.757L625.952 455.801C628.031 454.752 630.328 454.205 632.658 454.205C634.987 454.205 637.284 454.752 639.364 455.801L747.062 517.994C747.794 518.329 748.431 518.84 748.916 519.482C749.401 520.125 749.719 520.877 749.84 521.673V521.673V525.812C749.879 526.098 749.879 526.388 749.84 526.674C749.831 526.705 749.831 526.738 749.84 526.77C749.726 527.094 749.571 527.403 749.38 527.689V527.785C749.15 528.117 748.88 528.419 748.576 528.686C748.21 529.012 747.812 529.301 747.388 529.548L682.09 567.485C681.483 567.827 680.841 568.103 680.174 568.308C679.944 568.404 679.715 568.462 679.465 568.538C679.216 568.615 678.833 568.711 678.507 568.768C678.182 568.826 677.741 568.922 677.358 568.96H677.07C676.541 568.989 676.01 568.989 675.48 568.96H675.231C674.695 568.96 674.158 568.96 673.641 568.96H673.411C672.895 568.9 672.383 568.811 671.878 568.692H671.61C671.169 568.581 670.734 568.446 670.307 568.289H670.058C669.56 568.102 669.079 567.871 668.621 567.6L560.693 505.349C560.26 505.097 559.85 504.809 559.466 504.487L559.16 504.142C558.964 503.947 558.779 503.742 558.604 503.529C558.526 503.392 558.456 503.251 558.393 503.107C558.267 502.913 558.158 502.708 558.068 502.494C558.068 502.36 558.068 502.206 558.068 502.053C558.048 501.849 558.048 501.644 558.068 501.44V497.608C558.132 496.796 558.406 496.014 558.863 495.339C559.319 494.664 559.943 494.119 560.673 493.757V493.757Z" fill="#E0E0E0"/>
<path d="M567.054 497.627L671.686 558.039L672.108 558.25H672.319C672.529 558.25 672.721 558.384 673.143 558.479C673.332 558.528 673.524 558.567 673.717 558.594H674.12C674.458 558.619 674.797 558.619 675.135 558.594H675.212C675.569 558.619 675.928 558.619 676.285 558.594L676.955 558.479L677.818 558.25C678.066 558.186 678.304 558.089 678.527 557.962L712.191 538.381L604.128 476.072L567.054 497.627Z" fill="#E0E0E0"/>
<path d="M666.59 481.016L646.913 492.512C646.589 492.668 646.316 492.913 646.125 493.218C645.933 493.523 645.832 493.876 645.832 494.236C645.832 494.596 645.933 494.949 646.125 495.254C646.316 495.559 646.589 495.803 646.913 495.96L676.343 512.955C676.844 513.243 677.412 513.394 677.99 513.394C678.569 513.394 679.137 513.243 679.638 512.955L699.315 501.459C699.639 501.302 699.913 501.057 700.104 500.752C700.295 500.448 700.396 500.095 700.396 499.735C700.396 499.375 700.295 499.022 700.104 498.717C699.913 498.412 699.639 498.167 699.315 498.011L669.867 481.016C669.368 480.728 668.804 480.577 668.228 480.577C667.653 480.577 667.088 480.728 666.59 481.016Z" fill="#E0E0E0"/>
<path opacity="0.2" d="M567.054 497.627L671.686 558.039L672.108 558.25H672.319C672.529 558.25 672.721 558.384 673.143 558.479C673.332 558.528 673.524 558.567 673.717 558.594H674.12C674.458 558.619 674.797 558.619 675.135 558.594H675.212C675.569 558.619 675.928 558.619 676.285 558.594L676.955 558.479L677.818 558.25C678.066 558.186 678.304 558.089 678.527 557.962L712.191 538.381L604.128 476.072L567.054 497.627Z" fill="black"/>
<path opacity="0.2" d="M666.59 481.016L646.913 492.512C646.589 492.668 646.316 492.913 646.125 493.218C645.933 493.523 645.832 493.876 645.832 494.236C645.832 494.596 645.933 494.949 646.125 495.254C646.316 495.559 646.589 495.803 646.913 495.96L676.343 512.955C676.844 513.243 677.412 513.394 677.99 513.394C678.569 513.394 679.137 513.243 679.638 512.955L699.315 501.459C699.639 501.302 699.913 501.057 700.104 500.752C700.295 500.448 700.396 500.095 700.396 499.735C700.396 499.375 700.295 499.022 700.104 498.717C699.913 498.412 699.639 498.167 699.315 498.011L669.867 481.016C669.368 480.728 668.804 480.577 668.228 480.577C667.653 480.577 667.088 480.728 666.59 481.016Z" fill="black"/>
<path d="M715.16 497.953C709.182 506.019 714.107 518.722 721.809 520.179C734.799 512.84 725.526 499.16 715.16 497.953Z" fill="#263238"/>
<path d="M687.57 501.076L675.48 506.345C674.893 506.6 674.401 507.034 674.074 507.584C673.748 508.134 673.603 508.773 673.66 509.411C673.727 510.168 674.074 510.873 674.634 511.387C675.195 511.901 675.927 512.187 676.687 512.189H688.183L687.57 501.076Z" fill="#F28F8F"/>
<path d="M704.967 502.877L694.199 497.876C692.886 497.263 691.417 497.064 689.987 497.303C688.557 497.542 687.233 498.21 686.191 499.218L678.527 506.556C677.498 507.545 676.859 508.871 676.726 510.292L675.959 518.128C675.916 518.788 676.105 519.443 676.493 519.978C676.882 520.513 677.445 520.896 678.086 521.06V521.06C678.479 521.158 678.889 521.171 679.288 521.097C679.687 521.023 680.065 520.865 680.398 520.632C680.73 520.4 681.008 520.099 681.215 519.749C681.421 519.4 681.549 519.011 681.592 518.607L682.263 511.748L686.267 507.284L684.064 510.714C683.474 511.617 683.18 512.682 683.221 513.76L683.412 519.661C683.442 520.581 683.724 521.475 684.227 522.246C684.731 523.016 685.437 523.633 686.267 524.03L695.598 528.494C696.385 528.872 697.257 529.037 698.128 528.973C698.998 528.909 699.837 528.619 700.561 528.13C701.979 527.175 703.335 526.132 704.622 525.007C704.926 524.637 705.119 524.19 705.18 523.715C705.241 523.241 705.167 522.759 704.967 522.325L709.24 519.221L795.345 504.487L774.595 477.528L704.967 502.877Z" fill="#FFA8A7"/>
<path d="M704.967 522.401C703.149 523.35 701.076 523.699 699.047 523.397C699.449 521.476 699.521 519.499 699.258 517.554C700.248 518.832 700.847 520.369 700.982 521.98C702.217 522.594 703.631 522.743 704.967 522.401Z" fill="#F28F8F"/>
<path d="M820.962 382.591C817.086 382.314 813.239 383.433 810.115 385.745C806.991 388.057 804.797 391.41 803.929 395.198L785.957 473.486L774.595 477.605L715.199 497.953C725.316 505.617 721.848 520.179 721.848 520.179L795.384 504.563C801.648 503.486 807.436 500.525 811.975 496.075C816.514 491.625 819.589 485.897 820.79 479.655L835.831 401.923C836.267 399.659 836.218 397.329 835.687 395.085C835.156 392.842 834.155 390.737 832.749 388.909C831.344 387.082 829.566 385.574 827.534 384.484C825.502 383.395 823.262 382.75 820.962 382.591Z" fill="#455A64"/>
<path opacity="0.1" d="M785.957 473.486C793.889 473.486 800.116 481.686 800.902 484.713C802.454 468.715 793.238 468.083 786.609 470.65L785.957 473.486Z" fill="black"/>
<path d="M740.663 380.291C727.658 379.992 715.014 384.587 705.236 393.167L660.555 432.349C657.668 434.882 655.147 437.803 653.063 441.029L629.765 477.107L653.121 492.607L678.029 456.606L714.701 431.008C717.824 419.953 725.565 403.226 745.012 380.311L740.663 380.291Z" fill="#455A64"/>
<path opacity="0.2" d="M703.377 438.979L714.7 431.085C717.172 422.309 722.594 410.009 734.416 393.78C720.306 405.882 709.606 421.464 703.377 438.979Z" fill="black"/>
<path d="M543.008 417.692L545.594 416.408C546.056 416.206 546.559 416.116 547.062 416.146C547.565 416.176 548.053 416.325 548.488 416.58L656.933 479.636C658.619 480.613 660.065 481.954 661.166 483.562C662.267 485.17 662.994 487.003 663.294 488.929L674.445 559.821C674.553 560.512 674.435 561.22 674.106 561.838C673.778 562.457 673.259 562.952 672.625 563.25L670.134 564.476C669.682 564.656 669.194 564.729 668.709 564.689C668.224 564.649 667.754 564.498 667.337 564.247L558.891 501.191C557.221 500.212 555.788 498.874 554.698 497.273C553.608 495.673 552.887 493.85 552.588 491.937L541.437 421.045C541.322 420.392 541.411 419.72 541.692 419.12C541.973 418.52 542.433 418.021 543.008 417.692V417.692Z" fill="#E0E0E0"/>
<path d="M602.231 482.587C604.982 484.307 607.354 486.568 609.205 489.232C611.056 491.897 612.347 494.909 612.999 498.087C613.708 503.624 610.049 505.751 604.799 502.647C602.05 500.92 599.679 498.655 597.828 495.988C595.978 493.321 594.686 490.307 594.031 487.128C593.322 481.61 597.001 479.559 602.231 482.587Z" fill="white"/>
<path opacity="0.3" d="M672.299 560.932L661.148 490.04C660.848 488.115 660.12 486.281 659.02 484.673C657.919 483.065 656.473 481.724 654.787 480.747L546.341 417.692C545.847 417.404 545.285 417.252 544.713 417.252C544.14 417.252 543.578 417.404 543.084 417.692V417.692L545.671 416.408C546.132 416.206 546.635 416.116 547.138 416.146C547.641 416.176 548.13 416.325 548.564 416.58L657.009 479.636C658.695 480.613 660.142 481.954 661.242 483.562C662.343 485.17 663.07 487.003 663.37 488.929L674.522 559.821C674.63 560.512 674.511 561.22 674.183 561.838C673.854 562.457 673.335 562.952 672.701 563.25L670.211 564.476C670.913 564.216 671.505 563.721 671.885 563.076C672.266 562.43 672.412 561.673 672.299 560.932V560.932Z" fill="black"/>
</g>
<defs>
<clipPath id="clip0_101_275">
<rect width="1131" height="923" fill="white"/>
</clipPath>
</defs>
</svg>
