<svg width="1131" height="923" viewBox="0 0 1131 923" fill="none" xmlns="http://www.w3.org/2000/svg">
<g clip-path="url(#clip0_106_2486)">
<path d="M242.924 841.282C64.4874 755.656 64.4874 616.842 242.924 531.235C421.362 445.628 710.678 445.609 889.096 531.235C1067.51 616.861 1067.53 755.656 889.096 841.282C710.658 926.908 421.362 926.832 242.924 841.282Z" fill="#FAFAFA"/>
<path d="M566 906.35C448.856 906.35 331.693 884.948 242.503 842.145C155.861 800.567 108.076 745.214 108.076 686.259C108.076 627.304 155.785 571.95 242.445 530.373C420.825 444.766 711.061 444.766 889.44 530.373C976.082 571.95 1023.81 627.304 1023.81 686.259C1023.81 745.214 976.101 800.567 889.44 842.145C800.308 884.948 683.164 906.35 566 906.35ZM566 468.065C449.124 468.065 332.248 489.409 243.327 532.098C157.375 573.33 109.992 628.089 109.992 686.259C109.992 744.429 157.317 799.169 243.269 840.42C421.208 925.797 710.773 925.797 888.616 840.42C974.626 799.188 1022.01 744.429 1022.01 686.259C1022.01 628.089 974.626 573.33 888.674 532.136C799.752 489.409 682.876 468.065 566 468.065Z" fill="#F5F5F5"/>
<path d="M558.01 622.456V70.1884C558.01 59.3055 552.645 47.3688 546.015 43.556C539.386 39.7431 526.357 41.0268 516.911 46.4683L275.495 185.857C266.069 191.299 258.424 204.538 258.424 215.421V767.689C258.424 778.572 263.808 790.509 270.437 794.341C277.067 798.173 290.095 796.87 299.522 791.409L540.938 652.039C546.275 649.21 550.708 644.934 553.727 639.702C556.746 634.47 558.231 628.493 558.01 622.456V622.456Z" fill="#37474F"/>
<path d="M542.643 627.936L294.387 771.329V216.532L263.329 198.599C260.257 203.689 258.536 209.479 258.328 215.421V767.689C258.328 778.572 263.712 790.509 270.341 794.341C276.971 798.173 290 796.87 299.426 791.409L540.842 652.039C547.549 648.438 552.783 642.601 555.634 635.542L554.676 634.987L542.643 627.936Z" fill="#263238"/>
<path d="M540.479 65.1493L298.373 205.017C294.885 207.287 291.982 210.347 289.898 213.949C287.814 217.551 286.609 221.593 286.379 225.748V773.188C286.379 784.875 294.675 789.666 304.811 783.803L540.479 647.767C544.427 645.186 547.713 641.714 550.072 637.631C552.432 633.547 553.799 628.966 554.063 624.257V72.9858C554.063 64.3446 547.951 60.8 540.479 65.1493Z" fill="#455A64"/>
<path d="M542.242 100.691V610.347C541.999 614.825 540.706 619.183 538.466 623.067C536.225 626.952 533.101 630.254 529.347 632.707L311.172 758.76C304.064 762.899 298.277 759.565 298.277 751.326V237.666C298.675 230.257 301.922 223.288 307.34 218.219L308.547 217.126C309.382 216.47 310.259 215.869 311.172 215.325L372.484 179.879L376.469 177.561C378.692 176.296 380.474 177.312 380.474 179.879C380.474 182.447 382.39 183.405 384.766 182.025L456.309 140.716C457.536 139.954 458.566 138.914 459.316 137.678C460.065 136.443 460.512 135.049 460.62 133.608C460.695 132.297 461.054 131.018 461.673 129.86C462.291 128.702 463.155 127.693 464.203 126.902L464.624 126.653L524.634 92.0308L525.917 91.2836C534.903 86.0912 542.242 90.3256 542.242 100.691Z" fill="black"/>
<path d="M510.628 618.356C514.377 615.9 517.497 612.597 519.734 608.712C521.97 604.828 523.262 600.472 523.503 595.996V92.6821L464.586 126.691L464.165 126.94C463.128 127.731 462.275 128.736 461.663 129.886C461.051 131.037 460.695 132.307 460.62 133.608C460.51 135.038 460.066 136.423 459.324 137.651C458.582 138.879 457.563 139.915 456.347 140.678L384.804 181.987C382.428 183.366 380.512 182.389 380.512 179.841C380.512 177.293 378.73 176.258 376.508 177.523L372.484 179.879L311.172 215.325C310.259 215.868 309.382 216.47 308.547 217.126L307.34 218.218C301.922 223.288 298.675 230.257 298.277 237.666V740.98L510.628 618.356Z" fill="#263238"/>
<path d="M395.629 160.202L428.411 141.272C430.327 140.142 431.956 140.946 431.956 143.073C431.86 144.258 431.49 145.405 430.875 146.423C430.26 147.44 429.417 148.301 428.411 148.936L395.629 167.866C393.713 168.996 392.084 168.192 392.084 166.065C392.179 164.88 392.549 163.733 393.165 162.715C393.78 161.698 394.623 160.837 395.629 160.202Z" fill="#263238"/>
<path d="M445.292 130.006C447.495 128.722 449.277 129.757 449.277 132.305C449.202 133.69 448.803 135.038 448.11 136.239C447.418 137.441 446.452 138.463 445.292 139.222C443.088 140.486 441.287 139.452 441.287 136.904C441.365 135.52 441.769 134.174 442.464 132.976C443.16 131.777 444.129 130.76 445.292 130.006V130.006Z" fill="#263238"/>
<path d="M280.803 285.566C280.735 283.288 280.129 281.059 279.033 279.061C277.937 277.062 276.384 275.352 274.5 274.07C273.878 273.623 273.146 273.354 272.383 273.294C271.62 273.233 270.854 273.382 270.17 273.725C269.384 274.204 266.338 275.928 265.437 276.427C264.757 276.945 264.224 277.63 263.888 278.416C263.552 279.201 263.426 280.061 263.521 280.91V328.542C263.593 330.821 264.203 333.051 265.302 335.049C266.401 337.047 267.958 338.757 269.844 340.038C270.442 340.46 271.138 340.722 271.866 340.799C272.593 340.876 273.329 340.766 274.002 340.478C274.883 340.019 278.064 338.179 278.887 337.681C279.57 337.166 280.106 336.481 280.442 335.694C280.778 334.908 280.903 334.047 280.803 333.198V285.566Z" fill="#455A64"/>
<path d="M276.109 288.268V335.918C276.109 340.191 273.292 342.05 269.805 340.038C267.919 338.757 266.362 337.047 265.264 335.049C264.165 333.051 263.554 330.821 263.482 328.542V280.987C263.482 276.695 266.318 274.856 269.805 276.867C271.679 278.138 273.226 279.832 274.321 281.813C275.416 283.794 276.029 286.005 276.109 288.268V288.268Z" fill="#37474F"/>
<path d="M280.804 368.95C280.736 366.672 280.129 364.443 279.033 362.445C277.938 360.447 276.384 358.736 274.5 357.454C273.88 357.004 273.149 356.732 272.386 356.668C271.622 356.604 270.856 356.75 270.17 357.09C269.384 357.569 266.338 359.313 265.437 359.811C264.755 360.326 264.219 361.011 263.883 361.798C263.547 362.584 263.422 363.445 263.521 364.294V412.003C263.605 414.266 264.221 416.478 265.32 418.459C266.418 420.44 267.968 422.133 269.844 423.403C270.439 423.831 271.134 424.099 271.863 424.179C272.591 424.26 273.328 424.151 274.002 423.863C274.883 423.403 278.064 421.564 278.888 421.065C279.569 420.549 280.104 419.864 280.44 419.078C280.776 418.291 280.901 417.431 280.804 416.582V368.95Z" fill="#455A64"/>
<path d="M276.109 371.652V419.284C276.109 423.575 273.292 425.415 269.805 423.403C267.929 422.133 266.379 420.44 265.281 418.459C264.182 416.478 263.566 414.266 263.482 412.003V364.371C263.482 360.079 266.318 358.221 269.805 360.232C271.679 361.507 273.226 363.205 274.321 365.189C275.416 367.173 276.029 369.387 276.109 371.652V371.652Z" fill="#37474F"/>
<path d="M581.979 123.185L346.962 258.704C345.424 259.708 344.143 261.061 343.225 262.652C342.306 264.243 341.775 266.028 341.674 267.862V786.408C341.772 788.243 342.305 790.028 343.227 791.617C344.15 793.206 345.437 794.553 346.981 795.548L350.277 797.464C351.92 798.291 353.735 798.722 355.574 798.722C357.414 798.722 359.229 798.291 360.872 797.464L595.889 661.715C597.425 660.704 598.704 659.348 599.622 657.754C600.54 656.16 601.073 654.374 601.177 652.538V134.202C601.075 132.368 600.542 130.584 599.619 128.996C598.697 127.408 597.412 126.06 595.87 125.063L592.574 123.147C590.928 122.325 589.112 121.901 587.272 121.908C585.432 121.914 583.619 122.352 581.979 123.185V123.185Z" fill="#E0E0E0"/>
<path d="M601.177 652.844C601.177 657.5 597.901 660.508 593.858 662.788L362.903 796.218C358.88 798.556 355.584 796.678 355.584 792.003V278.113C355.587 275.558 356.26 273.048 357.538 270.835C358.816 268.623 360.653 266.785 362.865 265.505L593.858 132.075C594.598 131.643 595.439 131.415 596.297 131.412C597.154 131.41 597.996 131.634 598.739 132.062C599.482 132.489 600.098 133.106 600.527 133.848C600.955 134.591 601.179 135.433 601.177 136.29V136.29V652.844Z" fill="#FAFAFA"/>
<path d="M601.177 134.221V136.291C601.175 135.433 600.947 134.591 600.517 133.849C600.086 133.107 599.468 132.492 598.725 132.064C597.981 131.637 597.138 131.413 596.28 131.415C595.422 131.417 594.58 131.645 593.839 132.075L362.903 265.506C360.681 266.77 358.841 268.61 357.577 270.832C357.57 270.883 357.57 270.934 357.577 270.985L343.283 262.746C344.185 261.087 345.507 259.693 347.115 258.704L581.978 123.185C583.619 122.358 585.43 121.927 587.267 121.927C589.103 121.927 590.915 122.358 592.555 123.185L595.869 125.101C597.412 126.094 598.697 127.438 599.619 129.023C600.542 130.609 601.075 132.39 601.177 134.221V134.221Z" fill="#F0F0F0"/>
<path d="M355.584 357.474L601.177 215.69V164.59L355.584 306.374V357.474Z" fill="#9F86C0"/>
<path opacity="0.5" d="M355.584 357.474L601.177 215.69V164.59L355.584 306.374V357.474Z" fill="white"/>
<path d="M355.584 749.257V792.003C355.584 796.678 358.88 798.556 362.903 796.218L593.858 662.865C597.901 660.527 601.177 657.577 601.177 652.921V607.454L355.584 749.257Z" fill="#9F86C0"/>
<path opacity="0.5" d="M355.584 749.257V792.003C355.584 796.678 358.88 798.556 362.903 796.218L593.858 662.865C597.901 660.527 601.177 657.577 601.177 652.921V607.454L355.584 749.257Z" fill="white"/>
<path d="M596.292 133.455C597.046 133.455 597.769 133.753 598.304 134.284C598.839 134.816 599.142 135.537 599.147 136.291V652.844C599.147 656.006 597.231 658.592 592.843 661.025L361.869 794.379C361.198 794.813 360.425 795.064 359.627 795.107C357.884 795.107 357.711 793.191 357.711 791.927V278.113C357.713 275.915 358.292 273.755 359.392 271.852C360.492 269.948 362.073 268.368 363.977 267.268L594.874 133.838C595.302 133.581 595.793 133.448 596.292 133.455ZM596.292 131.405C595.435 131.406 594.595 131.637 593.859 132.075L362.904 265.506C360.692 266.785 358.855 268.623 357.577 270.836C356.3 273.048 355.626 275.558 355.623 278.113V792.003C355.623 795.318 357.271 797.215 359.666 797.215C360.828 797.183 361.959 796.839 362.942 796.218L593.897 662.865C597.94 660.527 601.216 657.577 601.216 652.921V136.291C601.216 134.995 600.701 133.752 599.785 132.836C598.869 131.92 597.626 131.405 596.33 131.405H596.292Z" fill="#E0E0E0"/>
<path d="M400.686 267.939C400.657 267.826 400.657 267.707 400.686 267.594V265.812L398.023 267.345C397.87 267.421 397.793 267.345 397.793 267.115V266.502C397.793 266.368 397.793 266.253 397.793 266.157L397.889 265.831L400.724 258.167L400.859 257.861C400.909 257.795 400.975 257.742 401.05 257.707L401.414 257.497C401.529 257.497 401.606 257.497 401.663 257.497C401.706 257.621 401.706 257.756 401.663 257.88V263.896L402.257 263.551C402.372 263.551 402.449 263.551 402.487 263.551C402.52 263.677 402.52 263.809 402.487 263.934V264.337C402.512 264.476 402.512 264.619 402.487 264.758C402.468 264.813 402.438 264.864 402.398 264.907C402.359 264.95 402.311 264.984 402.257 265.007L401.663 265.352V267.057C401.698 267.202 401.698 267.353 401.663 267.498C401.612 267.608 401.524 267.696 401.414 267.747L400.974 268.015C400.82 267.977 400.744 267.996 400.686 267.939ZM400.801 264.337V260.064L398.885 265.429L400.801 264.337Z" fill="#455A64"/>
<path d="M403.867 265.065C403.234 264.026 402.958 262.808 403.082 261.597C403.048 260.097 403.315 258.605 403.867 257.209C404.291 256.105 405.065 255.17 406.071 254.546C406.404 254.355 406.766 254.219 407.144 254.144C407.423 254.078 407.717 254.119 407.967 254.259C407.979 254.282 407.985 254.309 407.985 254.335C407.985 254.362 407.979 254.388 407.967 254.412C407.982 254.481 407.982 254.553 407.967 254.623L407.737 255.504C407.737 255.619 407.737 255.677 407.623 255.696H407.527C407.297 255.618 407.051 255.596 406.811 255.633C406.571 255.669 406.343 255.763 406.147 255.906C405.445 256.356 404.918 257.032 404.653 257.822C404.252 258.854 404.064 259.955 404.097 261.06C404.007 261.97 404.194 262.885 404.634 263.685C404.978 264.107 405.477 264.145 406.09 263.8C406.323 263.664 406.542 263.504 406.741 263.321C406.934 263.149 407.108 262.957 407.258 262.747V259.968L406.147 260.62C406.051 260.62 405.975 260.62 405.917 260.62C405.886 260.5 405.886 260.375 405.917 260.256V259.873C405.892 259.727 405.892 259.578 405.917 259.432C405.973 259.331 406.052 259.246 406.147 259.183L407.929 258.148C408.063 258.148 408.14 258.148 408.197 258.148C408.239 258.292 408.239 258.445 408.197 258.589V262.536C408.209 262.65 408.209 262.766 408.197 262.881C408.176 262.976 408.137 263.067 408.082 263.149C407.575 264.018 406.848 264.738 405.975 265.237C405.055 265.812 404.384 265.697 403.867 265.065Z" fill="#455A64"/>
<path d="M426.341 251.48C426.352 252.109 426.218 252.732 425.949 253.3C425.68 253.869 425.283 254.367 424.789 254.757C423.927 255.236 423.237 254.565 423.237 253.262C423.224 252.633 423.358 252.01 423.627 251.441C423.897 250.873 424.294 250.375 424.789 249.986C425.651 249.488 426.341 250.158 426.341 251.48Z" fill="#455A64"/>
<path d="M424.79 246.077C422.984 247.391 421.706 249.307 421.188 251.48C421.111 251.66 421.086 251.858 421.116 252.051C421.147 252.245 421.231 252.425 421.361 252.572V252.572C421.648 252.764 422.089 252.381 422.261 251.768C422.613 250.226 423.511 248.865 424.79 247.936C425.004 247.785 425.251 247.687 425.51 247.651C425.77 247.615 426.034 247.641 426.281 247.727C426.528 247.813 426.751 247.957 426.932 248.147C427.112 248.336 427.245 248.566 427.319 248.817C427.492 249.239 427.932 249.124 428.22 248.587C428.337 248.397 428.413 248.185 428.443 247.964C428.472 247.743 428.455 247.518 428.392 247.303C428.285 246.947 428.095 246.621 427.836 246.353C427.578 246.085 427.259 245.883 426.907 245.763C426.554 245.643 426.179 245.609 425.81 245.664C425.442 245.718 425.092 245.86 424.79 246.077V246.077Z" fill="#455A64"/>
<path d="M424.79 242.265C422.108 244.185 420.161 246.963 419.272 250.139C419.099 250.637 419.138 251.155 419.387 251.327C419.674 251.5 420.096 251.155 420.287 250.561C421.007 247.968 422.597 245.702 424.79 244.142C425.154 243.878 425.572 243.699 426.014 243.618C426.456 243.537 426.91 243.556 427.344 243.673C427.778 243.791 428.18 244.004 428.52 244.298C428.861 244.591 429.131 244.957 429.312 245.368C429.503 245.713 429.906 245.598 430.193 245.1C430.31 244.899 430.382 244.675 430.405 244.444C430.429 244.213 430.402 243.979 430.327 243.759C430.106 243.255 429.775 242.807 429.358 242.448C428.94 242.089 428.448 241.828 427.917 241.685C427.385 241.541 426.829 241.519 426.287 241.619C425.746 241.72 425.235 241.94 424.79 242.265V242.265Z" fill="#455A64"/>
<path d="M465.218 224.58C465.196 224.485 465.196 224.387 465.218 224.292C465.239 224.172 465.277 224.056 465.333 223.947L467.555 219.962L467.728 219.694C467.771 219.612 467.838 219.545 467.919 219.502L468.705 219.042C468.717 219.03 468.732 219.02 468.749 219.013C468.765 219.006 468.783 219.002 468.801 219.002C468.819 219.002 468.836 219.006 468.853 219.013C468.869 219.02 468.884 219.03 468.896 219.042C468.929 219.075 468.955 219.114 468.971 219.157C468.988 219.2 468.995 219.246 468.992 219.292V229.408C468.987 229.529 468.955 229.647 468.896 229.753C468.882 229.802 468.857 229.848 468.824 229.887C468.791 229.927 468.751 229.959 468.705 229.983L467.881 230.462C467.881 230.462 467.747 230.462 467.689 230.462C467.656 230.382 467.656 230.292 467.689 230.213V222.415L466.233 225.001C466.19 225.094 466.115 225.168 466.022 225.212C465.993 225.229 465.96 225.238 465.927 225.238C465.893 225.238 465.86 225.229 465.831 225.212L465.218 224.58Z" fill="#455A64"/>
<path d="M470.41 221.591C470.391 221.545 470.381 221.496 470.381 221.447C470.381 221.398 470.391 221.349 470.41 221.303C470.385 221.19 470.385 221.072 470.41 220.958L472.633 216.973L472.805 216.705C472.849 216.623 472.915 216.557 472.997 216.513L473.802 216.034C473.829 216.013 473.863 216.001 473.898 216.001C473.932 216.001 473.966 216.013 473.993 216.034C474.026 216.114 474.026 216.204 473.993 216.283V226.477C474.02 226.59 474.02 226.708 473.993 226.821C473.956 226.917 473.889 226.997 473.802 227.051L472.959 227.53C472.932 227.552 472.898 227.564 472.863 227.564C472.828 227.564 472.794 227.552 472.767 227.53C472.749 227.488 472.74 227.442 472.74 227.396C472.74 227.35 472.749 227.305 472.767 227.262V219.483L471.311 222.07C471.268 222.157 471.202 222.23 471.119 222.281C471.09 222.297 471.057 222.306 471.024 222.306C470.99 222.306 470.957 222.297 470.928 222.281L470.41 221.591Z" fill="#455A64"/>
<path d="M477.193 217.222C477.223 217.199 477.26 217.186 477.298 217.186C477.336 217.186 477.373 217.199 477.403 217.222C477.431 217.303 477.431 217.391 477.403 217.471V219.004C477.423 219.118 477.423 219.235 477.403 219.349C477.364 219.454 477.29 219.542 477.193 219.598L476.254 220.154C476.254 220.154 476.101 220.154 476.062 220.154C476.014 220.116 475.978 220.065 475.958 220.007C475.938 219.95 475.934 219.888 475.947 219.828V218.276C475.952 218.155 475.985 218.037 476.043 217.931C476.058 217.882 476.083 217.836 476.115 217.797C476.148 217.757 476.189 217.725 476.235 217.701L477.193 217.222ZM477.193 222.74C477.225 222.722 477.261 222.712 477.298 222.712C477.335 222.712 477.371 222.722 477.403 222.74C477.428 222.828 477.428 222.921 477.403 223.009V224.541C477.421 224.656 477.421 224.772 477.403 224.886C477.364 224.991 477.29 225.079 477.193 225.135L476.254 225.691C476.254 225.691 476.101 225.691 476.062 225.691C476.03 225.659 476.004 225.62 475.988 225.577C475.971 225.534 475.964 225.488 475.966 225.442V223.89C475.971 223.769 476.004 223.651 476.062 223.545C476.077 223.496 476.102 223.45 476.135 223.411C476.168 223.371 476.208 223.339 476.254 223.315L477.193 222.74Z" fill="#455A64"/>
<path d="M482.672 221.974C482.645 221.996 482.611 222.008 482.576 222.008C482.541 222.008 482.507 221.996 482.48 221.974C482.463 221.935 482.454 221.892 482.454 221.85C482.454 221.807 482.463 221.764 482.48 221.725V219.809L479.319 221.629C479.29 221.648 479.257 221.658 479.223 221.658C479.189 221.658 479.156 221.648 479.127 221.629C479.062 221.555 479.028 221.459 479.031 221.361V220.25C479.003 220.111 479.003 219.967 479.031 219.828C479.031 219.694 479.127 219.541 479.185 219.387L482.327 211.551C482.394 211.304 482.534 211.084 482.729 210.919L483.515 210.459C483.542 210.437 483.576 210.425 483.611 210.425C483.646 210.425 483.679 210.437 483.707 210.459C483.74 210.539 483.74 210.628 483.707 210.708V217.012L484.607 216.513C484.634 216.492 484.668 216.48 484.703 216.48C484.738 216.48 484.771 216.492 484.799 216.513C484.83 216.594 484.83 216.682 484.799 216.763V217.912C484.826 218.026 484.826 218.144 484.799 218.257C484.755 218.348 484.689 218.427 484.607 218.487L483.707 219.004V220.92C483.733 221.034 483.733 221.152 483.707 221.265C483.669 221.36 483.602 221.441 483.515 221.495L482.672 221.974ZM482.384 217.836V214.463L480.641 218.851L482.384 217.836Z" fill="#455A64"/>
<path d="M486.791 208.984C486.765 208.87 486.765 208.752 486.791 208.639C486.829 208.544 486.896 208.463 486.983 208.409L490.815 206.186C490.842 206.164 490.876 206.153 490.911 206.153C490.946 206.153 490.979 206.164 491.007 206.186C491.007 206.186 491.007 206.32 491.007 206.435V207.547C491.034 207.66 491.034 207.778 491.007 207.891C490.964 207.989 490.898 208.074 490.815 208.141L487.941 209.788L487.826 211.877C487.98 211.68 488.16 211.506 488.363 211.359L488.822 211.072C489.142 210.87 489.501 210.739 489.876 210.689C490.18 210.649 490.487 210.724 490.738 210.9C491.002 211.112 491.196 211.399 491.294 211.723C491.447 212.187 491.518 212.673 491.505 213.16C491.511 213.805 491.44 214.448 491.294 215.076C491.155 215.593 490.962 216.094 490.719 216.571C490.486 217.003 490.196 217.403 489.857 217.759C489.549 218.071 489.201 218.342 488.822 218.564C488.447 218.795 488.031 218.951 487.596 219.023C487.305 219.05 487.014 218.976 486.772 218.813C486.53 218.636 486.349 218.388 486.255 218.104C486.134 217.766 486.076 217.409 486.082 217.05C486.053 216.93 486.053 216.805 486.082 216.686C486.138 216.597 486.209 216.519 486.293 216.456L487.117 215.977C487.145 215.958 487.179 215.948 487.213 215.948C487.247 215.948 487.28 215.958 487.309 215.977C487.372 216.03 487.414 216.105 487.424 216.188C487.441 216.362 487.507 216.529 487.615 216.667C487.697 216.758 487.804 216.825 487.922 216.858C488.047 216.895 488.18 216.895 488.305 216.858C488.468 216.812 488.623 216.741 488.765 216.648C489.174 216.405 489.502 216.044 489.704 215.613C489.943 215.137 490.068 214.612 490.068 214.08C490.087 213.9 490.064 213.718 490.001 213.549C489.938 213.379 489.836 213.227 489.704 213.103C489.567 213.005 489.403 212.952 489.234 212.952C489.066 212.952 488.902 213.005 488.765 213.103C488.587 213.2 488.42 213.315 488.267 213.448C488.16 213.553 488.064 213.669 487.979 213.793C487.914 213.886 487.843 213.975 487.769 214.061C487.711 214.15 487.632 214.222 487.539 214.272L486.6 214.808C486.573 214.83 486.539 214.842 486.504 214.842C486.469 214.842 486.435 214.83 486.408 214.808C486.375 214.728 486.375 214.639 486.408 214.559L486.791 208.984Z" fill="#455A64"/>
<path d="M371.238 286.217V282.922L374.093 281.274V284.57L371.238 286.217Z" fill="#455A64"/>
<path d="M375.51 283.746V277.174L378.345 275.526V282.098L375.51 283.746Z" fill="#455A64"/>
<path d="M379.783 281.274V271.426L382.619 269.778V279.646L379.783 281.274Z" fill="#455A64"/>
<path d="M384.037 278.822V265.678L386.892 264.03V277.174L384.037 278.822Z" fill="#455A64"/>
<path d="M583.894 152.768C583.588 152.327 583.224 152.212 582.841 152.423L572.207 158.516C571.778 158.933 571.445 159.439 571.233 159.998C571.021 160.558 570.935 161.157 570.981 161.754V167.713C570.954 168.382 571.113 169.045 571.44 169.629C571.547 169.796 571.7 169.929 571.881 170.012C571.974 170.068 572.08 170.097 572.188 170.097C572.296 170.097 572.402 170.068 572.494 170.012L583.128 163.919C583.557 163.502 583.89 162.996 584.102 162.437C584.313 161.877 584.4 161.278 584.354 160.681V154.684C584.394 154.014 584.234 153.347 583.894 152.768V152.768ZM571.747 168.882C571.611 168.609 571.551 168.304 571.575 168V162.022C571.547 161.572 571.615 161.121 571.774 160.698C571.932 160.276 572.178 159.891 572.494 159.57L583.128 153.458C583.181 153.431 583.241 153.417 583.3 153.417C583.36 153.417 583.419 153.431 583.473 153.458C583.526 153.484 583.572 153.524 583.607 153.573C583.745 153.845 583.805 154.15 583.779 154.454V160.432C583.806 160.887 583.736 161.342 583.574 161.768C583.412 162.194 583.162 162.581 582.841 162.904L572.207 169.016C572.169 169.042 572.126 169.06 572.081 169.067C572.035 169.075 571.989 169.072 571.945 169.059C571.9 169.046 571.86 169.024 571.826 168.993C571.791 168.962 571.764 168.924 571.747 168.882V168.882Z" fill="#455A64"/>
<path d="M574.525 159.436V166.506L572.858 167.464C572.827 167.484 572.79 167.496 572.753 167.498C572.715 167.499 572.678 167.491 572.645 167.473C572.611 167.456 572.583 167.43 572.564 167.398C572.544 167.366 572.533 167.329 572.532 167.291V162.022C572.502 161.672 572.548 161.32 572.667 160.989C572.786 160.658 572.976 160.357 573.222 160.106L574.525 159.436Z" fill="#455A64"/>
<path d="M575.291 159.014L577.284 157.845V164.915L575.291 166.065V159.014Z" fill="#455A64"/>
<path d="M578.07 157.424L580.063 156.274V163.344L578.07 164.494V157.424Z" fill="#455A64"/>
<path d="M582.821 155.144V160.241C582.821 160.703 582.699 161.158 582.467 161.559C582.235 161.959 581.901 162.291 581.499 162.521L580.828 162.904V155.834L582.418 154.914C582.459 154.891 582.505 154.878 582.552 154.878C582.599 154.878 582.645 154.89 582.686 154.914C582.726 154.937 582.76 154.97 582.784 155.011C582.808 155.051 582.82 155.097 582.821 155.144V155.144Z" fill="#455A64"/>
<path d="M584.757 154.473C585.044 154.301 585.293 155.163 585.293 156.389V157.501C585.375 158.397 585.188 159.297 584.757 160.087L584.201 160.451V154.703L584.757 154.473Z" fill="#455A64"/>
<path d="M554.848 172.541L565.175 163.364L561.994 176.814L560.481 171.219L554.848 172.541Z" fill="#455A64"/>
<path d="M374.092 330.764C373.931 330.767 373.772 330.727 373.632 330.65C373.491 330.573 373.374 330.459 373.293 330.321C373.212 330.182 373.17 330.024 373.172 329.864V308.788C373.172 308.628 373.214 308.471 373.295 308.333C373.376 308.195 373.492 308.081 373.632 308.002L400.053 292.674C400.192 292.59 400.351 292.545 400.513 292.545C400.676 292.545 400.835 292.59 400.973 292.674C401.109 292.755 401.221 292.87 401.299 293.008C401.376 293.146 401.416 293.302 401.414 293.46V314.536C401.412 314.693 401.371 314.848 401.294 314.985C401.217 315.122 401.107 315.238 400.973 315.322L374.532 330.65C374.398 330.726 374.246 330.765 374.092 330.764V330.764ZM374.992 309.286V328.293L399.613 314.076V295.069L374.992 309.286Z" fill="#FAFAFA"/>
<path d="M386.662 317.218C386.492 317.222 386.326 317.175 386.183 317.084L373.614 309.535C373.511 309.474 373.422 309.393 373.351 309.297C373.28 309.202 373.228 309.093 373.2 308.977C373.171 308.861 373.166 308.74 373.185 308.622C373.203 308.505 373.245 308.391 373.307 308.29C373.434 308.087 373.635 307.941 373.868 307.884C374.1 307.826 374.346 307.862 374.553 307.983L386.355 315.072L399.767 293.019C399.898 292.815 400.102 292.669 400.338 292.611C400.573 292.554 400.822 292.591 401.032 292.713C401.235 292.839 401.381 293.041 401.438 293.273C401.495 293.506 401.459 293.751 401.338 293.958L387.428 316.778C387.35 316.912 387.239 317.024 387.104 317.101C386.97 317.178 386.817 317.219 386.662 317.218Z" fill="#FAFAFA"/>
<path d="M374.093 330.764C373.967 330.793 373.836 330.793 373.71 330.764C373.49 330.664 373.318 330.481 373.232 330.255C373.146 330.029 373.152 329.779 373.25 329.557L380.818 313.003C380.917 312.785 381.099 312.614 381.323 312.53C381.548 312.446 381.797 312.454 382.016 312.553C382.234 312.652 382.404 312.834 382.489 313.058C382.573 313.283 382.565 313.532 382.466 313.75L374.917 330.324C374.831 330.464 374.71 330.579 374.565 330.657C374.42 330.734 374.257 330.771 374.093 330.764Z" fill="#FAFAFA"/>
<path d="M400.515 315.513C400.296 315.511 400.084 315.43 399.921 315.283L391.644 307.964C391.559 307.88 391.491 307.78 391.445 307.67C391.399 307.56 391.375 307.442 391.375 307.322C391.375 307.203 391.399 307.084 391.445 306.974C391.491 306.864 391.559 306.764 391.644 306.68C391.728 306.595 391.828 306.528 391.938 306.481C392.048 306.435 392.166 306.411 392.286 306.411C392.405 306.411 392.523 306.435 392.634 306.481C392.744 306.528 392.844 306.595 392.928 306.68L401.262 314.076C401.43 314.248 401.523 314.478 401.523 314.718C401.523 314.958 401.43 315.188 401.262 315.36C401.156 315.437 401.034 315.491 400.905 315.518C400.776 315.544 400.643 315.542 400.515 315.513V315.513Z" fill="#FAFAFA"/>
<path d="M400.802 324.059C397.276 326.089 394.402 323.924 394.402 319.211C394.436 316.812 395.033 314.454 396.145 312.328C397.256 310.201 398.851 308.365 400.802 306.968C404.327 304.937 407.201 307.102 407.201 311.815C407.167 314.214 406.571 316.572 405.459 318.699C404.348 320.825 402.752 322.661 400.802 324.059V324.059Z" fill="#9F86C0"/>
<path d="M401.491 319.728C401.47 319.747 401.443 319.758 401.415 319.758C401.386 319.758 401.359 319.747 401.338 319.728C401.324 319.695 401.316 319.659 401.316 319.623C401.316 319.587 401.324 319.551 401.338 319.518V317.985L398.79 319.46C398.781 319.472 398.769 319.482 398.756 319.488C398.742 319.495 398.728 319.498 398.713 319.498C398.698 319.498 398.683 319.495 398.67 319.488C398.657 319.482 398.645 319.472 398.636 319.46C398.621 319.43 398.613 319.398 398.613 319.364C398.613 319.331 398.621 319.298 398.636 319.269V318.368C398.615 318.254 398.615 318.137 398.636 318.023C398.636 317.908 398.636 317.793 398.77 317.659L401.28 311.336C401.341 311.138 401.461 310.964 401.625 310.838L402.258 310.474C402.279 310.455 402.306 310.445 402.334 310.445C402.362 310.445 402.39 310.455 402.411 310.474C402.433 310.543 402.433 310.616 402.411 310.685V315.762L403.12 315.36C403.141 315.341 403.168 315.331 403.196 315.331C403.225 315.331 403.252 315.341 403.273 315.36C403.295 315.428 403.295 315.502 403.273 315.571V316.471C403.291 316.566 403.291 316.664 403.273 316.759C403.237 316.833 403.184 316.899 403.12 316.95L402.411 317.353V318.885C402.428 318.98 402.428 319.078 402.411 319.173C402.381 319.251 402.327 319.318 402.258 319.364L401.491 319.728ZM401.223 316.395V313.712L399.824 317.238L401.223 316.395Z" fill="white"/>
<path d="M584.796 186.777C584.107 187.232 583.533 187.841 583.121 188.556C582.708 189.271 582.468 190.072 582.42 190.896C582.42 192.41 583.493 193.023 584.796 192.276C585.488 191.825 586.064 191.217 586.477 190.501C586.89 189.785 587.128 188.982 587.172 188.157C587.172 186.643 586.118 186.03 584.796 186.777Z" fill="#FAFAFA"/>
<path d="M584.796 196.836C584.105 197.288 583.529 197.897 583.117 198.612C582.704 199.328 582.465 200.131 582.42 200.955C582.42 202.469 583.493 203.082 584.796 202.316C585.491 201.868 586.07 201.261 586.483 200.544C586.896 199.828 587.132 199.023 587.172 198.196C587.172 196.644 586.118 196.031 584.796 196.836Z" fill="#FAFAFA"/>
<path d="M584.796 206.799C584.107 207.254 583.533 207.863 583.121 208.578C582.708 209.293 582.468 210.095 582.42 210.919C582.42 212.432 583.493 213.045 584.796 212.298C585.488 211.847 586.064 211.239 586.477 210.523C586.89 209.807 587.128 209.004 587.172 208.179C587.172 206.665 586.118 206.052 584.796 206.799Z" fill="#FAFAFA"/>
<path d="M572.993 216.762L566.344 215.479C566.861 213.822 567.132 212.098 567.149 210.363C567.149 207.01 565.999 204.404 563.988 203.255C563.044 202.761 561.982 202.539 560.92 202.613C559.857 202.687 558.837 203.055 557.971 203.676C553.411 206.301 549.694 213.352 549.694 219.387C549.557 220.745 549.776 222.115 550.33 223.361C550.885 224.608 551.755 225.689 552.856 226.496C553.602 226.923 554.448 227.147 555.308 227.147C556.57 227.111 557.8 226.741 558.872 226.074C562.069 223.939 564.488 220.827 565.769 217.203L572.648 218.544H572.839C573.026 218.54 573.206 218.476 573.354 218.362C573.502 218.249 573.611 218.091 573.663 217.912C573.701 217.792 573.713 217.666 573.699 217.542C573.685 217.418 573.645 217.297 573.582 217.189C573.519 217.081 573.434 216.987 573.332 216.914C573.231 216.84 573.115 216.789 572.993 216.762V216.762ZM557.971 224.426C557.372 224.87 556.664 225.143 555.922 225.217C555.18 225.292 554.432 225.164 553.756 224.848C552.943 224.191 552.31 223.339 551.918 222.37C551.526 221.401 551.387 220.348 551.514 219.311C551.514 213.85 554.81 207.508 558.872 205.171C559.665 204.668 560.577 204.383 561.516 204.347C562.066 204.341 562.608 204.48 563.087 204.749C563.9 205.406 564.533 206.258 564.925 207.227C565.318 208.196 565.456 209.249 565.329 210.286C565.329 215.824 562.033 222.166 557.971 224.503V224.426Z" fill="#FAFAFA"/>
<path d="M530.669 237.072L528.389 239.659C528.197 239.869 528.006 239.659 528.044 239.41L528.351 235.578C528.394 235.198 528.484 234.824 528.619 234.466L538.831 209.156C539.674 207.048 542.261 208.773 541.418 210.88L531.205 236.191C531.078 236.513 530.896 236.811 530.669 237.072V237.072Z" fill="#FAFAFA"/>
<path d="M537.929 224.312V241.556L523.52 249.871V223.2L533.503 217.452L534.614 214.712L522.16 221.917C522.024 221.993 521.912 222.104 521.834 222.239C521.756 222.374 521.717 222.527 521.719 222.683V251.423C521.713 251.582 521.751 251.739 521.829 251.878C521.907 252.016 522.021 252.131 522.16 252.209C522.296 252.299 522.457 252.346 522.62 252.343C522.783 252.343 522.943 252.297 523.08 252.209L539.289 242.839C539.43 242.763 539.547 242.649 539.628 242.51C539.709 242.372 539.751 242.214 539.749 242.054V219.828L537.929 224.312Z" fill="#FAFAFA"/>
<path d="M396.855 737.282C393.549 739.44 390.798 742.346 388.824 745.764C386.85 749.183 385.709 753.018 385.493 756.96C385.406 758.178 385.576 759.402 385.991 760.55C386.407 761.699 387.06 762.747 387.907 763.627L387.275 769.375C387.266 769.472 387.288 769.57 387.337 769.653C387.387 769.737 387.462 769.803 387.552 769.841C387.641 769.879 387.74 769.888 387.835 769.867C387.93 769.845 388.016 769.794 388.08 769.72L392.218 765.103C393.863 764.964 395.452 764.439 396.855 763.57C400.162 761.419 402.915 758.517 404.89 755.101C406.864 751.685 408.004 747.852 408.217 743.912C408.217 736.593 403.139 733.661 396.855 737.282Z" fill="white"/>
<path d="M555.155 660.776C556.628 659.728 557.833 658.347 558.672 656.746C559.511 655.145 559.96 653.368 559.984 651.56C559.984 647.997 557.819 646.368 555.155 647.901C553.68 648.951 552.474 650.335 551.635 651.94C550.796 653.545 550.348 655.325 550.327 657.136C550.327 660.681 552.473 662.424 555.155 660.776ZM571.077 651.58C572.55 650.531 573.755 649.15 574.594 647.549C575.433 645.948 575.882 644.171 575.906 642.364C575.906 638.8 573.741 637.171 571.077 638.704C569.608 639.76 568.405 641.145 567.567 642.749C566.729 644.352 566.277 646.13 566.249 647.939C566.249 651.484 568.414 653.132 571.077 651.58ZM580.657 652.384C580.389 650.296 578.952 649.472 577.285 650.468L564.735 657.711C563.793 658.37 563.003 659.224 562.421 660.217C561.839 661.209 561.479 662.315 561.363 663.459L560.999 666.793L580.983 655.297L580.657 652.384ZM545.499 672.713L545.135 676.047L559.313 667.885L559.792 663.344C559.908 662.196 560.233 661.079 560.75 660.048L548.89 666.869C547.937 667.541 547.14 668.411 546.555 669.42C545.969 670.429 545.609 671.552 545.499 672.713V672.713Z" fill="#FAFAFA"/>
<path d="M387.293 396.1C381.086 399.683 376.027 395.87 376.027 387.574C376.027 379.278 381.086 369.64 387.293 366.057C393.501 362.474 398.559 366.287 398.559 374.564C398.559 382.841 393.559 392.536 387.293 396.1Z" fill="#9F86C0"/>
<path d="M394.191 383.761C392.629 387.916 389.731 391.434 385.952 393.763C385.018 394.349 383.949 394.685 382.848 394.74C382.363 394.741 381.883 394.628 381.45 394.408C381.017 394.188 380.643 393.868 380.357 393.475L380.587 389.931C380.661 389.123 380.91 388.341 381.317 387.639C381.724 386.938 382.279 386.334 382.944 385.869L391.643 380.772C392.831 380.082 393.827 380.657 393.999 382.094L394.191 383.761Z" fill="#FAFAFA"/>
<path d="M390.916 374.584C390.897 375.905 390.568 377.204 389.955 378.375C389.343 379.546 388.464 380.558 387.39 381.328C385.474 382.458 383.846 381.328 383.846 378.665C383.867 377.341 384.199 376.042 384.815 374.87C385.43 373.699 386.313 372.688 387.39 371.92C389.325 370.79 390.916 371.997 390.916 374.584Z" fill="#FAFAFA"/>
<path d="M359.838 423.365C359.639 423.365 359.446 423.299 359.288 423.177C359.13 423.055 359.017 422.885 358.967 422.692C358.916 422.499 358.931 422.295 359.009 422.112C359.087 421.929 359.224 421.776 359.398 421.679L595.411 285.413C595.514 285.354 595.628 285.315 595.746 285.3C595.863 285.285 595.983 285.293 596.098 285.325C596.213 285.356 596.32 285.409 596.414 285.482C596.508 285.554 596.587 285.645 596.646 285.748C596.706 285.851 596.744 285.965 596.759 286.083C596.774 286.201 596.766 286.321 596.735 286.436C596.704 286.55 596.65 286.658 596.578 286.752C596.505 286.846 596.414 286.925 596.311 286.984L360.298 423.25C360.156 423.324 359.999 423.363 359.838 423.365V423.365Z" fill="#E0E0E0"/>
<path d="M422.126 350.538L483.227 315.264C485.028 314.21 486.504 314.958 486.504 316.912C486.424 318.013 486.086 319.079 485.517 320.025C484.947 320.97 484.163 321.768 483.227 322.353L422.126 357.627C420.306 358.681 418.85 357.933 418.85 355.979C418.927 354.878 419.265 353.811 419.834 352.865C420.404 351.919 421.189 351.122 422.126 350.538Z" fill="#455A64"/>
<path d="M422.126 364.735L535.706 299.17C537.508 298.116 538.983 298.863 538.983 300.817C538.9 301.918 538.561 302.983 537.992 303.928C537.423 304.873 536.64 305.671 535.706 306.259L422.126 371.844C420.306 372.897 418.85 372.15 418.85 370.177C418.929 369.076 419.267 368.009 419.836 367.064C420.406 366.118 421.19 365.32 422.126 364.735V364.735Z" fill="#E0E0E0"/>
<path d="M574.831 281.351C571.306 283.401 568.432 281.217 568.432 276.503C568.469 274.107 569.067 271.753 570.178 269.63C571.29 267.508 572.883 265.675 574.831 264.279C578.376 262.229 581.25 264.413 581.25 269.108C581.214 271.508 580.614 273.867 579.499 275.994C578.384 278.12 576.785 279.955 574.831 281.351Z" fill="#9F86C0"/>
<path d="M575.464 272.096C575.608 271.844 575.718 271.573 575.789 271.292C575.805 271.081 575.805 270.87 575.789 270.659C575.816 270.387 575.741 270.114 575.579 269.893C575.444 269.74 575.215 269.74 574.908 269.893C574.61 270.055 574.374 270.311 574.237 270.621C574.087 270.957 573.984 271.311 573.931 271.675C573.95 271.776 573.95 271.88 573.931 271.982C573.931 271.982 573.835 272.116 573.778 272.135L573.126 272.518C573.105 272.537 573.078 272.547 573.049 272.547C573.021 272.547 572.994 272.537 572.973 272.518C572.956 272.485 572.947 272.449 572.947 272.413C572.947 272.376 572.956 272.34 572.973 272.307C572.99 271.905 573.054 271.506 573.164 271.119C573.263 270.719 573.411 270.333 573.605 269.97C573.777 269.616 573.996 269.287 574.257 268.993C574.475 268.718 574.741 268.484 575.042 268.303C575.308 268.126 575.624 268.038 575.943 268.054C576.063 268.06 576.181 268.09 576.29 268.143C576.399 268.195 576.495 268.269 576.575 268.36C576.756 268.561 576.881 268.805 576.939 269.069C577.017 269.369 577.056 269.679 577.054 269.989C577.054 270.2 577.054 270.41 577.054 270.602C577.033 270.822 576.994 271.04 576.939 271.253C576.863 271.507 576.773 271.757 576.671 272.001C576.556 272.269 576.402 272.575 576.211 272.94L574.678 275.967L576.977 274.645C576.998 274.626 577.026 274.616 577.054 274.616C577.082 274.616 577.109 274.626 577.131 274.645C577.147 274.677 577.156 274.713 577.156 274.75C577.156 274.787 577.147 274.823 577.131 274.856V275.756C577.156 275.844 577.156 275.937 577.131 276.024C577.106 276.106 577.051 276.174 576.977 276.216L573.145 278.458C573.122 278.471 573.096 278.478 573.069 278.478C573.042 278.478 573.015 278.471 572.992 278.458C572.975 278.425 572.966 278.389 572.966 278.352C572.966 278.316 572.975 278.279 572.992 278.247V277.48C572.994 277.335 573.027 277.191 573.088 277.059C573.118 276.951 573.163 276.848 573.222 276.752L575.464 272.096Z" fill="white"/>
<path d="M387.293 447.219C381.086 450.802 376.027 446.989 376.027 438.693C376.027 430.397 381.086 420.759 387.293 417.176C393.501 413.593 398.559 417.406 398.559 425.683C398.559 433.96 393.559 443.636 387.293 447.219Z" fill="#9F86C0"/>
<path d="M394.191 434.861C392.629 439.016 389.731 442.534 385.952 444.862C385.018 445.448 383.949 445.785 382.848 445.839C382.364 445.842 381.887 445.73 381.454 445.514C381.022 445.297 380.646 444.982 380.357 444.594L380.587 441.03C380.672 440.225 380.926 439.448 381.332 438.748C381.738 438.048 382.287 437.441 382.944 436.968L391.643 431.948C392.831 431.259 393.827 431.833 393.999 433.27L394.191 434.861Z" fill="#FAFAFA"/>
<path d="M390.916 425.683C390.897 427.005 390.568 428.303 389.955 429.475C389.343 430.646 388.464 431.657 387.39 432.427C385.474 433.558 383.846 432.427 383.846 429.764C383.867 428.441 384.199 427.141 384.815 425.97C385.43 424.798 386.313 423.788 387.39 423.02C389.325 421.889 390.916 423.097 390.916 425.683Z" fill="#FAFAFA"/>
<path d="M359.838 474.484C359.678 474.48 359.523 474.436 359.385 474.355C359.248 474.275 359.133 474.161 359.052 474.024C358.934 473.813 358.904 473.563 358.969 473.33C359.033 473.097 359.187 472.899 359.397 472.778L595.41 336.512C595.619 336.393 595.866 336.36 596.099 336.421C596.332 336.482 596.532 336.632 596.655 336.838C596.773 337.049 596.803 337.298 596.738 337.532C596.674 337.765 596.52 337.963 596.31 338.084L360.297 474.349C360.16 474.438 360.001 474.484 359.838 474.484V474.484Z" fill="#E0E0E0"/>
<path d="M422.126 401.637L483.227 366.364C485.028 365.31 486.504 366.057 486.504 368.012C486.424 369.112 486.086 370.179 485.517 371.124C484.947 372.07 484.163 372.868 483.227 373.453L422.126 408.746C420.306 409.78 418.85 409.033 418.85 407.079C418.927 405.978 419.265 404.91 419.834 403.965C420.404 403.019 421.189 402.221 422.126 401.637V401.637Z" fill="#455A64"/>
<path d="M422.126 415.835L535.706 350.269C537.508 349.215 538.983 349.963 538.983 351.917C538.9 353.017 538.561 354.083 537.992 355.028C537.423 355.973 536.64 356.771 535.706 357.358L422.126 422.924C420.306 423.978 418.85 423.231 418.85 421.276C418.93 420.176 419.269 419.11 419.838 418.164C420.408 417.219 421.191 416.421 422.126 415.835V415.835Z" fill="#E0E0E0"/>
<path d="M574.831 332.451C571.306 334.501 568.432 332.316 568.432 327.622C568.466 325.223 569.062 322.865 570.174 320.739C571.285 318.612 572.881 316.776 574.831 315.379C578.376 313.329 581.25 315.513 581.25 320.226C581.211 322.624 580.609 324.979 579.495 327.102C578.38 329.225 576.783 331.057 574.831 332.451Z" fill="#9F86C0"/>
<path d="M573.261 323.426C573.231 323.353 573.231 323.27 573.261 323.196C573.243 323.101 573.243 323.004 573.261 322.909L575.062 319.709L575.196 319.479C575.196 319.479 575.292 319.345 575.349 319.326L576.001 318.943C576.022 318.924 576.049 318.914 576.077 318.914C576.105 318.914 576.133 318.924 576.154 318.943C576.176 319.005 576.176 319.072 576.154 319.134V327.354C576.172 327.449 576.172 327.547 576.154 327.641C576.124 327.72 576.07 327.787 576.001 327.833L575.33 328.216C575.309 328.235 575.282 328.246 575.253 328.246C575.225 328.246 575.198 328.235 575.177 328.216C575.163 328.186 575.156 328.154 575.156 328.12C575.156 328.087 575.163 328.055 575.177 328.025V321.74L574.008 323.829C574.008 323.829 574.008 323.963 573.855 323.982C573.701 324.001 573.74 323.982 573.701 323.982L573.261 323.426Z" fill="white"/>
<path d="M387.293 498.319C381.086 501.902 376.027 498.089 376.027 489.792C376.027 481.496 381.086 471.859 387.293 468.276C393.501 464.693 398.559 468.506 398.559 476.783C398.559 485.06 393.559 494.736 387.293 498.319Z" fill="#9F86C0"/>
<path d="M394.191 485.961C392.629 490.115 389.731 493.634 385.952 495.962C385.018 496.548 383.949 496.885 382.848 496.939C382.364 496.941 381.887 496.83 381.454 496.614C381.022 496.397 380.646 496.082 380.357 495.694L380.587 492.13C380.664 491.326 380.914 490.548 381.321 489.849C381.728 489.151 382.282 488.55 382.944 488.087L391.643 483.048C392.831 482.358 393.827 482.933 393.999 484.37L394.191 485.961Z" fill="#FAFAFA"/>
<path d="M390.916 476.783C390.897 478.104 390.568 479.403 389.955 480.574C389.343 481.746 388.464 482.757 387.39 483.527C385.474 484.658 383.846 483.527 383.846 480.864C383.87 479.541 384.203 478.243 384.819 477.072C385.434 475.901 386.315 474.89 387.39 474.12C389.325 472.989 390.916 474.196 390.916 476.783Z" fill="#FAFAFA"/>
<path d="M359.838 525.583C359.678 525.58 359.523 525.535 359.385 525.455C359.248 525.375 359.133 525.261 359.052 525.124C358.934 524.912 358.904 524.663 358.969 524.43C359.033 524.197 359.187 523.999 359.397 523.878L595.41 387.612C595.619 387.493 595.866 387.46 596.099 387.521C596.332 387.582 596.532 387.732 596.655 387.938C596.773 388.149 596.803 388.398 596.738 388.631C596.674 388.865 596.52 389.063 596.31 389.183L360.297 525.449C360.16 525.538 360.001 525.584 359.838 525.583V525.583Z" fill="#E0E0E0"/>
<path d="M422.126 452.737L483.227 417.463C485.028 416.41 486.504 417.157 486.504 419.111C486.424 420.212 486.086 421.279 485.517 422.224C484.947 423.17 484.163 423.967 483.227 424.553L422.126 459.845C420.306 460.88 418.85 460.133 418.85 458.178C418.927 457.077 419.265 456.01 419.834 455.064C420.404 454.118 421.189 453.321 422.126 452.737Z" fill="#455A64"/>
<path d="M422.126 466.992L535.706 401.427C537.508 400.373 538.983 401.12 538.983 403.074C538.903 404.175 538.565 405.242 537.996 406.187C537.427 407.133 536.642 407.931 535.706 408.516L422.126 474.1C420.306 475.154 418.85 474.407 418.85 472.453C418.928 471.349 419.265 470.279 419.834 469.33C420.404 468.381 421.189 467.58 422.126 466.992Z" fill="#E0E0E0"/>
<path d="M574.831 383.55C571.306 385.6 568.432 383.416 568.432 378.722C568.466 376.323 569.062 373.965 570.174 371.838C571.285 369.712 572.881 367.876 574.831 366.479C578.376 364.428 581.25 366.613 581.25 371.326C581.211 373.724 580.609 376.079 579.495 378.202C578.38 380.325 576.783 382.157 574.831 383.55Z" fill="#9F86C0"/>
<path d="M573.261 374.526C573.231 374.452 573.231 374.37 573.261 374.296C573.243 374.201 573.243 374.104 573.261 374.009L575.062 370.809L575.196 370.579C575.196 370.579 575.292 370.445 575.349 370.426L576.001 370.042C576.024 370.029 576.05 370.022 576.077 370.022C576.104 370.022 576.131 370.029 576.154 370.042C576.176 370.104 576.176 370.172 576.154 370.234V378.454C576.172 378.549 576.172 378.646 576.154 378.741C576.124 378.819 576.07 378.886 576.001 378.933L575.33 379.316C575.321 379.328 575.309 379.337 575.296 379.344C575.283 379.351 575.268 379.354 575.253 379.354C575.238 379.354 575.224 379.351 575.21 379.344C575.197 379.337 575.186 379.328 575.177 379.316C575.163 379.286 575.156 379.253 575.156 379.22C575.156 379.187 575.163 379.154 575.177 379.124V372.84L574.008 374.928C574.008 375.024 574.008 375.062 573.855 375.082C573.846 375.093 573.834 375.103 573.821 375.11C573.808 375.116 573.793 375.12 573.778 375.12C573.763 375.12 573.748 375.116 573.735 375.11C573.722 375.103 573.71 375.093 573.701 375.082L573.261 374.526Z" fill="white"/>
<path d="M387.293 549.38C381.086 552.963 376.027 549.15 376.027 540.873C376.027 532.596 381.086 522.92 387.293 519.337C393.501 515.754 398.559 519.567 398.559 527.844C398.559 536.121 393.559 545.836 387.293 549.38Z" fill="#E0E0E0"/>
<path d="M394.191 537.06C392.629 541.215 389.731 544.733 385.952 547.062C385.018 547.648 383.949 547.984 382.848 548.039C382.364 548.041 381.887 547.93 381.454 547.713C381.022 547.497 380.646 547.182 380.357 546.793L380.587 543.23C380.664 542.425 380.914 541.647 381.321 540.949C381.728 540.251 382.282 539.65 382.944 539.187L391.643 534.148C392.831 533.458 393.827 534.033 393.999 535.47L394.191 537.06Z" fill="#FAFAFA"/>
<path d="M390.916 527.902C390.892 529.222 390.561 530.519 389.949 531.69C389.337 532.861 388.461 533.873 387.39 534.646C385.474 535.757 383.846 534.646 383.846 531.964C383.87 530.641 384.203 529.342 384.819 528.171C385.434 527 386.315 525.989 387.39 525.219C389.325 524.108 390.916 525.296 390.916 527.902Z" fill="#FAFAFA"/>
<path d="M359.838 576.683C359.68 576.674 359.527 576.626 359.393 576.542C359.259 576.458 359.149 576.342 359.072 576.204C358.954 575.993 358.924 575.744 358.988 575.511C359.053 575.278 359.207 575.079 359.416 574.959L595.429 438.693C595.638 438.573 595.886 438.541 596.119 438.601C596.351 438.662 596.551 438.812 596.675 439.019C596.793 439.23 596.822 439.479 596.758 439.712C596.693 439.945 596.54 440.143 596.33 440.264L360.298 576.549C360.161 576.637 360.001 576.684 359.838 576.683V576.683Z" fill="#E0E0E0"/>
<path d="M422.126 503.837L483.227 468.563C485.028 467.509 486.504 468.257 486.504 470.211C486.423 471.314 486.084 472.383 485.515 473.331C484.946 474.279 484.162 475.081 483.227 475.672L422.126 510.945C420.306 511.98 418.85 511.233 418.85 509.278C418.929 508.177 419.267 507.111 419.836 506.165C420.406 505.22 421.19 504.422 422.126 503.837Z" fill="#455A64"/>
<path d="M422.126 518.053L535.706 452.469C537.508 451.415 538.983 452.162 538.983 454.116C538.903 455.217 538.565 456.284 537.996 457.229C537.427 458.175 536.642 458.973 535.706 459.558L422.126 525.143C420.306 526.196 418.85 525.449 418.85 523.495C418.924 522.393 419.261 521.325 419.83 520.378C420.4 519.432 421.187 518.635 422.126 518.053Z" fill="#E0E0E0"/>
<path d="M387.293 600.518C381.086 604.12 376.027 600.288 376.027 592.011C376.027 583.734 381.086 574.058 387.293 570.475C393.501 566.892 398.559 570.705 398.559 578.982C398.559 587.259 393.559 596.935 387.293 600.518Z" fill="#E0E0E0"/>
<path d="M394.191 588.16C392.634 592.318 389.735 595.838 385.952 598.162C385.018 598.748 383.949 599.084 382.848 599.139C382.364 599.144 381.885 599.034 381.452 598.817C381.019 598.601 380.644 598.284 380.357 597.893L380.587 594.33C380.664 593.525 380.914 592.747 381.321 592.049C381.728 591.351 382.282 590.75 382.944 590.287L391.643 585.248C392.831 584.558 393.827 585.133 393.999 586.57L394.191 588.16Z" fill="#FAFAFA"/>
<path d="M390.916 579.001C390.892 580.322 390.561 581.619 389.949 582.79C389.337 583.96 388.461 584.973 387.39 585.746C385.474 586.857 383.846 585.746 383.846 583.063C383.87 581.741 384.203 580.442 384.819 579.271C385.434 578.1 386.315 577.089 387.39 576.319C389.325 575.208 390.916 576.396 390.916 579.001Z" fill="#FAFAFA"/>
<path d="M359.838 627.783C359.678 627.779 359.523 627.735 359.385 627.655C359.248 627.574 359.133 627.46 359.052 627.323C358.934 627.112 358.904 626.863 358.969 626.63C359.033 626.396 359.187 626.198 359.397 626.078L595.41 489.812C595.619 489.692 595.866 489.659 596.099 489.72C596.332 489.781 596.532 489.931 596.655 490.137C596.773 490.349 596.803 490.598 596.738 490.831C596.674 491.064 596.52 491.262 596.31 491.383L360.297 627.649C360.16 627.737 360.001 627.784 359.838 627.783V627.783Z" fill="#E0E0E0"/>
<path d="M422.126 554.936L483.227 519.663C485.028 518.609 486.504 519.356 486.504 521.311C486.423 522.414 486.084 523.482 485.515 524.431C484.946 525.379 484.162 526.181 483.227 526.771L422.126 562.045C420.306 563.079 418.85 562.351 418.85 560.378C418.929 559.277 419.267 558.21 419.836 557.265C420.406 556.319 421.19 555.522 422.126 554.936V554.936Z" fill="#455A64"/>
<path d="M422.126 569.153L535.706 503.569C537.508 502.515 538.983 503.262 538.983 505.216C538.903 506.317 538.565 507.384 537.996 508.329C537.427 509.275 536.642 510.073 535.706 510.658L422.126 576.204C420.306 577.258 418.85 576.511 418.85 574.556C418.93 573.461 419.269 572.4 419.839 571.461C420.408 570.522 421.192 569.731 422.126 569.153V569.153Z" fill="#E0E0E0"/>
<path d="M387.293 651.618C381.086 655.22 376.027 651.388 376.027 643.111C376.027 634.834 381.086 625.158 387.293 621.575C393.501 617.992 398.559 621.805 398.559 630.101C398.559 638.398 393.559 648.035 387.293 651.618Z" fill="#E0E0E0"/>
<path d="M394.191 639.279C392.629 643.429 389.731 646.941 385.952 649.261C385.018 649.847 383.949 650.184 382.848 650.238C382.364 650.244 381.885 650.133 381.452 649.917C381.019 649.7 380.644 649.383 380.357 648.993L380.587 645.429C380.664 644.625 380.914 643.846 381.321 643.148C381.728 642.45 382.282 641.849 382.944 641.386L391.643 636.347C392.831 635.657 393.827 636.251 393.999 637.669L394.191 639.279Z" fill="#FAFAFA"/>
<path d="M390.916 630.101C390.892 631.422 390.561 632.719 389.949 633.889C389.337 635.06 388.461 636.072 387.39 636.845C385.474 637.957 383.846 636.845 383.846 634.163C383.87 632.84 384.203 631.542 384.819 630.371C385.434 629.2 386.315 628.189 387.39 627.419C389.325 626.307 390.916 627.495 390.916 630.101Z" fill="#FAFAFA"/>
<path d="M359.838 678.883C359.678 678.879 359.523 678.835 359.385 678.754C359.248 678.674 359.133 678.56 359.052 678.423C358.934 678.212 358.904 677.962 358.969 677.729C359.033 677.496 359.187 677.298 359.397 677.177L595.41 540.911C595.621 540.794 595.87 540.764 596.103 540.828C596.336 540.893 596.535 541.047 596.655 541.256C596.713 541.36 596.75 541.473 596.764 541.591C596.778 541.708 596.769 541.827 596.737 541.941C596.705 542.055 596.651 542.161 596.577 542.254C596.504 542.347 596.414 542.425 596.31 542.483L360.297 678.748C360.16 678.837 360.001 678.883 359.838 678.883Z" fill="#E0E0E0"/>
<path d="M422.126 606.036L483.227 570.763C485.028 569.709 486.504 570.456 486.504 572.43C486.42 573.529 486.08 574.594 485.511 575.539C484.942 576.484 484.16 577.282 483.227 577.871L422.126 613.145C420.306 614.179 418.85 613.451 418.85 611.478C418.929 610.377 419.267 609.31 419.836 608.365C420.406 607.419 421.19 606.621 422.126 606.036Z" fill="#455A64"/>
<path d="M422.126 620.272L535.706 554.687C537.508 553.634 538.983 554.381 538.983 556.335C538.902 557.438 538.563 558.507 537.994 559.455C537.425 560.404 536.642 561.205 535.706 561.796L422.126 627.361C420.306 628.415 418.85 627.668 418.85 625.714C418.924 624.612 419.261 623.543 419.83 622.597C420.4 621.651 421.187 620.854 422.126 620.272V620.272Z" fill="#E0E0E0"/>
<path d="M387.293 702.66C381.086 706.262 376.027 702.43 376.027 694.153C376.027 685.876 381.086 676.2 387.293 672.617C393.501 669.034 398.559 672.847 398.559 681.143C398.559 689.439 393.559 699.134 387.293 702.66Z" fill="#E0E0E0"/>
<path d="M394.191 690.379C392.629 694.529 389.731 698.041 385.952 700.361C385.018 700.947 383.949 701.284 382.848 701.338C382.364 701.344 381.885 701.233 381.452 701.017C381.019 700.8 380.644 700.484 380.357 700.093L380.587 696.529C380.664 695.725 380.914 694.947 381.321 694.249C381.728 693.55 382.282 692.949 382.944 692.486L391.643 687.447C392.831 686.758 393.827 687.351 393.999 688.769L394.191 690.379Z" fill="#FAFAFA"/>
<path d="M390.916 681.201C390.892 682.521 390.561 683.818 389.949 684.989C389.337 686.16 388.461 687.172 387.39 687.945C385.474 689.075 383.846 687.945 383.846 685.282C383.867 683.956 384.199 682.653 384.814 681.479C385.43 680.304 386.312 679.29 387.39 678.518C389.325 677.407 390.916 678.595 390.916 681.201Z" fill="#FAFAFA"/>
<path d="M359.837 729.982C359.677 729.971 359.523 729.92 359.389 729.833C359.255 729.746 359.145 729.625 359.07 729.484C359.012 729.381 358.975 729.267 358.961 729.15C358.947 729.032 358.957 728.913 358.989 728.799C359.021 728.686 359.075 728.579 359.148 728.486C359.221 728.393 359.312 728.316 359.415 728.258L595.428 591.973C595.639 591.855 595.888 591.825 596.122 591.89C596.355 591.954 596.553 592.108 596.673 592.318C596.731 592.421 596.768 592.534 596.782 592.652C596.796 592.769 596.787 592.888 596.755 593.002C596.723 593.116 596.669 593.222 596.596 593.315C596.523 593.408 596.432 593.486 596.329 593.544L360.297 729.867C360.154 729.941 359.997 729.981 359.837 729.982V729.982Z" fill="#E0E0E0"/>
<path d="M422.126 657.136L483.227 621.863C485.028 620.828 486.504 621.556 486.504 623.529C486.42 624.629 486.08 625.694 485.511 626.639C484.942 627.584 484.16 628.382 483.227 628.971L422.126 664.34C420.306 665.375 418.85 664.647 418.85 662.673C418.914 661.556 419.245 660.47 419.815 659.507C420.385 658.544 421.178 657.731 422.126 657.136V657.136Z" fill="#455A64"/>
<path d="M422.126 671.353L535.706 605.768C537.508 604.714 538.983 605.462 538.983 607.416C538.902 608.519 538.563 609.588 537.994 610.536C537.425 611.484 536.642 612.286 535.706 612.876L422.126 678.442C420.306 679.496 418.85 678.749 418.85 676.794C418.927 675.693 419.265 674.626 419.834 673.68C420.404 672.734 421.189 671.937 422.126 671.353Z" fill="#E0E0E0"/>
<path d="M359.838 371.786C359.639 371.786 359.446 371.72 359.288 371.598C359.13 371.477 359.017 371.306 358.967 371.113C358.916 370.92 358.931 370.716 359.009 370.533C359.087 370.35 359.224 370.197 359.398 370.1L595.411 233.834C595.514 233.775 595.628 233.737 595.746 233.721C595.863 233.706 595.983 233.715 596.098 233.746C596.213 233.777 596.32 233.83 596.414 233.903C596.508 233.976 596.587 234.066 596.646 234.169C596.706 234.272 596.744 234.386 596.759 234.504C596.774 234.622 596.766 234.742 596.735 234.857C596.704 234.971 596.65 235.079 596.578 235.173C596.505 235.267 596.414 235.346 596.311 235.405L360.298 371.671C360.156 371.745 359.999 371.784 359.838 371.786V371.786Z" fill="#E0E0E0"/>
<path d="M857.616 717.222C855.815 692.486 858.593 673.518 856.543 634.834C856.351 624.928 856.006 614.313 855.336 604.887C853.094 573.177 848.208 562.332 847.767 556.22C847.767 556.22 846.924 506.883 844.855 437.428C843.878 404.856 835.716 392.67 828.148 375.35L733.497 374.296C723.457 417.042 724.147 513.551 724.435 557.619C724.588 580.074 733.65 700.227 733.842 703.005C734.474 712.796 733.631 716.666 729.78 720.805C721.733 729.427 710.064 737.646 699.986 745.176C701.442 749.008 713.571 748.893 719.587 745.962C727.445 741.86 734.933 737.084 741.966 731.687C750.243 725.556 760.839 720.632 760.973 711.301C761.011 710.737 761.107 710.179 761.26 709.634C761.413 704.174 774.116 623.797 775.17 605.155C776.09 589.118 774.136 561.891 774.136 561.891L784.482 493.969C784.482 493.969 790.862 534.205 797.319 561.527C802.569 583.849 809.543 621.939 815.445 649.395C821.193 681.028 831.156 703.56 832.593 719.406C833.033 723.238 837.325 760.293 839.088 768.8C840.851 777.307 859.378 777.518 860.566 762.899C861.371 753.3 857.961 721.82 857.616 717.222Z" fill="#C8856A"/>
<path d="M784.425 494.103L776.856 445.092C776.856 445.092 747.618 441.624 736.984 431.412C736.984 431.412 750.396 450.323 770.227 453.408L778.562 494.027L774.155 561.451L784.425 494.103Z" fill="#AF6152"/>
<path d="M682.876 755.178C682.359 755.178 681.535 760.811 684.294 763.244C687.474 766.06 696.863 770.716 709.355 769.241C721.847 767.766 728.63 763.972 733.669 759.853C738.708 755.733 745.759 749.909 751.411 748.721C756.68 747.629 762.39 745.31 764.076 743.701C765.762 742.091 765.628 734.906 765.628 734.906L682.876 755.178Z" fill="#263238"/>
<path d="M761.432 707.124C761.432 707.124 762.371 707.124 762.678 708.848C762.984 710.573 763.406 716.512 764.192 719.865C765.417 725.617 765.766 731.521 765.226 737.378C764.498 741.056 755.934 743.528 750.454 745.559C743.992 748.294 737.984 751.996 732.635 756.538C726.734 761.309 714.356 766.022 706.213 766.118C693.817 766.118 685.808 762.726 683.375 758.243C680.367 752.687 682.8 749.525 697.132 743.068C699.852 741.842 709.394 736.324 712.651 734.331C716.101 732.232 719.37 729.848 722.423 727.204C723.97 725.87 725.442 724.45 726.83 722.95C728.273 721.616 729.506 720.073 730.489 718.371C730.65 717.982 730.79 717.586 730.911 717.183C731.329 716.101 731.656 714.986 731.888 713.849C732.118 712.661 732.29 710.937 733.421 710.228C735.043 709.579 736.814 709.394 738.536 709.692C740.381 709.832 742.212 710.107 744.016 710.515C746.104 711.014 748.538 711.224 749.764 713.217C750.573 714.817 750.956 716.599 750.875 718.39C750.875 719.233 750.875 720.057 750.875 720.9C750.875 721.245 750.722 721.896 751.22 721.743C751.718 721.59 752.236 720.364 752.427 719.942C752.83 719.022 753.098 718.026 753.539 717.126C754.014 716.053 754.619 715.043 755.34 714.117C756.016 713.278 756.78 712.514 757.62 711.837C758.471 711.365 759.296 710.847 760.091 710.285C760.85 709.393 761.318 708.29 761.432 707.124V707.124Z" fill="#37474F"/>
<path d="M694.909 744.045C712.862 745.482 718.399 756.634 719.089 763.512C714.981 765.019 710.662 765.872 706.29 766.041C693.893 766.041 685.386 762.65 682.953 758.166C680.098 752.916 682.11 748.74 694.909 744.045Z" fill="#FAFAFA"/>
<path d="M721.829 744.525C722.031 744.528 722.228 744.46 722.385 744.333C722.476 744.26 722.552 744.17 722.608 744.068C722.664 743.966 722.699 743.854 722.712 743.738C722.724 743.622 722.714 743.505 722.68 743.394C722.647 743.282 722.592 743.178 722.519 743.088C720.449 740.901 717.935 739.182 715.146 738.049C712.356 736.915 709.356 736.392 706.348 736.516C706.117 736.54 705.905 736.654 705.758 736.833C705.611 737.013 705.541 737.243 705.562 737.474C705.572 737.589 705.604 737.701 705.658 737.803C705.712 737.906 705.786 737.996 705.875 738.069C705.964 738.143 706.067 738.197 706.178 738.23C706.289 738.262 706.406 738.272 706.52 738.259C709.239 738.177 711.945 738.663 714.466 739.686C716.986 740.708 719.266 742.246 721.159 744.199C721.24 744.299 721.342 744.38 721.458 744.436C721.574 744.492 721.7 744.523 721.829 744.525V744.525Z" fill="#F0F0F0"/>
<path d="M729.627 740.099C729.829 740.1 730.025 740.033 730.183 739.907C730.363 739.758 730.477 739.544 730.502 739.312C730.527 739.079 730.461 738.846 730.317 738.662C728.248 736.475 725.734 734.757 722.944 733.623C720.155 732.489 717.155 731.967 714.146 732.09C714.03 732.1 713.917 732.132 713.814 732.186C713.711 732.239 713.619 732.312 713.544 732.401C713.47 732.49 713.413 732.593 713.378 732.704C713.344 732.815 713.331 732.932 713.341 733.048C713.351 733.163 713.384 733.275 713.437 733.378C713.491 733.48 713.565 733.57 713.654 733.644C713.743 733.717 713.847 733.772 713.957 733.804C714.068 733.837 714.185 733.847 714.299 733.834C717.019 733.748 719.726 734.232 722.247 735.255C724.768 736.278 727.047 737.817 728.938 739.773C729.021 739.876 729.126 739.958 729.246 740.014C729.365 740.071 729.495 740.1 729.627 740.099V740.099Z" fill="#F0F0F0"/>
<path d="M736.851 735.021C737.052 735.023 737.248 734.955 737.406 734.829C737.585 734.683 737.699 734.473 737.724 734.244C737.749 734.014 737.683 733.784 737.54 733.603C735.473 731.413 732.959 729.691 730.17 728.554C727.38 727.417 724.379 726.891 721.369 727.012C721.137 727.036 720.924 727.15 720.773 727.329C720.623 727.507 720.549 727.737 720.565 727.97C720.574 728.085 720.607 728.197 720.66 728.3C720.714 728.402 720.788 728.493 720.877 728.566C720.967 728.639 721.07 728.694 721.181 728.726C721.292 728.759 721.408 728.769 721.523 728.756C724.241 728.676 726.946 729.163 729.467 730.185C731.987 731.208 734.267 732.744 736.161 734.695C736.244 734.798 736.349 734.88 736.469 734.937C736.588 734.993 736.719 735.022 736.851 735.021V735.021Z" fill="#F0F0F0"/>
<path d="M743.919 729.944C744.117 729.943 744.311 729.883 744.475 729.771C744.657 729.624 744.775 729.412 744.804 729.18C744.833 728.947 744.77 728.713 744.628 728.526C741.237 724.157 733.477 721.207 726.963 721.858C726.847 721.868 726.734 721.9 726.631 721.954C726.527 722.007 726.436 722.081 726.361 722.17C726.286 722.259 726.23 722.362 726.195 722.473C726.16 722.584 726.147 722.7 726.158 722.816C726.187 723.045 726.302 723.254 726.48 723.4C726.659 723.546 726.886 723.618 727.116 723.602C732.998 723.027 740.221 725.728 743.229 729.618C743.314 729.718 743.42 729.8 743.539 729.856C743.658 729.912 743.788 729.942 743.919 729.944V729.944Z" fill="#F0F0F0"/>
<path d="M833.264 775.564C833.762 784.033 835.084 789.646 838.092 794.609C841.1 799.571 846.771 801.142 852.5 799.686C858.229 798.23 865.606 794.341 867.254 787.041C868.901 779.741 869.859 774.721 868.556 766.865L833.264 775.564Z" fill="#263238"/>
<path d="M857.424 714.156C859.781 714.347 860.49 725.652 861.85 737.148C863.306 749.372 866.947 754.392 868.269 764.432C869.763 775.928 867.866 780.967 863.862 787.883C859.857 794.8 845.66 801.583 838.666 791.715C832.918 783.649 832.727 774.701 833.244 763.263C833.542 753.613 833.293 743.953 832.497 734.331C832.018 725.767 830.14 717.087 832.19 716.168C832.344 717.432 832.497 719.022 832.669 720.268C832.751 721.812 833.009 723.342 833.436 724.828C833.666 725.46 834.202 726.131 834.413 725.096C834.528 724.392 834.528 723.674 834.413 722.969C834.068 719.808 835.658 719.559 836.52 719.31C840.149 718.592 843.814 718.073 847.499 717.758C849.3 717.643 855.546 717.355 856.351 718.39C856.89 719.411 857.166 720.55 857.156 721.705C857.347 723.429 857.75 724.675 857.807 724.138C857.922 722.912 857.673 719.712 857.635 718.927C857.596 718.141 857.501 717.183 857.481 716.436C857.462 715.689 857.462 714.922 857.424 714.156Z" fill="#37474F"/>
<path d="M868.92 771.061C869.349 777.179 867.797 783.272 864.495 788.439C860.49 795.356 845.162 802.158 838.169 792.271C834.682 787.347 833.743 781.522 833.264 775.564C837.46 767.919 862.31 764.547 868.92 771.061Z" fill="#FAFAFA"/>
<path d="M838.436 763.11C838.531 763.127 838.629 763.127 838.724 763.11C838.82 763.11 849.779 758.531 860.432 761.002C860.658 761.049 860.893 761.008 861.089 760.887C861.285 760.765 861.427 760.574 861.486 760.351C861.514 760.239 861.52 760.122 861.502 760.008C861.485 759.894 861.444 759.784 861.383 759.686C861.323 759.588 861.243 759.502 861.148 759.436C861.054 759.369 860.947 759.322 860.834 759.297C853.196 757.854 845.306 758.598 838.072 761.443C837.862 761.543 837.7 761.721 837.621 761.94C837.542 762.159 837.553 762.401 837.651 762.612C837.72 762.761 837.831 762.887 837.971 762.976C838.11 763.064 838.272 763.111 838.436 763.11V763.11Z" fill="#F0F0F0"/>
<path d="M859.896 752.476C860.065 752.461 860.226 752.397 860.359 752.292C860.492 752.186 860.591 752.043 860.643 751.882C860.717 751.663 860.702 751.424 860.602 751.217C860.502 751.009 860.324 750.849 860.107 750.771C849.492 747.188 837.709 752.572 837.268 752.802C837.156 752.85 837.056 752.921 836.973 753.01C836.89 753.099 836.826 753.204 836.786 753.319C836.746 753.434 836.73 753.556 836.739 753.677C836.748 753.798 836.782 753.916 836.839 754.024C836.896 754.131 836.975 754.226 837.07 754.301C837.166 754.377 837.276 754.432 837.393 754.463C837.511 754.494 837.634 754.5 837.754 754.481C837.874 754.462 837.989 754.419 838.092 754.353C838.188 754.353 849.588 749.084 859.532 752.437C859.648 752.479 859.773 752.492 859.896 752.476V752.476Z" fill="#F0F0F0"/>
<path d="M859.531 744.371C859.73 744.351 859.915 744.264 860.058 744.124C860.2 743.984 860.291 743.801 860.316 743.602C860.34 743.404 860.297 743.204 860.193 743.034C860.088 742.864 859.929 742.734 859.742 742.666C848.073 738.489 836.884 744.371 836.482 744.582C836.383 744.639 836.297 744.716 836.228 744.807C836.159 744.898 836.109 745.001 836.08 745.112C836.052 745.222 836.045 745.337 836.062 745.45C836.078 745.563 836.116 745.672 836.175 745.77C836.295 745.97 836.489 746.115 836.715 746.173C836.941 746.23 837.181 746.196 837.382 746.076C837.478 746.076 848.284 740.328 859.148 744.256C859.264 744.325 859.396 744.364 859.531 744.371V744.371Z" fill="#F0F0F0"/>
<path d="M858.956 736.458C859.119 736.437 859.272 736.373 859.4 736.272C859.528 736.17 859.627 736.036 859.685 735.883C859.765 735.665 859.756 735.423 859.659 735.211C859.562 735 859.385 734.835 859.167 734.753C848.227 730.653 836.175 736.669 835.754 736.975C835.653 737.031 835.565 737.106 835.494 737.197C835.424 737.287 835.372 737.39 835.341 737.501C835.311 737.612 835.303 737.727 835.318 737.841C835.333 737.955 835.37 738.064 835.428 738.163C835.486 738.264 835.563 738.353 835.655 738.424C835.746 738.495 835.852 738.547 835.964 738.577C836.076 738.608 836.193 738.615 836.308 738.6C836.423 738.585 836.534 738.547 836.635 738.489C836.731 738.489 848.399 732.588 858.554 736.401L858.956 736.458Z" fill="#EBEBEB"/>
<path d="M760.301 278.113C741.275 281.389 736.734 282.788 728.265 295.548C719.605 308.616 708.262 324.652 695.214 344.694L661.013 328.714L647.295 352.549C647.295 352.549 684.082 376.174 697.667 380.772C707.841 384.202 710.236 379.737 717.765 371.882C726.119 363.145 750.701 334.635 750.701 334.635L760.301 278.113Z" fill="#C8856A"/>
<path d="M695.215 344.694C700.963 346.61 707.132 352.147 708.205 355.443C704.871 345.326 699.641 343.487 696.863 342.146L695.215 344.694Z" fill="#AF6152"/>
<path d="M618.268 290.375L620.605 288.191C620.961 287.937 621.372 287.769 621.805 287.703C622.238 287.636 622.68 287.672 623.096 287.808L649.613 293.901C650.954 294.281 652.196 294.95 653.251 295.86C654.307 296.77 655.151 297.9 655.725 299.17L676.801 352.818C677.049 353.253 677.159 353.753 677.118 354.252C677.077 354.751 676.887 355.226 676.571 355.615V355.615L674.157 357.876C673.802 358.139 673.388 358.313 672.951 358.383C672.515 358.453 672.067 358.417 671.647 358.278L645.13 352.185C643.789 351.805 642.548 351.136 641.492 350.226C640.436 349.316 639.592 348.186 639.018 346.916L617.942 293.268C617.671 292.817 617.556 292.29 617.615 291.767C617.674 291.244 617.903 290.755 618.268 290.375Z" fill="#455A64"/>
<path d="M650.131 297.522C651.517 298.494 652.621 299.816 653.331 301.354L674.407 355.002C674.641 355.427 674.75 355.909 674.723 356.394C674.696 356.878 674.533 357.345 674.253 357.742L676.533 355.634C676.854 355.248 677.049 354.774 677.094 354.274C677.138 353.775 677.03 353.273 676.782 352.837L655.706 299.189C655.045 297.736 654.03 296.471 652.756 295.51L650.131 297.522Z" fill="#263238"/>
<path d="M674.388 355.117L653.312 301.469C652.728 300.202 651.878 299.075 650.82 298.166C649.762 297.257 648.521 296.586 647.181 296.2L620.663 290.126C618.211 289.551 616.965 291.007 617.885 293.345L638.961 346.993C639.535 348.263 640.379 349.392 641.435 350.302C642.491 351.212 643.732 351.881 645.073 352.262L671.59 358.355C674.062 358.91 675.307 357.473 674.388 355.117Z" fill="#37474F"/>
<path d="M653.753 312.831L649.806 302.772C649.697 302.535 649.538 302.324 649.339 302.155C649.141 301.987 648.908 301.863 648.656 301.794L643.694 300.645C643.234 300.549 643.004 300.817 643.176 301.258C643.943 303.174 646.338 309.324 647.123 311.298C647.235 311.532 647.392 311.741 647.587 311.912C647.781 312.083 648.008 312.213 648.254 312.294L653.235 313.425C653.695 313.54 653.925 313.271 653.753 312.831Z" fill="#455A64"/>
<path d="M649.672 305.224C649.391 304.632 648.985 304.109 648.482 303.689C647.98 303.269 647.392 302.962 646.76 302.791C645.572 302.523 644.94 303.155 645.361 304.228C645.642 304.819 646.048 305.343 646.551 305.763C647.054 306.183 647.641 306.49 648.274 306.661C649.461 306.929 650.094 306.297 649.672 305.224Z" fill="#263238"/>
<path d="M651.588 310.302C651.307 309.71 650.901 309.186 650.398 308.766C649.896 308.346 649.308 308.04 648.676 307.868C647.488 307.6 646.856 308.232 647.277 309.305C647.558 309.897 647.964 310.421 648.467 310.841C648.97 311.261 649.557 311.567 650.19 311.739C651.377 312.007 652.01 311.374 651.588 310.302Z" fill="#263238"/>
<path d="M624.324 323.292C621.201 319.805 621.392 319.268 622.657 317.18C623.59 315.521 624.907 314.11 626.496 313.063C628.086 312.016 629.903 311.365 631.796 311.164C635.13 310.896 638.483 310.455 640.303 311.164C642.123 311.873 641.05 315.628 636.816 317.065C630.167 319.345 630.397 321.204 630.397 321.204C633.237 320.211 636.128 319.373 639.058 318.694C642.454 318.558 645.856 318.693 649.232 319.096C652.163 319.249 653.064 322.928 648.389 324.71L653.753 324.978C657.585 325.17 658.984 326.894 656.34 329.596C655.481 330.475 654.357 331.048 653.14 331.224C653.14 331.224 656.972 330.784 657.298 332.086C657.93 335.804 655.612 337.049 647.91 340.229C640.571 343.257 639.46 347.51 641.28 350.174C641.28 350.174 638.023 348.717 635.111 347.146C632.965 345.977 631.106 344.617 631.662 341.398C631.662 341.398 627.332 341.954 626.776 339.31C626.497 337.348 626.641 335.349 627.198 333.447C626.373 333.093 625.666 332.513 625.157 331.774C624.648 331.035 624.359 330.167 624.324 329.27C624.128 327.57 624.498 325.853 625.377 324.384L624.324 323.292Z" fill="#C8856A"/>
<path d="M648.388 324.691C646.776 324.537 645.152 324.537 643.54 324.691C641.96 325.088 640.453 325.735 639.076 326.607C636.303 328.174 633.668 329.976 631.201 331.991C634.167 330.839 637.032 329.442 639.766 327.814C641.043 326.979 642.397 326.267 643.808 325.687C645.207 325.361 646.874 325.208 648.388 324.691Z" fill="#AF6152"/>
<path d="M653.14 331.205C651.397 330.898 649.604 331.036 647.929 331.607C646.277 332.153 644.679 332.853 643.158 333.696C640.137 335.312 637.292 337.239 634.67 339.444C637.801 338.079 640.858 336.551 643.828 334.865C646.678 333.078 649.836 331.837 653.14 331.205Z" fill="#AF6152"/>
<path d="M847.653 419.897C844.357 392.785 831.635 378.473 830.658 369.372C829.029 354.35 835.084 334.156 836.559 324.269C839.778 302.733 833.608 284.685 828.588 280.45C828.588 280.45 822.84 279.032 818.127 278.17C814.295 277.5 811.421 277.059 806.42 275.833C793.985 272.825 780.401 275.833 775.764 276.273C772.512 276.19 769.258 276.421 766.05 276.963C762.697 277.749 754.899 279.09 754.899 279.09C749.524 284.75 744.508 290.74 739.878 297.024C733.191 305.99 726.466 314.268 725.201 330.285C724.626 337.26 724.3 361.746 723.496 388.417C721.791 443.444 718.84 515.524 718.84 515.524C731.026 524.625 747.12 532.768 781.531 532.308C819.756 531.734 844.012 526.445 858.67 512.746C858.535 512.746 853.228 466.13 847.653 419.897Z" fill="#37474F"/>
<path d="M743.65 189.172C757.235 172.369 775.475 168.709 792.489 172.675C802.567 175.032 813.048 180.991 815.999 191.624C824.372 191.624 830.024 200.534 831.02 216.532C832.016 232.531 833.741 257.19 828.548 265.314C827.415 267.205 825.886 268.829 824.068 270.076C822.249 271.322 820.183 272.162 818.01 272.537C820.962 270.414 823.012 267.263 823.758 263.704C821.262 267.381 817.783 270.282 813.719 272.077C807.53 275.124 802.108 276.427 792.643 276.752C781.147 277.155 769.651 275.507 764.286 273.112C767.084 271.919 769.296 269.666 770.436 266.847C770.436 266.847 765.282 273.38 754.495 269.989C759.266 268.973 761.967 263.225 762.063 253.435C762.063 250.388 762.063 243.242 762.063 234.869C756.181 232.205 750.069 231.037 746.601 224.446C744.174 219.481 743.616 213.808 745.03 208.466C743.74 209.519 742.702 210.846 741.989 212.351C741.277 213.855 740.908 215.5 740.911 217.165C738.609 212.734 737.642 207.731 738.129 202.762C738.615 197.793 740.533 193.072 743.65 189.172Z" fill="#37474F"/>
<path d="M806.304 270.449C806.304 266.923 806.975 249.219 806.975 249.219C807.128 250.541 813.508 254.201 819.314 247.438C825.119 240.674 825.56 233.432 822.168 228.776C818.336 223.641 809.944 223.852 806.496 232.148C800.958 233.412 798.506 224.944 802.798 216.82C802.491 206.512 791.915 206.972 786.703 193.636C773.387 200.515 761.086 194.901 752.56 204.883C750.797 209.865 749.399 217.701 749.246 231.707C749.035 254.527 753.442 259.987 759.611 262.804C763.29 264.49 767.831 264.969 774.939 264.452L774.556 270.334C774.383 273.304 774.556 274.568 771.759 275.507C769.843 276.12 766.011 276.925 766.011 276.925C766.011 276.925 757.638 284.742 775.897 287.348C803.181 291.18 818.183 278.132 818.183 278.132C818.183 278.132 816.267 277.825 811.669 276.963C807.07 276.101 806.304 273.974 806.304 270.449Z" fill="#C8856A"/>
<path d="M814.906 245.138C814.829 245.835 814.492 246.476 813.962 246.934C813.432 247.393 812.749 247.634 812.049 247.61C811.349 247.585 810.684 247.297 810.187 246.804C809.69 246.31 809.398 245.647 809.369 244.947C809.399 244.213 809.718 243.521 810.257 243.022C810.795 242.523 811.509 242.258 812.243 242.283C812.606 242.296 812.962 242.38 813.292 242.53C813.622 242.68 813.919 242.894 814.167 243.159C814.414 243.424 814.607 243.735 814.734 244.075C814.86 244.415 814.919 244.776 814.906 245.138V245.138Z" fill="white"/>
<path d="M782.009 243.241L772.104 246.288C772.276 246.949 772.579 247.57 772.996 248.111C773.413 248.653 773.935 249.106 774.53 249.442C775.125 249.778 775.782 249.991 776.461 250.068C777.141 250.145 777.828 250.084 778.484 249.89C779.818 249.453 780.93 248.517 781.588 247.277C782.245 246.037 782.396 244.59 782.009 243.241Z" fill="#AF6152"/>
<path d="M781.357 245.502C780.039 245.466 778.749 245.884 777.702 246.687C776.655 247.489 775.917 248.627 775.609 249.909C776.539 250.197 777.534 250.197 778.464 249.909C779.408 249.605 780.247 249.044 780.89 248.289C781.533 247.535 781.954 246.616 782.105 245.637C781.875 245.579 781.626 245.522 781.357 245.502Z" fill="#FFA8A7"/>
<path d="M753.461 213.352L761.374 212.566C761.348 212.047 761.217 211.539 760.988 211.072C760.76 210.605 760.438 210.19 760.044 209.851C759.65 209.512 759.191 209.257 758.695 209.101C758.199 208.946 757.676 208.893 757.159 208.945C756.095 209.066 755.118 209.59 754.43 210.411C753.742 211.231 753.395 212.284 753.461 213.352V213.352Z" fill="#37474F"/>
<path d="M790.956 214.08L783.062 212.451C783.137 211.929 783.319 211.429 783.596 210.98C783.873 210.531 784.24 210.145 784.673 209.844C785.107 209.544 785.597 209.336 786.115 209.234C786.632 209.132 787.165 209.138 787.68 209.252C788.741 209.483 789.673 210.113 790.283 211.012C790.892 211.91 791.134 213.009 790.956 214.08V214.08Z" fill="#37474F"/>
<path d="M762.312 223.392C762.356 224.271 762.06 225.133 761.486 225.8C760.912 226.467 760.103 226.887 759.227 226.975C758.799 227.022 758.366 226.983 757.954 226.859C757.541 226.735 757.158 226.529 756.827 226.254C756.496 225.978 756.224 225.639 756.028 225.256C755.831 224.872 755.714 224.454 755.683 224.024C755.634 223.139 755.931 222.269 756.509 221.598C757.088 220.926 757.904 220.505 758.787 220.422C759.215 220.377 759.647 220.419 760.059 220.546C760.47 220.672 760.852 220.88 761.181 221.157C761.51 221.434 761.78 221.775 761.974 222.159C762.169 222.543 762.284 222.962 762.312 223.392V223.392Z" fill="#263238"/>
<path d="M786.341 224.196C786.384 225.075 786.088 225.938 785.514 226.604C784.94 227.271 784.132 227.692 783.256 227.779C782.827 227.824 782.393 227.782 781.981 227.656C781.568 227.53 781.185 227.322 780.855 227.045C780.524 226.768 780.252 226.428 780.056 226.044C779.859 225.659 779.742 225.24 779.711 224.81C779.668 223.931 779.963 223.069 780.538 222.402C781.112 221.735 781.92 221.314 782.796 221.227C783.226 221.179 783.66 221.219 784.074 221.344C784.487 221.469 784.872 221.677 785.203 221.954C785.534 222.232 785.806 222.574 786.001 222.959C786.197 223.344 786.312 223.765 786.341 224.196Z" fill="#263238"/>
<path d="M760.014 234.256L770.456 239.352L772.774 219.157L760.014 234.256Z" fill="#AF6152"/>
<path d="M774.844 264.49C787.47 263.321 799.579 259.298 802.453 253.569C802.411 255.411 801.919 257.216 801.021 258.825C800.122 260.434 798.845 261.8 797.299 262.804C790.095 266.962 774.537 268.954 774.537 268.954L774.844 264.49Z" fill="#AF6152"/>
<path d="M767.18 326.434C760.972 321.797 757.849 320.016 754.975 319.192C752.101 318.368 741.927 314.172 738.056 313.195C735.585 312.581 734.589 316.509 737.731 319.192C740.145 321.28 746.429 324.001 749.227 325.515C752.024 327.028 757.389 333.6 757.389 333.6L767.18 326.434Z" fill="#AF6152"/>
<path d="M854.319 296.276C848.169 283.171 842.823 281.926 828.051 280.201C814.064 293.843 825.407 324.365 825.407 324.365L832.898 361.133C832.898 361.133 795.843 351.17 791.647 348.487C787.451 345.805 776.204 333.715 772.487 330.094C767.352 325.151 764.823 325.821 762.198 326.262C753.653 327.546 751.775 328.178 749.955 329.423C749.423 329.792 748.992 330.289 748.704 330.868C748.416 331.448 748.279 332.091 748.307 332.738C746.027 333.025 742.559 332.968 742.195 336.685C742.007 337.67 741.962 338.676 742.061 339.674C741.483 339.767 740.959 340.066 740.586 340.517C738.67 342.701 741.927 350.288 743.996 352.128C745.433 353.431 747.502 353.584 750.204 353.22C752.503 352.913 751.43 350.576 751.43 350.576L754.649 350.767C761.604 355.692 761.949 365.482 771.146 367.647C774.947 368.025 778.705 368.75 782.374 369.813C802.166 376.461 834.604 396.636 852.231 398.131C869.475 399.606 868.938 390.467 869.207 379.91C869.398 370.445 860.451 309.344 854.319 296.276Z" fill="#C8856A"/>
<path d="M832.17 357.531L832.898 361.133C840.734 363.145 849.203 368.797 851.081 373.07C849.567 366.287 845.965 361.21 832.17 357.531Z" fill="#AF6152"/>
<path d="M748.25 332.68L758.385 330.63L748.46 331.282C748.308 331.732 748.236 332.205 748.25 332.68V332.68Z" fill="#AF6152"/>
<path d="M742.003 339.616L753.69 338.103L741.984 338.256C741.943 338.709 741.949 339.165 742.003 339.616Z" fill="#AF6152"/>
<path d="M743.537 344.77C743.926 345.36 744.469 345.831 745.108 346.131C745.715 346.441 746.359 346.673 747.024 346.82L746.871 346.705C747.177 347.319 747.503 347.912 747.848 348.506L748.078 348.2C747.746 348.131 747.403 348.135 747.072 348.211C746.741 348.287 746.431 348.434 746.162 348.641C745.684 349.044 745.332 349.576 745.147 350.173C745.444 349.669 745.85 349.237 746.334 348.909C746.812 348.622 747.377 348.52 747.925 348.621H748.385L748.174 348.219L747.197 346.418V346.322H747.082C746.429 346.199 745.788 346.019 745.166 345.786C744.555 345.57 744 345.223 743.537 344.77V344.77Z" fill="#AF6152"/>
<path d="M746.641 346.284C748.045 346.472 749.459 346.574 750.875 346.591C751.133 347.463 751.639 348.242 752.331 348.832C753.048 349.514 753.802 350.153 754.592 350.748L751.373 350.557C750.925 350.001 750.367 349.544 749.734 349.214C749.101 348.884 748.407 348.689 747.694 348.641L746.641 346.284Z" fill="#AF6152"/>
</g>
<defs>
<clipPath id="clip0_106_2486">
<rect width="1131" height="923" fill="white"/>
</clipPath>
</defs>
</svg>
