<svg width="1131" height="923" viewBox="0 0 1131 923" fill="none" xmlns="http://www.w3.org/2000/svg">
<g clip-path="url(#clip0_106_554)">
<path d="M235.873 418.777C53.5463 531.093 53.5463 713.17 235.873 825.486C418.199 937.802 713.819 937.783 896.126 825.486C1078.43 713.189 1078.45 531.093 896.126 418.777C713.8 306.461 418.18 306.48 235.873 418.777Z" fill="#EBEBEB"/>
<path d="M1004.99 692.726V436.806L988.44 402.72L971.56 417.589V673.528L1004.99 692.726Z" fill="#37474F"/>
<path d="M1004.99 436.806L1013.35 431.997V687.936L1004.99 692.726V436.806Z" fill="#263238"/>
<path d="M988.439 402.72L996.812 397.72L1013.35 431.997L1004.99 436.806L988.439 402.72Z" fill="#455A64"/>
<path d="M881.45 621.719V365.799L864.915 331.714L848.016 346.582V602.521L881.45 621.719Z" fill="#37474F"/>
<path d="M881.45 365.799L889.804 361.009V616.929L881.45 621.719V365.799Z" fill="#263238"/>
<path d="M864.915 331.714L873.269 326.732L889.804 361.009L881.45 365.799L864.915 331.714Z" fill="#455A64"/>
<path d="M757.925 550.731V294.811L741.371 260.707L724.491 275.594V531.514L757.925 550.731Z" fill="#37474F"/>
<path d="M757.926 294.811L766.28 290.002V545.922L757.926 550.731V294.811Z" fill="#263238"/>
<path d="M741.371 260.706L749.725 255.725L766.279 290.002L757.925 294.811L741.371 260.706Z" fill="#455A64"/>
<path d="M634.381 479.725V223.804L617.846 189.719L600.947 204.587V460.507L634.381 479.725Z" fill="#37474F"/>
<path d="M634.382 223.805L642.736 218.995V474.915L634.382 479.725V223.805Z" fill="#263238"/>
<path d="M617.847 189.719L626.2 184.718L642.736 218.995L634.382 223.804L617.847 189.719Z" fill="#455A64"/>
<path d="M634.381 300.253L600.947 281.054V294.179L634.381 313.397V300.253Z" fill="#263238"/>
<path d="M881.45 442.209L848.016 422.992V436.135L881.45 455.353V442.209Z" fill="#263238"/>
<path d="M757.925 371.221L724.491 352.023V365.167L757.925 384.365V371.221Z" fill="#263238"/>
<path d="M1004.99 513.178L971.56 493.979V507.104L1004.99 526.322V513.178Z" fill="#263238"/>
<path d="M634.381 384.978L600.947 365.78V378.924L634.381 398.122V384.978Z" fill="#263238"/>
<path d="M881.45 526.935L848.016 507.736V520.861L881.45 540.078V526.935Z" fill="#263238"/>
<path d="M757.925 455.966L724.491 436.749V449.892L757.925 469.11V455.966Z" fill="#263238"/>
<path d="M1004.99 597.903L971.56 578.705V591.849L1004.99 611.047V597.903Z" fill="#263238"/>
<path d="M1021.41 598.133L583.531 346.505V359.649L1021.41 611.277V598.133Z" fill="#37474F"/>
<path d="M1021.41 598.133L1030 593.228V606.353L1021.41 611.277V598.133Z" fill="#263238"/>
<path d="M583.531 346.505L1021.41 598.133L1030 593.228L592.172 341.523L583.531 346.505Z" fill="#455A64"/>
<path d="M1021.41 514.002L583.531 262.354V275.498L1021.41 527.145V514.002Z" fill="#37474F"/>
<path d="M1021.41 514.002L1030 509.097V522.202L1021.41 527.145V514.002Z" fill="#263238"/>
<path d="M583.531 262.354L1021.41 514.002L1030 509.097L592.172 257.392L583.531 262.354Z" fill="#455A64"/>
<path d="M707.324 637.967C707.171 614.975 723.189 586.752 743.096 575.103C753.538 568.972 762.927 568.684 769.556 573.053L783.179 580.717L731.868 669.178L718.456 661.514C711.616 657.836 707.401 649.731 707.324 637.967Z" fill="#37474F"/>
<path d="M757.6 583.418C737.693 595.087 721.675 623.233 721.828 646.282C721.982 669.332 738.229 678.586 758.117 666.937C778.005 655.287 794.004 627.141 794.004 604.073C794.004 581.004 777.526 571.769 757.6 583.418Z" fill="#455A64"/>
<path d="M757.735 599.666C745.568 606.793 735.796 623.98 735.892 638.082C735.988 652.184 745.894 657.817 758.06 650.689C770.227 643.562 779.999 626.375 779.903 612.273C779.807 598.171 769.882 592.538 757.735 599.666Z" fill="#37474F"/>
<path d="M769.691 596.773C765.49 596.319 761.263 597.342 757.735 599.666C745.568 606.793 735.797 623.98 735.892 638.082C735.772 641.742 736.688 645.362 738.536 648.524C742.737 648.988 746.968 647.964 750.492 645.631C762.64 638.503 772.43 621.317 772.335 607.215C772.455 603.555 771.539 599.935 769.691 596.773V596.773Z" fill="#263238"/>
<path d="M743.651 630.743C743.845 626.614 745.011 622.589 747.055 618.996C749.1 615.404 751.964 612.345 755.416 610.07C758.845 608.039 761.949 607.943 764.133 609.38L768.598 611.909L751.718 641.032L747.311 638.503C745.088 637.296 743.671 634.633 743.651 630.743Z" fill="#37474F"/>
<path d="M760.206 612.791C756.756 615.073 753.892 618.136 751.845 621.731C749.798 625.326 748.626 629.352 748.423 633.483C748.423 641.147 753.826 644.117 760.379 640.285C763.83 638.006 766.695 634.944 768.739 631.348C770.783 627.752 771.95 623.724 772.143 619.592C772.105 612.005 766.759 608.959 760.206 612.791Z" fill="#455A64"/>
<path d="M760.245 620.206C758.65 621.263 757.328 622.681 756.386 624.346C755.444 626.011 754.908 627.875 754.822 629.786C754.822 633.292 757.313 634.691 760.321 632.928C761.918 631.872 763.243 630.454 764.188 628.789C765.134 627.124 765.673 625.26 765.763 623.348C765.744 619.842 763.348 618.443 760.245 620.206Z" fill="#263238"/>
<path d="M947.284 393.37L628.922 402.184L656.052 708.993C656.228 710.095 656.669 711.138 657.336 712.032C658.004 712.927 658.878 713.646 659.884 714.128L789.578 788.986C792.563 790.498 795.861 791.286 799.206 791.286C802.552 791.286 805.85 790.498 808.834 788.986L916.035 727.099C917.056 726.621 917.947 725.902 918.631 725.005C919.315 724.107 919.772 723.057 919.962 721.945V721.945L947.284 393.37Z" fill="#9F86C0"/>
<path d="M799.312 393.37L628.922 402.184L656.052 708.993C656.228 710.095 656.669 711.138 657.336 712.032C658.004 712.927 658.878 713.646 659.884 714.128L789.578 788.986C792.526 790.549 795.822 791.34 799.158 791.285L799.312 393.37Z" fill="#9F86C0"/>
<path opacity="0.2" d="M799.312 393.37L628.922 402.184L656.052 708.993C656.228 710.095 656.669 711.138 657.336 712.032C658.004 712.927 658.878 713.646 659.884 714.128L789.578 788.986C792.526 790.549 795.822 791.34 799.158 791.285L799.312 393.37Z" fill="white"/>
<path d="M700.541 737.541L750.434 766.339V677.321L694.104 644.807L700.541 737.541Z" fill="#9F86C0"/>
<path opacity="0.15" d="M700.541 737.541L750.434 766.339V677.321L694.104 644.807L700.541 737.541Z" fill="black"/>
<path d="M708.589 732.905L750.434 757.046V677.322L702.841 649.827L708.589 732.905Z" fill="#9F86C0"/>
<path d="M700.542 737.541L708.589 732.905L750.435 757.046V766.339L700.542 737.541Z" fill="#9F86C0"/>
<path opacity="0.05" d="M700.542 737.541L708.589 732.905L750.435 757.046V766.339L700.542 737.541Z" fill="black"/>
<path d="M789.674 498.482L632.907 407.932C627.58 404.866 627.58 399.885 632.907 396.819L767.18 297.589C770.164 296.078 773.463 295.29 776.808 295.29C780.153 295.29 783.452 296.078 786.436 297.589L943.222 388.063C948.53 391.148 948.53 396.11 943.222 399.195L808.93 498.482C805.946 499.994 802.647 500.782 799.302 500.782C795.957 500.782 792.658 499.994 789.674 498.482V498.482Z" fill="#9F86C0"/>
<path opacity="0.25" d="M789.674 498.482L632.907 407.932C627.58 404.866 627.58 399.885 632.907 396.819L767.18 297.589C770.164 296.078 773.463 295.29 776.808 295.29C780.153 295.29 783.452 296.078 786.436 297.589L943.222 388.063C948.53 391.148 948.53 396.11 943.222 399.195L808.93 498.482C805.946 499.994 802.647 500.782 799.302 500.782C795.957 500.782 792.658 499.994 789.674 498.482V498.482Z" fill="white"/>
<path d="M799.311 494.152C797.131 494.206 794.972 493.719 793.027 492.734L636.604 402.471L770.514 303.395C772.484 302.474 774.633 301.997 776.808 301.997C778.983 301.997 781.131 302.474 783.102 303.395L939.505 393.677L805.596 492.734C803.65 493.719 801.491 494.206 799.311 494.152Z" fill="#9F86C0"/>
<path opacity="0.15" d="M799.311 494.152C797.131 494.206 794.972 493.719 793.027 492.734L636.604 402.471L770.514 303.395C772.484 302.474 774.633 301.997 776.808 301.997C778.983 301.997 781.131 302.474 783.102 303.395L939.505 393.677L805.596 492.734C803.65 493.719 801.491 494.206 799.311 494.152Z" fill="black"/>
<path opacity="0.15" d="M777.028 303.606L776.798 301.958C774.621 301.907 772.464 302.387 770.514 303.357L636.604 402.433L777.028 482.905V303.606Z" fill="black"/>
<path d="M800.691 500.724L930.864 407.376C934.964 404.426 934.562 399.885 929.963 397.221L777.622 328.495C775.179 327.19 772.436 326.551 769.668 326.642C766.901 326.733 764.206 327.55 761.853 329.012L646.683 411.764C642.582 414.715 642.985 419.255 647.602 421.919L784.922 501.222C787.363 502.529 790.105 503.171 792.873 503.084C795.641 502.996 798.337 502.182 800.691 500.724V500.724Z" fill="#9F86C0"/>
<path d="M951.231 401.341L802.799 507.794C802.799 507.794 802.569 507.909 802.473 507.985L802.147 508.215C799.561 509.822 796.597 510.72 793.554 510.821C790.511 510.922 787.495 510.222 784.807 508.79L784.233 508.464H784.118L624.515 416.286C620.989 414.255 619.552 411.266 620.3 408.468L625.224 391.607C625.763 390.048 626.791 388.704 628.155 387.775L772.717 284.101C775.396 282.439 778.464 281.51 781.615 281.406C784.765 281.302 787.888 282.026 790.67 283.507L944.142 372.141C945.833 373.035 947.18 374.463 947.974 376.203C948.3 377.046 953.722 392.106 954.258 393.773C955.178 396.436 954.182 399.214 951.231 401.341Z" fill="#9F86C0"/>
<path opacity="0.4" d="M951.231 401.341L802.799 507.794C802.799 507.794 802.569 507.909 802.473 507.985L802.147 508.215C799.561 509.822 796.597 510.72 793.554 510.821C790.511 510.922 787.495 510.222 784.807 508.79L784.233 508.464H784.118L624.515 416.286C620.989 414.255 619.552 411.266 620.3 408.468L625.224 391.607C625.763 390.048 626.791 388.704 628.155 387.775L772.717 284.101C775.396 282.439 778.464 281.51 781.615 281.406C784.765 281.302 787.888 282.026 790.67 283.507L944.142 372.141C945.833 373.035 947.18 374.463 947.974 376.203C948.3 377.046 953.722 392.106 954.258 393.773C955.178 396.436 954.182 399.214 951.231 401.341Z" fill="white"/>
<path d="M800.614 487.408L945.157 383.733C949.833 380.38 949.373 375.207 944.142 372.237L790.67 283.603C787.888 282.122 784.765 281.398 781.615 281.502C778.464 281.606 775.396 282.535 772.717 284.197L628.155 387.814C623.48 391.167 623.94 396.34 629.19 399.31L782.642 487.944C785.424 489.433 788.547 490.167 791.7 490.073C794.853 489.979 797.927 489.06 800.614 487.408Z" fill="#9F86C0"/>
<g opacity="0.65">
<path d="M800.614 487.408L945.157 383.733C949.833 380.38 949.373 375.207 944.142 372.237L790.67 283.603C787.888 282.122 784.765 281.398 781.615 281.502C778.464 281.606 775.396 282.535 772.717 284.197L628.155 387.814C623.48 391.167 623.94 396.34 629.19 399.31L782.642 487.944C785.424 489.433 788.547 490.167 791.7 490.073C794.853 489.979 797.927 489.06 800.614 487.408Z" fill="white"/>
</g>
<path d="M639.498 385.515L647.871 368.079C648.384 366.975 649.185 366.028 650.189 365.339L777.967 273.697C780.258 272.289 782.875 271.5 785.563 271.41C788.25 271.319 790.915 271.929 793.295 273.18L928.124 350.969C929.244 351.587 930.198 352.468 930.902 353.537V353.537L942.398 370.302C944.314 372.984 943.701 376.222 940.482 378.54L804.044 476.391C801.548 477.939 798.688 478.804 795.752 478.898C792.816 478.992 789.907 478.313 787.317 476.927L642.889 393.562C639.268 391.473 638.099 388.293 639.498 385.515Z" fill="#9F86C0"/>
<path opacity="0.4" d="M639.498 385.515L647.871 368.079C648.384 366.975 649.185 366.028 650.189 365.339L777.967 273.697C780.258 272.289 782.875 271.5 785.563 271.41C788.25 271.319 790.915 271.929 793.295 273.18L928.124 350.969C929.244 351.587 930.198 352.468 930.902 353.537V353.537L942.398 370.302C944.314 372.984 943.701 376.222 940.482 378.54L804.044 476.391C801.548 477.939 798.688 478.804 795.752 478.898C792.816 478.992 789.907 478.313 787.317 476.927L642.889 393.562C639.268 391.473 638.099 388.293 639.498 385.515Z" fill="white"/>
<path opacity="0.2" d="M785.535 271.398C788.273 271.267 790.995 271.883 793.41 273.18L928.124 350.969C929.244 351.587 930.198 352.468 930.902 353.537V353.537L942.398 370.302C944.314 372.984 943.701 376.222 940.482 378.54L804.044 476.39C801.62 477.99 798.786 478.855 795.882 478.881L810.654 359.055L785.535 271.398Z" fill="#9F86C0"/>
<path d="M801.17 452.517L928.967 360.875C932.972 358.001 932.569 353.556 928.086 350.969L793.41 273.18C791.03 271.929 788.365 271.319 785.678 271.41C782.99 271.5 780.373 272.289 778.082 273.697L650.304 365.339C646.28 368.213 646.683 372.658 651.185 375.264L785.842 453.035C788.217 454.302 790.884 454.922 793.575 454.831C796.266 454.74 798.885 453.942 801.17 452.517Z" fill="#9F86C0"/>
<path opacity="0.65" d="M801.17 452.517L928.967 360.875C932.972 358.001 932.569 353.556 928.086 350.969L793.41 273.18C791.03 271.929 788.365 271.319 785.678 271.41C782.99 271.5 780.373 272.289 778.082 273.697L650.304 365.339C646.28 368.213 646.683 372.658 651.185 375.264L785.842 453.035C788.217 454.302 790.884 454.922 793.575 454.831C796.266 454.74 798.885 453.942 801.17 452.517Z" fill="white"/>
<path d="M674.848 361.316L681.151 348.21C681.537 347.382 682.139 346.673 682.895 346.16L785.478 272.586C787.207 271.513 789.188 270.913 791.222 270.846C793.257 270.779 795.273 271.246 797.07 272.202L903.465 333.668C904.303 334.132 905.019 334.789 905.553 335.584V335.584L914.118 348.191C914.466 348.68 914.706 349.237 914.822 349.826C914.937 350.415 914.926 351.022 914.788 351.606C914.65 352.19 914.389 352.738 914.022 353.213C913.656 353.688 913.192 354.079 912.662 354.36L803.584 432.61C801.707 433.771 799.559 434.42 797.353 434.49C795.147 434.561 792.962 434.051 791.015 433.012L677.339 367.351C674.656 365.78 673.794 363.404 674.848 361.316Z" fill="#9F86C0"/>
<path opacity="0.4" d="M674.848 361.316L681.151 348.21C681.537 347.382 682.139 346.673 682.895 346.16L785.478 272.586C787.207 271.513 789.188 270.913 791.222 270.846C793.257 270.779 795.273 271.246 797.07 272.202L903.465 333.668C904.303 334.132 905.019 334.789 905.553 335.584V335.584L914.118 348.191C914.466 348.68 914.706 349.237 914.822 349.826C914.937 350.415 914.926 351.022 914.788 351.606C914.65 352.19 914.389 352.738 914.022 353.213C913.656 353.688 913.192 354.079 912.662 354.36L803.584 432.61C801.707 433.771 799.559 434.42 797.353 434.49C795.147 434.561 792.962 434.051 791.015 433.012L677.339 367.351C674.656 365.78 673.794 363.404 674.848 361.316Z" fill="white"/>
<path opacity="0.2" d="M791.13 270.861C793.195 270.755 795.25 271.219 797.069 272.202L903.465 333.668C904.303 334.132 905.019 334.789 905.553 335.584V335.584L914.118 348.191C914.466 348.68 914.706 349.237 914.822 349.826C914.937 350.415 914.926 351.022 914.788 351.606C914.65 352.19 914.389 352.738 914.022 353.213C913.656 353.688 913.192 354.079 912.662 354.36L803.584 432.61C801.768 433.827 799.638 434.492 797.453 434.526L814.007 327.038L791.13 270.861Z" fill="#9F86C0"/>
<path d="M801.534 414.676L904.116 341.121C907.144 338.956 906.837 335.622 903.465 333.668L797.069 272.202C795.273 271.246 793.256 270.779 791.222 270.846C789.188 270.913 787.207 271.513 785.478 272.586L682.876 346.16C679.868 348.325 680.155 351.659 683.527 353.613L789.942 415.059C791.737 416.019 793.754 416.489 795.789 416.422C797.824 416.355 799.805 415.752 801.534 414.676V414.676Z" fill="#9F86C0"/>
<path opacity="0.65" d="M801.534 414.676L904.116 341.121C907.144 338.956 906.837 335.622 903.465 333.668L797.069 272.202C795.273 271.246 793.256 270.779 791.222 270.846C789.188 270.913 787.207 271.513 785.478 272.586L682.876 346.16C679.868 348.325 680.155 351.659 683.527 353.613L789.942 415.059C791.737 416.019 793.754 416.489 795.789 416.422C797.824 416.355 799.805 415.752 801.534 414.676V414.676Z" fill="white"/>
<path opacity="0.55" d="M903.465 333.668L874.936 317.765L846.502 301.69L818.146 285.48L803.986 277.356L796.916 273.295C794.734 272.05 792.188 271.603 789.712 272.03C788.505 272.218 787.346 272.641 786.302 273.275L783.006 275.613L776.358 280.345L763.061 289.925C754.19 296.229 745.357 302.59 736.447 308.836L709.7 327.46L682.876 346.083L709.125 326.636L735.489 307.361C744.265 300.923 753.117 294.6 761.949 288.201L775.189 278.621L781.799 273.85L785.152 271.455C786.426 270.64 787.854 270.099 789.348 269.865C792.297 269.363 795.328 269.912 797.913 271.417L804.963 275.517L819.084 283.737L847.288 300.195L875.415 316.788L903.465 333.668Z" fill="white"/>
<path d="M868.978 731.563C868.824 708.571 884.842 680.349 904.749 668.699C915.192 662.587 924.58 662.281 931.209 666.649L944.832 674.313L893.522 762.775L880.11 755.111C873.346 751.432 869.054 743.328 868.978 731.563Z" fill="#37474F"/>
<path d="M919.291 677.015C899.384 688.683 883.366 716.829 883.52 739.898C883.673 762.967 899.921 772.202 919.809 760.533C939.697 748.865 955.734 720.738 955.58 697.669C955.427 674.601 939.179 665.366 919.291 677.015Z" fill="#455A64"/>
<path d="M919.387 693.263C907.22 700.39 897.468 717.577 897.468 731.736C897.468 745.895 907.469 751.471 919.636 744.343C931.803 737.216 941.574 720.029 941.478 706.023C941.382 692.017 931.534 686.135 919.387 693.263Z" fill="#37474F"/>
<path d="M931.343 690.369C927.143 689.925 922.919 690.947 919.387 693.263C907.221 700.39 897.468 717.577 897.468 731.736C897.344 735.397 898.261 739.017 900.112 742.178C904.313 742.642 908.544 741.618 912.068 739.285C924.215 732.157 934.006 714.971 933.91 700.869C934.065 697.197 933.175 693.556 931.343 690.369Z" fill="#263238"/>
<path d="M905.305 724.359C905.495 720.227 906.66 716.198 908.704 712.602C910.749 709.005 913.615 705.944 917.069 703.666C920.499 701.655 923.602 701.54 925.787 702.996L930.251 705.506L913.371 734.629L908.964 732.1C906.742 730.893 905.324 728.23 905.305 724.359Z" fill="#37474F"/>
<path d="M921.859 706.406C918.406 708.686 915.539 711.748 913.492 715.343C911.444 718.939 910.274 722.966 910.075 727.099C910.075 734.763 915.478 737.714 922.031 733.882C925.483 731.602 928.347 728.54 930.392 724.944C932.436 721.348 933.602 717.321 933.795 713.189C933.757 705.602 928.411 702.555 921.859 706.406Z" fill="#455A64"/>
<path d="M921.897 713.802C920.305 714.862 918.984 716.281 918.042 717.945C917.1 719.609 916.563 721.472 916.475 723.382C916.475 726.889 918.965 728.287 921.974 726.524C923.57 725.468 924.895 724.05 925.841 722.386C926.786 720.721 927.326 718.857 927.415 716.944C927.396 713.438 924.924 712.04 921.897 713.802Z" fill="#263238"/>
<path d="M845.526 542.837L852.174 538.028C857.041 512.047 869.265 499.708 883.769 493.29C876.622 499.038 866.908 515.688 864.916 528.831L871.564 524.022C872.867 523.083 873.672 524.54 872.867 526.398L861.064 554.084C860.509 555.349 859.474 556.096 858.823 555.694L844.683 546.823C843.667 546.229 844.223 543.776 845.526 542.837Z" fill="#FAFAFA"/>
<path d="M872.388 513.312C876.373 504.326 882.102 496.068 886.739 492.236C886.739 492.236 900.783 488.404 904.653 506.376C904.653 506.414 892.774 495.148 872.388 513.312Z" fill="#FAFAFA"/>
<path d="M909.73 510.457L906.856 520.171C919.502 529.368 916.57 547.57 907.565 568.397C910.286 557.878 908.159 542.799 901.338 538.795L898.464 548.509C897.909 550.425 896.223 551.402 895.724 550.099L888.329 530.939C888.205 530.359 888.228 529.758 888.395 529.189C888.562 528.62 888.869 528.102 889.287 527.682L907.929 508.79C909.194 507.564 910.286 508.56 909.73 510.457Z" fill="#FAFAFA"/>
<path d="M904.749 550.635C907.04 557.753 907.318 565.365 905.554 572.631C905.554 572.631 895.361 592.577 880.014 596.294C880.014 596.294 898.177 580.774 904.749 550.635Z" fill="#FAFAFA"/>
<path d="M872.752 602.981L868.92 598.076C851.407 614.86 842.096 609.073 836.597 594.608C841.042 599.359 852.883 597.788 861.696 588.668L857.864 583.763C857.136 582.805 858.018 580.353 859.301 579.778L878.595 571.252C879.477 570.849 880.052 571.616 879.86 572.88L875.357 600.643C875.166 602.502 873.499 603.939 872.752 602.981Z" fill="#FAFAFA"/>
<path d="M850.89 592.309C844.606 594.895 838.609 594.474 835.716 591.389C835.716 591.389 831.884 575.314 843.38 553.567C843.341 553.548 837.057 580.372 850.89 592.309Z" fill="#FAFAFA"/>
<path d="M443.932 440.504C442.572 417.512 439.43 386.971 436.421 360.626C434.33 341.964 430.08 323.607 423.757 305.924C410.69 328.514 387.813 354.284 387.813 354.284L333.762 353.077L364.591 455.832C344.952 468.267 333.494 482.407 320.982 507.258C312.916 523.275 307.283 535.48 298.795 554.123C294.369 563.703 288.046 576.119 283.065 580.947L282.49 581.426V581.33C278.39 584.664 271.971 586.101 266.185 591.408C264.424 593.103 263.198 595.276 262.66 597.66C262.122 600.044 262.295 602.534 263.158 604.82C263.407 605.453 263.617 606.104 263.828 606.832C264.729 610.108 268.024 616.316 268.58 622.697C269.097 628.579 266.127 635.591 263.809 643.274C261.491 650.958 261.893 655.537 265.725 662.243C268.733 667.493 280.459 680.387 290.633 684.353C306.842 690.676 312.131 685.886 310.176 678.184C308.222 670.482 304.716 664.178 303.336 658.564C301.487 651.996 301.101 645.103 302.206 638.369C303.643 630.15 306.038 623.885 309.237 613.059C311.153 606.621 311.383 600.931 333.781 581.139C333.781 581.139 393.541 532.319 410.728 516.55C442.974 486.91 446.366 481.813 443.932 440.504Z" fill="#B16668"/>
<path d="M342.748 383.024L364.591 455.832C346.83 467.079 335.851 479.744 324.527 500.475L337.709 531.878C334.376 539.255 334.701 562.151 338.15 577.537C352.252 566.041 396.32 529.732 410.69 516.55L412.97 514.462C411.533 478.288 406.072 434.258 399.021 393.907C414.963 380.495 417.3 368.022 418.181 356.373L387.813 354.284L333.762 353.077V353.25L342.748 383.024Z" fill="#9A4A4D"/>
<path d="M262.64 594.052C261.461 594.537 260.397 595.262 259.516 596.183C258.635 597.104 257.956 598.199 257.525 599.398C256.394 603.671 258.272 610.894 260.82 617.83C263.368 624.766 264.307 627.525 262.583 632.851C260.858 638.178 258.348 644.731 259.23 654.406C260.111 664.082 264.575 676.613 278.965 687.074C290.748 695.639 300.941 695.102 304.811 694.355C308.682 693.608 309.487 688.205 309.487 688.205L262.64 594.052Z" fill="#263238"/>
<path d="M283.257 580.602C282.011 581.848 281.034 584.798 280.612 588.707C279.769 596.371 287.51 607.867 289.828 610.434C290.625 609.646 291.58 609.036 292.631 608.646C293.681 608.256 294.803 608.095 295.921 608.173C300.98 608.173 309.736 608.787 310.636 610.99C311.537 613.193 304.218 629.211 303.164 641.033C302.297 650.474 304.103 659.968 308.375 668.432C311.46 674.467 316.71 682.667 308.222 690.178C303.24 691.692 282.471 689.22 270.113 671.842C259.115 656.399 263.79 640.324 266.434 632.066C269.078 623.808 265.246 616.91 262.717 606.832C261.625 602.425 260.475 599.168 262.717 594.052C268.139 587.117 276.455 583.093 280.306 580.506C280.769 580.283 281.279 580.174 281.793 580.191C282.307 580.208 282.809 580.349 283.257 580.602V580.602Z" fill="#37474F"/>
<path d="M270.112 671.842C271.645 667.148 279.079 660.537 288.659 658.43C300.443 655.939 304.581 658.296 307.244 662.262C309.467 665.538 321.461 684.315 308.758 690.446C304.619 693.09 284.482 693.282 270.112 671.842Z" fill="#FAFAFA"/>
<path d="M289.828 610.434C290.61 611.079 291.134 611.983 291.304 612.982C291.352 613.986 291.229 614.99 290.94 615.952C290.441 617.868 290.02 619.688 289.579 621.566C288.66 625.302 287.817 629.038 287.127 632.794C286.429 636.539 285.93 640.319 285.632 644.117C285.349 647.953 285.49 651.809 286.054 655.613C284.82 651.908 284.218 648.022 284.272 644.117C284.274 640.222 284.633 636.336 285.345 632.506C286.047 628.687 286.975 624.912 288.123 621.202C288.679 619.286 289.349 617.504 290.039 615.722C290.403 614.864 290.654 613.962 290.786 613.04C290.749 612.092 290.414 611.18 289.828 610.434Z" fill="#263238"/>
<path d="M283.697 652.663C288.315 650.747 300.941 649.942 303.605 653.87L303.873 655.211C304.291 653.859 304.23 652.404 303.7 651.092C302.838 648.639 294.12 646.072 283.525 649.712C282.433 650.804 282.28 653.18 283.697 652.663Z" fill="#FAFAFA"/>
<path d="M284.062 642.757C288.564 640.496 300.137 639.519 303.011 643.274V644.386C303.406 643.833 303.635 643.179 303.673 642.5C303.71 641.822 303.553 641.147 303.222 640.554C302.225 638.159 294.197 635.476 283.755 639.749C282.663 640.975 282.663 643.294 284.062 642.757Z" fill="#FAFAFA"/>
<path d="M285.325 632.698C289.962 630.782 301.726 630.303 304.255 634.365L303.968 635.668C304.36 635.17 304.643 634.596 304.802 633.982C304.96 633.369 304.989 632.729 304.888 632.104C304.275 629.479 295.883 626.356 285.191 629.728C284.061 630.801 283.908 633.12 285.325 632.698Z" fill="#FAFAFA"/>
<path d="M286.839 624.153C291.457 622.237 304.083 621.624 306.536 625.666L306.21 626.988C306.61 626.443 306.899 625.823 307.06 625.166C307.221 624.508 307.251 623.826 307.149 623.156C306.536 620.531 297.415 617.811 286.743 621.106C285.594 622.237 285.421 624.574 286.839 624.153Z" fill="#FAFAFA"/>
<path d="M450.312 752.41C448.402 750.638 446.278 749.112 443.989 747.869L443.05 747.275C439.046 744.746 435.386 741.833 431.305 739.304C427.23 736.85 423.439 733.952 420.001 730.663C413.927 724.532 411.839 717.615 408.505 709.587C408.083 708.553 403.868 704.682 403.504 690.427C402.68 659.177 405.938 601.199 406.225 577.383C407.03 513.312 405.037 505.073 400.956 464.799L389.728 388.082C389.728 388.082 408.198 381.625 418.947 354.361C424.312 340.776 422.032 322.287 423.756 305.924C423.756 305.924 408.179 315.887 371.622 314.91C332.631 313.876 324.584 292.819 324.584 292.819C320.963 302.59 316.192 311.174 305.788 338.515C302.416 347.329 294.292 375.743 298.948 395.612C303.317 414.619 306.306 424.161 315.56 451.732C326.155 483.327 343.246 531.016 343.246 531.016C339.567 552.705 340.774 564.393 350.565 609.993C354.819 629.901 359.973 652.682 362.272 664.37C364.571 676.057 366.104 686.116 365.912 689.412C364.897 703.207 357.118 721.16 369.936 730.587C372.484 732.503 375.396 733.729 378.06 735.396C386.758 740.78 392.506 749.785 400.343 756.357C406.222 761.192 413.049 764.743 420.384 766.78C423.334 767.911 426.431 768.614 429.581 768.868C433.652 768.751 437.707 768.316 441.709 767.565C444.193 767.236 446.6 766.471 448.818 765.304C449.927 764.712 450.89 763.878 451.633 762.863C452.376 761.848 452.88 760.678 453.109 759.441C453.192 758.136 452.984 756.828 452.5 755.612C452.016 754.396 451.269 753.302 450.312 752.41V752.41Z" fill="#B16668"/>
<path d="M359.59 722.597C358.766 723.823 358.632 727.636 359.59 731.813C361.314 734.246 364.093 736.162 370.856 739.994C377.62 743.826 379.746 747.486 382.697 752.621C385.447 757.364 388.896 761.666 392.928 765.381C400.458 772.355 411.744 776.379 430.54 775.919C442.285 775.613 452.018 771.168 454.643 767.929C455.411 766.986 455.969 765.89 456.28 764.713C456.591 763.537 456.647 762.308 456.444 761.108L359.59 722.597Z" fill="#263238"/>
<path d="M363.556 691.653C363.556 689.891 365.319 688.051 365.932 688.703C365.932 690.619 365.606 695.677 366.89 697.574C371.126 703.252 377.234 707.25 384.134 708.859C384.134 708.859 383.559 706.943 387.966 705.41C392.373 703.878 403.524 700.122 405.766 701.31C408.007 702.498 410.057 714.051 417.262 724.302C423.659 732.984 432.212 739.846 442.074 744.209C448.684 746.988 456.118 752.621 455.792 761.281C448.684 770.593 430.214 771.225 419.024 770.037C399.194 767.949 390.591 755.495 385.264 748.06C379.938 740.626 378.118 739.419 369.227 732.982C365.395 730.165 361.276 728.134 359.647 722.558C358.038 708.974 363.211 706.828 363.556 691.653Z" fill="#37474F"/>
<path d="M408.276 767.623C407.433 760.438 411.092 751.375 422.588 745.895C434.084 740.416 438.951 741.833 442.821 743.366C446.692 744.899 460.065 751.892 456.233 761.721C454.758 766.626 430.655 776.398 408.276 767.623Z" fill="#FAFAFA"/>
<path d="M384.191 708.859C385.263 708.866 386.3 709.245 387.123 709.932C387.835 710.716 388.417 711.609 388.847 712.576L391.549 718.037C393.35 721.696 395.208 725.279 397.297 728.805C399.274 732.317 401.449 735.713 403.811 738.979C406.17 742.272 408.889 745.292 411.916 747.984C408.397 745.823 405.268 743.083 402.662 739.879C399.968 736.75 397.563 733.383 395.477 729.82C393.457 726.253 391.64 722.575 390.035 718.803C389.23 716.887 388.483 714.971 387.832 713.055C387.565 712.109 387.165 711.206 386.644 710.373C385.996 709.635 385.142 709.108 384.191 708.859Z" fill="#263238"/>
<path d="M406.321 746.374C409.962 742.811 425.846 736.22 431.057 737.982L432.264 738.787C431.702 737.501 430.695 736.46 429.428 735.856C427.014 734.399 413.296 736.737 404.31 744.229C403.812 745.551 405.057 747.352 406.321 746.374Z" fill="#FAFAFA"/>
<path d="M400.037 738.481C403.677 734.917 417.53 729.265 422.742 731.027L423.757 732.005C423.566 731.327 423.231 730.699 422.774 730.164C422.318 729.628 421.751 729.197 421.113 728.901C418.699 727.464 407.011 728.901 398.121 736.335C397.527 737.657 398.83 739.4 400.037 738.481Z" fill="#FAFAFA"/>
<path d="M395.783 730.203C399.615 726.755 411.705 721.811 416.859 723.727L417.606 724.839C417.351 723.638 416.67 722.57 415.69 721.83C413.429 720.125 403.006 720.777 393.81 728.019C393.292 729.322 394.538 731.161 395.783 730.203Z" fill="#FAFAFA"/>
<path d="M391.645 723.057C395.362 719.608 407.567 714.665 412.721 716.561L413.353 717.788C413.275 717.176 413.076 716.587 412.767 716.054C412.457 715.52 412.044 715.055 411.552 714.684C409.31 712.978 398.887 713.63 389.691 720.872C389.173 722.156 390.419 724.072 391.645 723.057Z" fill="#FAFAFA"/>
<path d="M392.047 288.374C393.522 316.424 397.622 319.03 417.146 325.391C436.67 331.752 469.683 341.332 469.683 341.332L482.827 316.865C482.827 316.865 447.592 300.1 436.421 295.118C436.421 295.118 434.831 243.923 434.256 228.231C433.298 201.962 422.914 188.378 401.952 187.573L391.644 216.524C391.644 216.524 391.204 272.279 392.047 288.374Z" fill="#B16668"/>
<path d="M494.84 270.421C493.665 269.739 492.442 269.144 491.181 268.639C490.014 268.195 489.01 267.408 488.298 266.382C487.587 265.356 487.203 264.139 487.196 262.891V255.802H464.204V262.853C464.19 264.102 463.8 265.318 463.086 266.343C462.372 267.368 461.366 268.155 460.199 268.601C458.931 269.095 457.701 269.684 456.52 270.363C451.213 273.41 448.569 277.414 448.55 281.419L448.454 352.215C448.454 356.238 451.098 360.243 456.386 363.309C466.963 369.44 484.149 369.459 494.706 363.309C500.014 360.262 502.677 356.258 502.677 352.253L502.773 281.361C502.773 277.491 500.148 273.486 494.84 270.421Z" fill="#9F86C0"/>
<path opacity="0.2" d="M494.84 270.421C493.665 269.739 492.442 269.144 491.181 268.639C490.014 268.195 489.01 267.408 488.298 266.382C487.587 265.356 487.203 264.139 487.196 262.891V255.802H464.204V262.853C464.19 264.102 463.8 265.318 463.086 266.343C462.372 267.368 461.366 268.155 460.199 268.601C458.931 269.095 457.701 269.684 456.52 270.363C451.213 273.41 448.569 277.414 448.55 281.419L448.454 352.215C448.454 356.238 451.098 360.243 456.386 363.309C466.963 369.44 484.149 369.459 494.706 363.309C500.014 360.262 502.677 356.258 502.677 352.253L502.773 281.361C502.773 277.491 500.148 273.486 494.84 270.421Z" fill="black"/>
<path opacity="0.6" d="M499.209 309.661C498.826 298.567 454.643 287.148 452.037 296.555L451.941 352.234C451.941 355.051 454.202 357.982 458.111 360.262C463.517 362.971 469.481 364.382 475.527 364.382C481.574 364.382 487.538 362.971 492.944 360.262C496.776 358.001 499.132 355.089 499.132 352.253L499.209 309.661Z" fill="#9F86C0"/>
<path opacity="0.2" d="M499.209 309.661C498.941 298.72 454.643 287.224 452.037 296.555L451.941 352.234C451.941 355.051 454.202 357.982 458.111 360.262C463.517 362.971 469.481 364.382 475.527 364.382C481.574 364.382 487.538 362.971 492.944 360.262C496.776 358.001 499.132 355.089 499.132 352.253L499.209 309.661Z" fill="white"/>
<path opacity="0.2" d="M457.996 362.427C448.416 356.871 448.416 347.904 457.996 342.367C467.576 336.829 483.402 336.868 493.078 342.367C502.753 347.866 502.658 356.909 493.078 362.427C483.498 367.945 467.691 367.984 457.996 362.427Z" fill="black"/>
<path opacity="0.15" d="M489.361 263.236C483.693 260.299 477.232 259.259 470.929 260.266V255.783H464.146V262.814C464.13 264.063 463.739 265.278 463.025 266.303C462.312 267.327 461.307 268.114 460.142 268.562C458.875 269.061 457.645 269.65 456.463 270.325H456.329C451.117 273.352 448.511 277.338 448.511 281.304L448.396 352.1C448.396 356.124 451.041 360.128 456.329 363.194C463.993 367.6 474.971 368.846 484.494 366.93C462.441 368.405 457.133 359.055 457.153 352.292L457.248 282.952C457.145 281.862 457.272 280.763 457.622 279.727C457.972 278.69 458.537 277.739 459.279 276.935C460.091 277.682 460.992 278.325 461.962 278.851C466.205 281.001 470.895 282.121 475.652 282.121C480.408 282.121 485.098 281.001 489.341 278.851C493.403 276.514 495.3 273.391 494.994 270.325L494.534 270.057C494.183 268.627 493.542 267.284 492.653 266.111C491.763 264.938 490.643 263.96 489.361 263.236V263.236Z" fill="black"/>
<path opacity="0.4" d="M494.84 270.421C493.665 269.739 492.442 269.144 491.181 268.639C490.014 268.195 489.009 267.408 488.298 266.382C487.587 265.356 487.203 264.139 487.196 262.891V255.802H484.686C484.686 265.209 484.686 263.236 484.686 265.248C484.686 267.259 488 268.39 490.165 269.578C492.33 270.766 499.63 274.636 500.263 278.027C500.895 281.419 500.493 287.435 500.473 294.792C500.454 302.15 500.473 345.126 500.473 349.935C500.473 354.744 498.557 361.603 489.61 365.742C491.41 365.121 493.154 364.345 494.821 363.423C500.109 360.358 502.773 356.526 502.773 352.311L502.868 281.419C502.773 277.491 500.148 273.486 494.84 270.421Z" fill="white"/>
<path d="M495.108 265.707V267.623C495.108 270.478 493.192 273.371 489.36 275.556C485.114 277.706 480.421 278.826 475.661 278.826C470.901 278.826 466.208 277.706 461.962 275.556C460.295 274.641 458.85 273.373 457.727 271.839C456.835 270.62 456.346 269.153 456.329 267.643V265.554C456.323 265.121 456.374 264.69 456.482 264.27C456.874 262.838 457.57 261.506 458.522 260.365C459.474 259.225 460.66 258.302 462 257.66L462.287 257.507C466.512 255.434 471.16 254.372 475.866 254.405C480.571 254.438 485.204 255.566 489.399 257.699C490.735 258.346 491.918 259.27 492.869 260.41C493.821 261.549 494.519 262.878 494.917 264.309C495.043 264.764 495.107 265.235 495.108 265.707Z" fill="#37474F"/>
<path d="M477.252 276.82V269.693C477.252 266.876 477.961 270.689 473.018 270.689C468.726 270.689 464.932 260.783 462.269 257.564L461.981 257.718C460.642 258.36 459.456 259.282 458.503 260.423C457.551 261.563 456.856 262.895 456.463 264.328C456.356 264.747 456.304 265.179 456.31 265.612V267.7C456.327 269.21 456.816 270.678 457.709 271.896C458.831 273.43 460.277 274.699 461.943 275.613C466.19 277.763 470.883 278.883 475.642 278.883C480.402 278.883 485.095 277.763 489.342 275.613C484.015 277.74 477.252 279.56 477.252 276.82Z" fill="#263238"/>
<path d="M461.981 273.525C454.432 269.156 454.432 262.029 461.981 257.718C466.228 255.568 470.921 254.448 475.681 254.448C480.44 254.448 485.133 255.568 489.38 257.718C496.929 262.086 496.929 269.214 489.38 273.525C485.136 275.684 480.442 276.809 475.681 276.809C470.919 276.809 466.225 275.684 461.981 273.525V273.525Z" fill="#9F86C0"/>
<path d="M495.109 259.001V263.006C495.115 263.464 495.063 263.921 494.956 264.366C494.553 265.795 493.851 267.121 492.896 268.258C491.942 269.394 490.756 270.314 489.418 270.957C485.679 272.951 481.527 274.046 477.29 274.157C471.978 274.507 466.673 273.38 461.962 270.9C460.298 269.982 458.849 268.722 457.709 267.202C457.094 266.343 456.67 265.363 456.463 264.328C456.356 263.896 456.304 263.451 456.31 263.006V258.906C456.31 256.032 458.226 253.158 462.058 250.992L463.093 250.456C467.25 248.572 471.777 247.646 476.34 247.745C480.903 247.845 485.386 248.967 489.457 251.031C493.193 253.253 495.109 256.127 495.109 259.001Z" fill="#37474F"/>
<path d="M462 266.723C454.432 262.354 454.451 255.227 462 250.916C466.241 248.757 470.931 247.632 475.69 247.632C480.448 247.632 485.139 248.757 489.38 250.916C496.948 255.284 496.929 262.412 489.38 266.723C485.138 268.877 480.447 270 475.69 270C470.932 270 466.242 268.877 462 266.723V266.723Z" fill="#455A64"/>
<path d="M457.727 267.202C458.867 268.722 460.317 269.982 461.981 270.9C466.692 273.38 471.997 274.507 477.309 274.157V274.157C477.309 272.739 478.152 271.666 473.094 270.689C468.878 269.865 462.651 268.102 459.682 263.504C457.018 259.25 458.57 253.675 463.015 250.456L461.981 250.993C458.149 253.177 456.329 256.032 456.233 258.906V263.006C456.227 263.451 456.279 263.896 456.386 264.328C456.621 265.371 457.079 266.352 457.727 267.202V267.202Z" fill="#263238"/>
<path d="M469.836 248.713V257.526C469.818 257.66 469.818 257.795 469.836 257.929C469.953 258.366 470.163 258.774 470.45 259.124C470.738 259.474 471.097 259.759 471.503 259.959C472.638 260.567 473.896 260.908 475.182 260.956C476.792 261.069 478.403 260.738 479.838 259.998C480.348 259.719 480.792 259.333 481.141 258.867C481.332 258.61 481.469 258.317 481.543 258.005C481.552 257.871 481.552 257.737 481.543 257.603V248.751C481.502 248.232 481.322 247.734 481.022 247.31C480.722 246.885 480.313 246.549 479.838 246.337L479.531 246.164C478.269 245.584 476.891 245.294 475.502 245.317C474.112 245.341 472.746 245.676 471.503 246.298C471.035 246.516 470.634 246.854 470.341 247.279C470.048 247.703 469.874 248.198 469.836 248.713Z" fill="#9F86C0"/>
<path opacity="0.35" d="M469.836 248.713V257.526C469.818 257.66 469.818 257.795 469.836 257.929C469.953 258.366 470.163 258.774 470.45 259.124C470.738 259.474 471.097 259.759 471.503 259.959C472.638 260.567 473.896 260.908 475.182 260.956C476.792 261.069 478.403 260.738 479.838 259.998C480.348 259.719 480.792 259.333 481.141 258.867C481.332 258.61 481.469 258.317 481.543 258.005C481.552 257.871 481.552 257.737 481.543 257.603V248.751C481.502 248.232 481.322 247.734 481.022 247.31C480.722 246.885 480.313 246.549 479.838 246.337L479.531 246.164C478.269 245.584 476.891 245.294 475.502 245.317C474.112 245.341 472.746 245.676 471.503 246.298C471.035 246.516 470.634 246.854 470.341 247.279C470.048 247.703 469.874 248.198 469.836 248.713Z" fill="black"/>
<path d="M469.837 248.674C469.837 250.59 472.462 252.085 475.719 252.104C478.976 252.123 481.62 250.609 481.62 248.732C481.62 246.854 479.015 245.34 475.757 245.321C472.5 245.302 469.837 246.797 469.837 248.674Z" fill="#9F86C0"/>
<path opacity="0.5" d="M473.63 248.693C473.63 249.364 474.569 249.9 475.718 249.92C476.868 249.939 477.826 249.383 477.826 248.712C477.826 248.042 476.887 247.505 475.737 247.505C474.588 247.505 473.649 248.023 473.63 248.693Z" fill="#9F86C0"/>
<path opacity="0.3" d="M473.63 248.693C473.63 249.364 474.569 249.9 475.718 249.92C476.868 249.939 477.826 249.383 477.826 248.712C477.826 248.042 476.887 247.505 475.737 247.505C474.588 247.505 473.649 248.023 473.63 248.693Z" fill="black"/>
<path d="M468.381 247.735V250.743C468.352 250.915 468.352 251.089 468.381 251.261C468.528 251.802 468.789 252.305 469.146 252.738C469.503 253.17 469.947 253.522 470.45 253.771C471.864 254.541 473.439 254.968 475.048 255.016C477.039 255.155 479.029 254.737 480.796 253.809C481.437 253.479 481.994 253.007 482.425 252.429C482.659 252.103 482.822 251.731 482.904 251.337C482.922 251.172 482.922 251.005 482.904 250.839V247.812C482.847 247.162 482.618 246.54 482.241 246.008C481.863 245.476 481.352 245.054 480.758 244.785L480.375 244.574C478.804 243.844 477.088 243.479 475.356 243.506C473.625 243.532 471.921 243.95 470.373 244.727C469.808 245.012 469.327 245.439 468.978 245.967C468.629 246.494 468.423 247.104 468.381 247.735V247.735Z" fill="#9F86C0"/>
<path opacity="0.2" d="M468.381 247.735V250.743C468.352 250.915 468.352 251.089 468.381 251.261C468.528 251.802 468.789 252.305 469.146 252.738C469.503 253.17 469.947 253.522 470.45 253.771C471.864 254.541 473.439 254.968 475.048 255.016C477.039 255.155 479.029 254.737 480.796 253.809C481.437 253.479 481.994 253.007 482.425 252.429C482.659 252.103 482.822 251.731 482.904 251.337C482.922 251.172 482.922 251.005 482.904 250.839V247.812C482.847 247.162 482.618 246.54 482.241 246.008C481.863 245.476 481.352 245.054 480.758 244.785L480.375 244.574C478.804 243.844 477.088 243.479 475.356 243.506C473.625 243.532 471.921 243.95 470.373 244.727C469.808 245.012 469.327 245.439 468.978 245.967C468.629 246.494 468.423 247.104 468.381 247.735V247.735Z" fill="black"/>
<path d="M468.381 247.697C468.381 250.035 471.657 251.951 475.719 251.97C479.781 251.989 483.077 250.054 483.096 247.774C483.115 245.494 479.819 243.539 475.757 243.52C471.696 243.501 468.4 245.36 468.381 247.697Z" fill="#9F86C0"/>
<path opacity="0.5" d="M473.132 247.735C473.132 248.559 474.281 249.23 475.738 249.249C477.194 249.268 478.343 248.578 478.343 247.754C478.343 246.93 477.194 246.241 475.738 246.241C474.281 246.241 473.132 246.988 473.132 247.735Z" fill="#9F86C0"/>
<path opacity="0.3" d="M473.132 247.735C473.132 248.559 474.281 249.23 475.738 249.249C477.194 249.268 478.343 248.578 478.343 247.754C478.343 246.93 477.194 246.241 475.738 246.241C474.281 246.241 473.132 246.988 473.132 247.735Z" fill="black"/>
<path d="M502.773 296.632C506.126 297.973 510.973 305.139 510.763 308.913L502.696 310.082L502.773 296.632Z" fill="#9A4A4D"/>
<path d="M504.689 303.932C508.367 301.288 513.387 307.86 509.287 314.355C512.429 314.451 512.161 320.218 509.287 324.031C512.295 324.663 511.069 331.158 507.869 334.454C510.322 334.454 510.015 340.068 504.689 343.267C501.815 344.973 497.025 342.75 503.098 335.795C497.542 337.577 498.845 328.131 503.654 326.215C496.335 328.323 499.822 318.551 502.16 316.769C497.408 315.121 497.216 309.278 504.689 303.932Z" fill="#B16668"/>
<path d="M298.163 350.548C307.264 323.992 316.403 306.614 316.652 298.184C316.652 298.184 307.915 249.824 306.823 239.842C303.968 213.861 308.624 201.656 313.855 198.897C320.19 196.422 326.657 194.299 333.225 192.536C351.217 187.401 376.987 186.788 393.733 187.017C400.017 187.343 401.952 187.573 401.952 187.573C410.145 193.668 417.712 200.561 424.542 208.151C437.839 223.594 442.016 233.998 439.87 249.881C438.711 256.808 435.661 263.279 431.056 268.582C430.022 276.246 428.355 298.069 428.355 298.069C428.566 306.614 430.271 318.378 434.505 338.995C434.505 338.995 445.254 398.946 450.37 441.769C414.924 472.425 337.92 474.341 304.543 460.795C294.082 413.929 289.043 377.104 298.163 350.548Z" fill="#9F86C0"/>
<path opacity="0.2" d="M298.163 350.548C307.264 323.992 316.403 306.614 316.652 298.184C316.652 298.184 307.915 249.824 306.823 239.842C303.968 213.861 308.624 201.656 313.855 198.897C320.19 196.422 326.657 194.299 333.225 192.536C351.217 187.401 376.987 186.788 393.733 187.017C400.017 187.343 401.952 187.573 401.952 187.573C410.145 193.668 417.712 200.561 424.542 208.151C437.839 223.594 442.016 233.998 439.87 249.881C438.711 256.808 435.661 263.279 431.056 268.582C430.022 276.246 428.355 298.069 428.355 298.069C428.566 306.614 430.271 318.378 434.505 338.995C434.505 338.995 445.254 398.946 450.37 441.769C414.924 472.425 337.92 474.341 304.543 460.795C294.082 413.929 289.043 377.104 298.163 350.548Z" fill="white"/>
<path d="M395.399 242.39C397.463 242.39 399.136 240.717 399.136 238.653C399.136 236.59 397.463 234.917 395.399 234.917C393.336 234.917 391.663 236.59 391.663 238.653C391.663 240.717 393.336 242.39 395.399 242.39Z" fill="#FAFAFA"/>
<path d="M399.136 266.11C401.199 266.11 402.872 264.437 402.872 262.374C402.872 260.31 401.199 258.637 399.136 258.637C397.072 258.637 395.399 260.31 395.399 262.374C395.399 264.437 397.072 266.11 399.136 266.11Z" fill="#FAFAFA"/>
<path d="M399.136 290.864C401.199 290.864 402.872 289.192 402.872 287.128C402.872 285.065 401.199 283.392 399.136 283.392C397.072 283.392 395.399 285.065 395.399 287.128C395.399 289.192 397.072 290.864 399.136 290.864Z" fill="#FAFAFA"/>
<path d="M398.044 327.92C400.107 327.92 401.78 326.247 401.78 324.184C401.78 322.12 400.107 320.448 398.044 320.448C395.98 320.448 394.308 322.12 394.308 324.184C394.308 326.247 395.98 327.92 398.044 327.92Z" fill="#FAFAFA"/>
<path d="M403.256 351.697C403.256 352.455 403.031 353.196 402.61 353.826C402.189 354.457 401.59 354.948 400.89 355.238C400.19 355.528 399.42 355.604 398.676 355.456C397.933 355.308 397.25 354.943 396.714 354.407C396.178 353.871 395.813 353.188 395.665 352.445C395.518 351.702 395.593 350.931 395.883 350.231C396.174 349.531 396.665 348.932 397.295 348.511C397.925 348.09 398.666 347.865 399.424 347.865C400.44 347.865 401.415 348.269 402.133 348.988C402.852 349.706 403.256 350.681 403.256 351.697Z" fill="#FAFAFA"/>
<path d="M401.78 380.016C403.844 380.016 405.516 378.343 405.516 376.28C405.516 374.216 403.844 372.543 401.78 372.543C399.717 372.543 398.044 374.216 398.044 376.28C398.044 378.343 399.717 380.016 401.78 380.016Z" fill="#FAFAFA"/>
<path d="M405.535 405.326C407.598 405.326 409.271 403.654 409.271 401.59C409.271 399.527 407.598 397.854 405.535 397.854C403.472 397.854 401.799 399.527 401.799 401.59C401.799 403.654 403.472 405.326 405.535 405.326Z" fill="#FAFAFA"/>
<path d="M409.271 434.105C411.335 434.105 413.008 432.432 413.008 430.369C413.008 428.305 411.335 426.632 409.271 426.632C407.208 426.632 405.535 428.305 405.535 430.369C405.535 432.432 407.208 434.105 409.271 434.105Z" fill="#FAFAFA"/>
<path opacity="0.2" d="M417.223 400.268C414.732 381.434 412.03 362.58 409.961 343.727C408.246 324.814 407.919 305.801 408.984 286.841C409.156 282.108 409.367 277.261 409.31 272.567C409.268 267.791 408.987 263.021 408.466 258.273C407.944 253.534 407.074 248.84 405.861 244.229C404.724 239.596 402.984 235.132 400.688 230.951C402.811 235.212 404.406 239.716 405.439 244.363C406.517 248.984 407.253 253.678 407.643 258.407C408.086 263.127 408.291 267.865 408.256 272.605C408.256 277.338 407.949 282.07 407.7 286.822C406.448 305.848 406.653 324.943 408.313 343.938C409.367 353.403 410.67 362.81 411.934 372.237C413.199 381.664 414.521 391.09 415.958 400.498C418.736 419.313 421.61 438.109 424.714 456.867L417.223 400.268Z" fill="black"/>
<path d="M316.652 298.184C333.092 306.71 401.569 313.512 428.374 298.069L428.892 305.924C428.892 305.924 418.009 315.964 372.772 316.539C327.535 317.114 315.292 304.851 315.292 304.851L316.652 298.184Z" fill="#37474F"/>
<path d="M334.356 192.171L321.174 195.62C321.174 195.62 303.374 201.062 297.55 237.217C291.323 275.862 288.717 328.246 288.717 328.246H302.723C302.723 328.246 305.099 281.572 311.536 241.892C317.169 207.231 334.356 192.171 334.356 192.171Z" fill="#E0E0E0"/>
<path d="M255.877 306.787C255.877 306.787 257.39 298.03 276.091 300.54C292.932 302.82 371.258 323.13 366.143 345.298C366.143 345.298 354.359 365.014 308.912 351.276C259.019 336.197 255.053 313.186 255.877 306.787Z" fill="#E0E0E0"/>
<path d="M259.076 213.209C258.069 217.222 258.482 221.46 260.245 225.203C261.778 228.69 264.192 232.101 263.866 235.894C263.372 238.426 262.397 240.839 260.992 243.003C257.16 250.226 256.413 259.864 261.835 265.995C264.499 268.965 268.446 270.9 270.055 274.54C272.45 279.962 268.56 285.921 267.468 291.784C266.824 295.761 267.483 299.839 269.348 303.41C271.213 306.981 274.183 309.853 277.815 311.596C282.93 313.914 289.138 313.876 293.583 317.344C296.898 319.93 298.757 324.184 302.378 326.31C304.08 327.28 306.034 327.718 307.987 327.568C309.94 327.418 311.804 326.686 313.337 325.467C315.048 323.882 316.456 321.999 317.495 319.911L325.159 306.633C328.512 300.885 331.923 293.815 329.125 287.703C326.73 282.472 320.503 279.905 317.878 274.77C317.718 274.46 317.578 274.14 317.457 273.812C316.492 271.007 316.158 268.024 316.48 265.075C316.918 262.325 317.148 259.545 317.169 256.76C316.939 254.31 316.123 251.951 314.789 249.884C313.455 247.816 311.643 246.1 309.505 244.88C307.11 243.539 304.198 242.735 302.761 240.416C301.923 238.661 301.472 236.747 301.439 234.802C300.673 228.939 296.956 223 291.208 221.716C288.449 221.103 285.46 221.563 282.911 220.183C280.363 218.804 279.079 215.566 277.374 213.037C275.275 210.033 272.084 207.97 268.484 207.289C266.783 206.959 265.029 207.044 263.368 207.538C260.82 208.151 259.785 210.776 259.076 213.209Z" fill="#9F86C0"/>
<path opacity="0.35" d="M259.076 213.209C258.069 217.222 258.482 221.46 260.245 225.203C261.778 228.69 264.192 232.101 263.866 235.894C263.372 238.426 262.397 240.839 260.992 243.003C257.16 250.226 256.413 259.864 261.835 265.995C264.499 268.965 268.446 270.9 270.055 274.54C272.45 279.962 268.56 285.921 267.468 291.784C266.824 295.761 267.483 299.839 269.348 303.41C271.213 306.981 274.183 309.853 277.815 311.596C282.93 313.914 289.138 313.876 293.583 317.344C296.898 319.93 298.757 324.184 302.378 326.31C304.08 327.28 306.034 327.718 307.987 327.568C309.94 327.418 311.804 326.686 313.337 325.467C315.048 323.882 316.456 321.999 317.495 319.911L325.159 306.633C328.512 300.885 331.923 293.815 329.125 287.703C326.73 282.472 320.503 279.905 317.878 274.77C317.718 274.46 317.578 274.14 317.457 273.812C316.492 271.007 316.158 268.024 316.48 265.075C316.918 262.325 317.148 259.545 317.169 256.76C316.939 254.31 316.123 251.951 314.789 249.884C313.455 247.816 311.643 246.1 309.505 244.88C307.11 243.539 304.198 242.735 302.761 240.416C301.923 238.661 301.472 236.747 301.439 234.802C300.673 228.939 296.956 223 291.208 221.716C288.449 221.103 285.46 221.563 282.911 220.183C280.363 218.804 279.079 215.566 277.374 213.037C275.275 210.033 272.084 207.97 268.484 207.289C266.783 206.959 265.029 207.044 263.368 207.538C260.82 208.151 259.785 210.776 259.076 213.209Z" fill="black"/>
<path d="M300.711 277.031C298.253 267.907 294.607 259.147 289.867 250.973C289.637 250.59 289.368 251.357 289.445 251.567C292.472 259.749 295.729 267.777 298.163 276.169C300.436 284.158 302.19 292.286 303.413 300.502C305.949 317.989 306.93 335.666 306.344 353.326C306.204 358.333 305.986 363.328 305.693 368.309C305.157 372.953 305.099 377.64 305.52 382.296C305.52 382.928 306.536 384.02 306.976 382.986C308.586 379.154 308.509 374.21 308.758 370.072C309.007 365.933 309.237 361.354 309.391 356.986C309.697 347.885 309.735 338.784 309.391 329.702C308.702 311.852 305.787 294.158 300.711 277.031V277.031Z" fill="#263238"/>
<path d="M234.628 253.081C233.9 256.453 230.413 258.542 229.091 261.741C228.698 262.724 228.518 263.779 228.565 264.836C228.611 265.893 228.882 266.928 229.359 267.872C231.505 272.011 237.176 273.448 239.112 277.682C240.913 281.514 238.824 286.189 239.533 290.424C239.822 292.149 240.563 293.767 241.68 295.113C242.798 296.46 244.252 297.486 245.894 298.088C248.5 299.007 251.642 298.835 253.731 300.559C257.812 303.836 255.532 310.829 258.463 315.14C261.74 320.007 269.346 318.972 274.194 322.191C275.502 323.381 276.989 324.357 278.6 325.084C279.942 325.327 281.326 325.148 282.561 324.571C283.796 323.995 284.822 323.049 285.498 321.865C286.796 319.477 287.787 316.934 288.449 314.297C289.809 310.35 291.917 306.633 293.085 302.667C294.254 298.701 294.369 294.007 291.936 290.615C289.502 287.224 285.345 285.768 283.467 282.223C280.248 276.15 285.613 267.432 281.091 262.239C278.773 259.576 274.634 259.059 272.45 256.3C268.81 251.778 272.124 243.539 267.43 240.148C264.518 238.04 260.437 239.382 256.892 238.807C253.742 238.025 250.825 236.501 248.385 234.362C245.943 232.216 242.938 230.813 239.725 230.319C237.821 230.33 235.979 230.998 234.509 232.209C233.04 233.42 232.033 235.1 231.658 236.967C231.138 239.673 231.501 242.473 232.693 244.957C234.186 247.39 234.864 250.236 234.628 253.081V253.081Z" fill="#9F86C0"/>
<path opacity="0.2" d="M234.628 253.081C233.9 256.453 230.413 258.542 229.091 261.741C228.698 262.724 228.518 263.779 228.565 264.836C228.611 265.893 228.882 266.928 229.359 267.872C231.505 272.011 237.176 273.448 239.112 277.682C240.913 281.514 238.824 286.189 239.533 290.424C239.822 292.149 240.563 293.767 241.68 295.113C242.798 296.46 244.252 297.486 245.894 298.088C248.5 299.007 251.642 298.835 253.731 300.559C257.812 303.836 255.532 310.829 258.463 315.14C261.74 320.007 269.346 318.972 274.194 322.191C275.502 323.381 276.989 324.357 278.6 325.084C279.942 325.327 281.326 325.148 282.561 324.571C283.796 323.995 284.822 323.049 285.498 321.865C286.796 319.477 287.787 316.934 288.449 314.297C289.809 310.35 291.917 306.633 293.085 302.667C294.254 298.701 294.369 294.007 291.936 290.615C289.502 287.224 285.345 285.768 283.467 282.223C280.248 276.15 285.613 267.432 281.091 262.239C278.773 259.576 274.634 259.059 272.45 256.3C268.81 251.778 272.124 243.539 267.43 240.148C264.518 238.04 260.437 239.382 256.892 238.807C253.742 238.025 250.825 236.501 248.385 234.362C245.943 232.216 242.938 230.813 239.725 230.319C237.821 230.33 235.979 230.998 234.509 232.209C233.04 233.42 232.033 235.1 231.658 236.967C231.138 239.673 231.501 242.473 232.693 244.957C234.186 247.39 234.864 250.236 234.628 253.081V253.081Z" fill="black"/>
<path d="M285 325.103C280.133 306.518 273.945 287.971 264.671 271.091C262.161 266.55 259.498 262.086 256.624 257.679C253.75 253.273 251.068 248.808 247.159 245.628C247.025 245.532 246.967 245.819 247.006 245.896C249.133 250.169 252.064 253.962 254.536 258.043C257.007 262.125 259.402 266.397 261.548 270.727C265.595 278.84 269.228 287.154 272.431 295.635C278.886 313.596 284.009 332.007 287.759 350.72C290.212 362.025 292.3 373.387 294.829 384.672C295.136 386.013 296.496 385.342 296.343 384.174C293.8 364.266 290.012 344.537 285 325.103V325.103Z" fill="#37474F"/>
<path d="M290.442 295.865C286.035 295.693 278.371 295.559 272.719 304.87C266.262 315.447 270.362 329.778 278.083 336.408C287.797 344.704 304.064 346.697 314.487 338.86C325.983 330.181 328.551 311.902 322.151 303.203C315.752 294.505 304.294 295.712 301.267 296.651C296.649 298.088 293.929 295.999 290.442 295.865Z" fill="#F28F8F"/>
<path opacity="0.1" d="M308.701 336.025C296.784 341.14 281.513 337.749 272.814 329.683C274.146 332.227 275.932 334.506 278.083 336.408C287.798 344.704 304.064 346.697 314.487 338.86C323.244 332.269 326.788 320.179 325.179 310.925C325.389 313.492 321.807 330.392 308.701 336.025Z" fill="black"/>
<g opacity="0.2">
<path d="M285.537 299.314C282.739 298.816 278.39 300.924 275.957 304.564C273.003 309.428 271.662 315.101 272.125 320.773C272.872 330.813 281.935 336.887 282.931 336.101C283.927 335.316 277.604 328.246 282.356 318.762C287.108 309.277 290.097 300.157 285.537 299.314Z" fill="white"/>
</g>
<g opacity="0.2">
<path d="M283.199 300.636C280.229 301.326 276.474 305.618 275.305 308.779C274.136 311.94 274.328 314.201 274.749 314.623C275.478 315.389 281.839 310.235 283.985 307.859C287.012 304.564 287.97 299.582 283.199 300.636Z" fill="white"/>
</g>
<path d="M294.178 304.755C292.76 303.376 291.381 302.629 290.442 304.391C289.503 306.154 293.316 309.45 297.953 308.549C302.589 307.649 304.448 304.851 304.505 303.357C303.167 305.056 301.225 306.175 299.083 306.48C297.297 306.494 295.562 305.884 294.178 304.755Z" fill="#B16668"/>
<path d="M298.067 307.399C298.401 303.19 298.111 298.955 297.205 294.83C296.304 290.734 294.319 286.956 291.457 283.89C289.928 283.157 288.265 282.747 286.571 282.683C284.253 282.491 281.34 283.794 282.011 284.752C282.682 285.71 285.958 286.668 289.675 290.883C293.392 295.099 296.553 302.801 296.151 307.208C296.419 307.42 296.741 307.551 297.081 307.585C297.421 307.619 297.763 307.554 298.067 307.399V307.399Z" fill="#37474F"/>
<path d="M291.361 283.814L291.15 283.699C289.724 283.109 288.208 282.765 286.667 282.683C285.083 282.541 283.503 282.999 282.241 283.967C282.049 284.293 282.509 284.791 284.559 285.27C286.586 285.768 288.702 285.768 290.729 285.27C291.629 285.04 292.012 284.273 291.361 283.814Z" fill="#455A64"/>
<path opacity="0.1" d="M295.845 299.793C294.504 294.39 289.369 289.504 285.767 287.224C287.262 288.277 288.626 289.506 289.829 290.884C293.546 295.061 296.707 302.801 296.305 307.208C296.572 307.42 296.895 307.551 297.234 307.585C297.574 307.619 297.916 307.555 298.221 307.4C298.221 307.4 298.374 305.809 298.355 303.568C297.876 305.618 296.975 304.775 295.845 299.793Z" fill="black"/>
<path d="M297.761 298.184C299.507 298.715 301.365 298.761 303.135 298.316C304.905 297.871 306.52 296.951 307.807 295.657C309.094 294.362 310.003 292.741 310.437 290.969C310.872 289.196 310.815 287.338 310.272 285.595C308.701 285.159 307.047 285.105 305.45 285.438C303.854 285.771 302.36 286.482 301.095 287.511C299.722 288.891 298.702 290.582 298.122 292.44C297.542 294.297 297.418 296.268 297.761 298.184V298.184Z" fill="#9F86C0"/>
<path opacity="0.3" d="M297.761 298.184C299.507 298.715 301.365 298.761 303.135 298.316C304.905 297.871 306.52 296.951 307.807 295.657C309.094 294.362 310.003 292.741 310.437 290.969C310.872 289.196 310.815 287.338 310.272 285.595C308.701 285.159 307.047 285.105 305.45 285.438C303.854 285.771 302.36 286.482 301.095 287.511C299.722 288.891 298.702 290.582 298.122 292.44C297.542 294.297 297.418 296.268 297.761 298.184V298.184Z" fill="black"/>
<path d="M310.348 285.595C308.777 285.159 307.123 285.105 305.527 285.438C303.93 285.771 302.436 286.482 301.171 287.511C299.804 288.887 298.788 290.571 298.208 292.422C297.628 294.272 297.5 296.235 297.837 298.145C301.209 290.328 310.348 285.595 310.348 285.595Z" fill="#9F86C0"/>
<path d="M295.615 381.759C299.197 351.103 306.9 312.228 324.355 282.702C341.809 253.177 359.168 248.904 364.82 270.612C370.473 292.321 356.064 354.916 345.546 381.127C317.84 450.084 291.61 415.826 295.615 381.759Z" fill="#F0997A"/>
<g opacity="0.8">
<path d="M358.938 273.64C358.938 273.64 358.383 273.946 357.386 274.406C356.39 274.866 354.991 275.479 353.305 276.169C352.481 276.533 351.562 276.897 350.623 277.28C349.684 277.663 348.707 278.123 347.653 278.487L341.311 281.169L338.111 282.587C337.058 283.066 336.004 283.488 335.007 283.967L332.095 285.289C331.175 285.749 330.294 286.151 329.47 286.515C327.842 287.301 326.405 287.875 325.427 288.316L323.799 288.968C323.799 288.968 324.144 288.431 324.814 287.55C325.746 286.347 326.765 285.214 327.861 284.158C328.551 283.526 329.298 282.817 330.141 282.242C331.018 281.554 331.933 280.914 332.881 280.326C333.881 279.634 334.917 278.995 335.985 278.41C337.073 277.804 338.192 277.254 339.338 276.763C340.506 276.284 341.675 275.805 342.844 275.441C344.013 275.077 345.201 274.77 346.331 274.463C348.415 273.975 350.537 273.661 352.673 273.525C354.759 273.321 356.861 273.36 358.938 273.64V273.64Z" fill="#FFBDA7"/>
</g>
<g opacity="0.8">
<path d="M336.846 385.247C336.846 385.247 336.272 385.553 335.275 386.013C334.279 386.473 332.9 387.086 331.213 387.776L328.531 388.887C327.573 389.251 326.615 389.711 325.561 390.094L319.2 392.777L316.02 394.194C314.966 394.673 313.912 395.095 312.916 395.574L310.003 396.896C309.084 397.356 308.202 397.758 307.359 398.103C305.75 398.908 304.313 399.483 303.336 399.923L301.707 400.575C301.707 400.575 302.052 400.038 302.723 399.157C303.643 397.945 304.662 396.811 305.769 395.766C306.459 395.133 307.206 394.424 308.049 393.85C308.923 393.157 309.838 392.517 310.789 391.934C311.785 391.301 312.705 390.611 313.893 390.018C315.081 389.424 316.115 388.906 317.246 388.37C318.376 387.833 319.564 387.431 320.752 387.067C321.94 386.703 323.109 386.396 324.239 386.09C326.323 385.601 328.445 385.287 330.581 385.151C332.666 384.941 334.769 384.974 336.846 385.247Z" fill="#FFBDA7"/>
</g>
<g opacity="0.8">
<path d="M358.766 292.493C358.766 292.493 358.057 292.876 356.85 293.451C355.643 294.026 353.938 294.907 351.869 295.846C347.768 297.762 342.289 300.157 336.847 302.475L321.73 308.683L316.614 310.772C315.369 311.289 314.698 311.538 314.698 311.538C315.096 310.935 315.524 310.353 315.982 309.794C316.476 309.111 317.027 308.47 317.63 307.878C318.341 307.07 319.116 306.321 319.948 305.637C324.3 301.896 329.231 298.887 334.548 296.727C339.809 294.497 345.366 293.045 351.045 292.416C352.953 292.2 354.875 292.136 356.793 292.225C357.962 292.359 358.766 292.493 358.766 292.493Z" fill="#FFBDA7"/>
</g>
<g opacity="0.8">
<path d="M352.979 315.236C352.979 315.236 352.271 315.677 351.063 316.328C349.856 316.979 348.189 317.899 346.158 318.953C342.097 321.041 336.693 323.494 331.271 325.793L327.19 327.441C325.887 328.035 324.527 328.495 323.243 329.031L316.116 331.752L310.885 333.668C309.601 334.128 308.777 334.358 308.777 334.358C308.777 334.358 309.18 333.649 310.004 332.442C310.476 331.762 311.001 331.122 311.575 330.526C312.277 329.692 313.032 328.905 313.836 328.169C318.116 324.278 323.053 321.177 328.416 319.01C333.698 316.759 339.306 315.368 345.028 314.891C346.941 314.742 348.863 314.742 350.776 314.891C351.516 314.965 352.252 315.08 352.979 315.236V315.236Z" fill="#FFBDA7"/>
</g>
<g opacity="0.8">
<path d="M341.388 362.465C341.388 362.465 340.775 362.868 339.663 363.443C338.552 364.017 337.077 364.86 335.257 365.818C331.597 367.734 326.75 369.899 321.845 371.95L318.185 373.444C317.016 373.981 315.79 374.383 314.641 374.862L308.26 377.276L303.547 378.962C302.397 379.384 301.631 379.575 301.631 379.575C301.963 378.999 302.328 378.443 302.723 377.908C303.148 377.278 303.622 376.682 304.141 376.126C304.772 375.381 305.45 374.677 306.172 374.019C310.011 370.519 314.442 367.729 319.258 365.78C324.016 363.774 329.059 362.526 334.203 362.082C335.931 361.941 337.667 361.941 339.395 362.082C340.066 362.172 340.732 362.3 341.388 362.465V362.465Z" fill="#FFBDA7"/>
</g>
<g opacity="0.8">
<path d="M348.094 338.42C348.094 338.42 347.404 338.86 346.178 339.512C344.951 340.163 343.284 341.083 341.253 342.137C337.211 344.225 331.808 346.678 326.366 348.977L322.304 350.624C320.982 351.218 319.622 351.678 318.338 352.215L311.172 354.935L305.922 356.851C304.639 357.311 303.834 357.522 303.834 357.522C304.196 356.859 304.599 356.219 305.041 355.606C305.515 354.923 306.047 354.281 306.631 353.69C307.328 352.846 308.083 352.052 308.892 351.314C313.172 347.436 318.101 344.342 323.454 342.175C328.736 339.926 334.344 338.535 340.066 338.056C341.978 337.897 343.901 337.897 345.814 338.056C346.58 338.133 347.341 338.254 348.094 338.42Z" fill="#FFBDA7"/>
</g>
<path d="M255.877 306.787C256.279 314.719 282.414 337.232 306.747 343.842C333.226 351.008 360.74 349.59 366.43 342.635C369.668 392.202 372.178 437.075 371.009 460.795C369.841 484.515 360.395 491.968 339.951 495.398C319.507 498.827 262.985 466.658 250.186 448.628C237.388 430.599 236.315 411.419 239.993 383.484C244.113 352.694 255.877 306.787 255.877 306.787Z" fill="#F0F0F0"/>
<path opacity="0.1" d="M358.076 346.831C358.268 366.566 358.747 420.252 358.498 435.465C358.191 454.242 350.01 479.533 323.799 481.449C297.588 483.365 254.823 453.935 245.684 441.213C247.024 443.742 248.528 446.18 250.186 448.513C262.985 466.562 319.507 498.712 339.951 495.283C360.395 491.853 369.879 484.438 371.009 460.68C372.14 436.921 369.668 392.087 366.43 342.52C364.13 344.747 361.224 346.246 358.076 346.831Z" fill="black"/>
<path d="M280.689 434.392C280.689 432.744 280.803 429.411 280.689 427.514C280.66 425.742 280.268 423.994 279.539 422.379C278.751 420.862 277.722 419.484 276.492 418.298C276.041 417.849 275.532 417.463 274.979 417.148C274.608 416.877 274.153 416.748 273.695 416.784C273.254 416.784 273.235 416.976 273.159 417.436C273.172 418.023 273.249 418.608 273.389 419.179C273.464 419.703 273.646 420.205 273.925 420.654C274.193 420.98 274.097 420.654 274.404 420.827C274.711 420.999 274.96 420.827 275.305 421.038C275.674 421.199 276.006 421.434 276.282 421.727C277.206 422.719 277.737 424.013 277.776 425.368C277.795 425.668 277.795 425.969 277.776 426.268C276.646 425.559 275.209 424.027 273.772 424.716C272.335 425.406 272.411 426.977 272.201 428.433C272.079 430.082 272.228 431.738 272.641 433.338C273.019 434.679 273.754 435.891 274.768 436.845C274.978 437.092 275.244 437.285 275.544 437.409C275.844 437.532 276.169 437.582 276.492 437.554C277.24 437.554 277.259 437.132 277.757 436.864C277.809 437.443 277.892 438.018 278.006 438.588C278.058 438.958 278.25 439.295 278.543 439.527C278.946 439.869 279.416 440.123 279.922 440.274C280.363 440.37 280.708 440.696 280.784 440.006C280.825 439.426 280.825 438.843 280.784 438.263C280.669 437.228 280.631 436.04 280.689 434.392ZM277.623 433.664C277.623 434.181 277.278 434.201 276.857 434.258C276.681 434.301 276.496 434.292 276.325 434.23C276.155 434.169 276.006 434.059 275.899 433.913C275.457 433.523 275.143 433.009 274.998 432.438C274.809 431.752 274.737 431.04 274.787 430.33C275.094 428.223 276.109 428.165 277.776 429.257C277.899 430.727 277.847 432.206 277.623 433.664V433.664ZM271.338 399.31L267.353 396.647C268.905 393.313 270.476 390.018 271.722 386.55C271.763 386.36 271.763 386.164 271.722 385.975C271.685 385.429 271.621 384.886 271.53 384.346C271.494 383.938 271.363 383.544 271.147 383.197C268.733 381.645 266.491 380.284 264.019 378.943C263.445 378.637 263.425 379.863 263.464 380.112C263.481 380.29 263.481 380.47 263.464 380.648C263.464 381.357 263.559 382.22 264.115 382.564C265.399 383.446 266.683 384.078 267.947 384.921C266.395 388.274 264.862 391.608 263.617 395.114C263.582 395.291 263.582 395.474 263.617 395.651C263.617 395.957 263.809 396.877 263.866 397.222C263.924 397.567 264.077 398.237 264.268 398.352C266.721 399.923 268.963 401.494 271.319 403.123C271.856 403.487 271.932 402.165 271.894 401.897C271.856 401.629 271.894 401.571 271.894 401.265C271.913 400.833 271.874 400.402 271.779 399.981C271.712 399.714 271.556 399.478 271.338 399.31V399.31ZM269.767 414.236C269.461 413.968 268.522 413.412 268.484 413.872C268.177 416.382 267.947 418.604 267.794 421.785C267.679 424.391 267.794 425.061 267.794 427.131C267.794 426.996 267.794 427.035 267.794 426.996C267.487 425.08 267.2 422.915 267.008 421.248C266.663 418.01 266.376 415.232 265.935 411.937C265.935 411.285 265.207 410.806 264.882 410.5C264.556 410.193 264.575 410.366 264.326 410.097C264.077 409.829 263.368 409.618 263.31 410.097C263.042 412.492 262.774 416.094 262.601 418.145C262.429 420.195 262.429 420.904 262.257 422.111C261.801 420.54 261.493 418.93 261.337 417.301C261.011 414.983 260.551 410.883 260.475 408.296C260.475 407.779 259.823 407.262 259.019 406.725C258.559 406.419 257.524 405.71 257.601 406.898C257.601 407.108 257.601 407.76 257.831 410.116C258.401 415.09 259.245 420.028 260.36 424.908C260.489 425.319 260.683 425.708 260.935 426.058C261.121 426.286 261.333 426.491 261.567 426.671C261.797 426.824 262.103 427.092 262.333 427.226C262.563 427.36 262.755 427.571 263.004 427.514C263.253 427.456 263.234 427.514 263.291 427.131C263.866 424.142 264.038 422.264 264.364 419.16C264.364 418.911 264.805 415.769 264.843 415.635C264.882 415.5 264.843 415.481 264.843 415.635C264.843 415.788 264.977 417.416 265.341 420.923C265.705 424.429 266.031 426.824 266.472 429.468C266.536 429.825 266.687 430.161 266.912 430.445C267.096 430.711 267.322 430.944 267.583 431.135L268.33 431.729C268.599 431.94 269.116 432.265 269.212 431.729C269.567 426.633 270.207 421.56 271.128 416.535C271.148 416.318 271.148 416.1 271.128 415.884C270.821 415.228 270.353 414.661 269.767 414.236V414.236ZM309.103 452.556C308.777 452.307 308.873 452.556 308.547 452.556C308.221 452.556 308.068 452.747 307.666 452.556C307.263 452.364 307.053 452.556 306.535 452.096C305.896 451.6 305.405 450.937 305.118 450.18C304.806 449.011 304.651 447.807 304.658 446.597C306.286 447.593 307.857 448.666 309.524 449.644C309.735 449.778 310.022 449.433 310.157 449.28C310.375 449.02 310.526 448.711 310.597 448.379C310.214 443.8 310.597 438.339 305.941 435.982C301.286 433.626 300.979 439.355 301.343 443.148C301.476 445.802 301.913 448.431 302.646 450.985C303.424 452.97 304.754 454.692 306.478 455.947C306.948 456.268 307.474 456.496 308.03 456.618C308.49 456.771 308.988 456.771 309.448 456.618C309.927 456.445 310.022 456.177 310.08 455.679C310.054 455.106 309.951 454.539 309.773 453.993C309.709 453.432 309.475 452.904 309.103 452.479V452.556ZM304.888 439.738C305.29 438.876 305.482 438.818 306.21 439.259C306.558 439.496 306.851 439.805 307.07 440.165C307.288 440.526 307.426 440.929 307.474 441.347C307.77 442.68 307.899 444.045 307.857 445.409C306.746 444.739 305.616 444.049 304.504 443.321C304.394 442.088 304.525 440.845 304.888 439.661V439.738ZM290.096 394.195C289.272 393.965 288.18 394.884 288.027 395.861C287.961 395.545 287.916 395.225 287.893 394.903C287.845 394.469 287.762 394.04 287.644 393.62C287.616 393.443 287.548 393.275 287.445 393.129C287.342 392.983 287.207 392.862 287.05 392.777C286.613 392.507 286.122 392.337 285.613 392.279C285.172 392.279 284.846 391.934 284.808 392.662C284.829 393.245 284.88 393.827 284.961 394.405C284.961 395.536 285.057 396.436 284.961 398.352C284.961 401.878 284.501 406.993 284.31 410.883C284.31 411.783 284.865 412.301 285.574 412.799C285.722 412.887 285.875 412.964 286.034 413.029C286.686 413.278 287.414 413.565 287.471 412.588C287.72 408.373 287.682 403.928 288.123 399.751C288.166 399.315 288.371 398.912 288.697 398.62C289.004 398.237 289.33 398.352 289.655 398.448C289.981 398.544 290.134 398.831 290.383 398.965C290.633 399.099 290.613 399.406 290.939 399.387C291.265 399.368 291.322 398.85 291.38 398.448C291.485 397.899 291.53 397.34 291.514 396.781C291.548 396.281 291.435 395.781 291.188 395.344C290.939 394.788 290.958 394.52 290.096 394.195ZM301.592 417.895C302.654 415.744 303.149 413.356 303.029 410.96C303.178 408.229 302.854 405.494 302.071 402.874C301.767 401.9 301.271 400.997 300.613 400.217C299.955 399.437 299.148 398.797 298.239 398.333C296.438 397.452 295.576 397.279 294.407 399.08C293.309 401.207 292.799 403.588 292.932 405.978C292.799 408.707 293.149 411.437 293.966 414.044C294.591 416.016 295.968 417.661 297.798 418.624C299.523 419.524 300.385 419.696 301.592 417.895V417.895ZM299.274 413.891C298.891 414.983 298.737 415.213 297.818 414.772C296.898 414.332 296.687 413.699 296.4 412.492C296.133 410.846 296.043 409.176 296.131 407.511C296.118 405.979 296.305 404.453 296.687 402.97C297.109 401.878 297.262 401.686 298.182 402.108C299.101 402.529 299.312 403.142 299.58 404.349C299.833 405.984 299.91 407.641 299.81 409.293C299.83 410.842 299.649 412.388 299.274 413.891V413.891ZM299.025 447.804C298.795 447.574 298.814 447.804 298.641 447.613C298.469 447.421 298.373 447.613 298.162 447.383C297.952 447.153 297.741 447.095 297.645 446.597C297.515 446.116 297.45 445.62 297.454 445.122C297.454 441.788 297.243 438.033 297.166 434.584C297.511 434.756 298.009 435.12 298.335 435.274C298.661 435.427 298.699 435.484 298.891 435.274C299.082 435.063 299.025 434.488 299.044 434.201C299.063 433.913 299.044 433.875 299.044 433.53C299.027 433.095 298.956 432.664 298.833 432.246C298.718 431.901 298.526 431.786 298.277 431.518C298.028 431.25 297.224 431.135 297.128 430.752C297.017 429.555 296.972 428.352 296.994 427.15C296.984 426.758 296.874 426.376 296.672 426.04C296.471 425.704 296.185 425.426 295.844 425.234C295.664 425.065 295.448 424.94 295.212 424.87C294.79 424.716 294.139 424.391 294.062 425.368C293.986 426.345 293.89 427.763 293.736 428.702C293.736 428.874 293.411 428.472 293.277 428.472C293.143 428.472 292.893 428.28 292.759 428.568C292.64 428.918 292.594 429.29 292.625 429.66C292.625 429.966 292.625 429.985 292.625 430.311C292.643 430.732 292.707 431.15 292.817 431.557C292.938 431.832 293.121 432.074 293.353 432.265C293.507 432.438 293.813 432.38 293.832 432.629C293.986 435.791 294.081 440.064 294.139 443.014C294.17 444.645 294.481 446.259 295.059 447.785C295.48 448.889 296.22 449.843 297.185 450.525C297.933 451.196 298.182 451.023 298.814 451.215C299.446 451.406 299.504 450.985 299.599 450.525C299.622 450.017 299.577 449.508 299.465 449.011C299.425 448.578 299.273 448.162 299.025 447.804V447.804ZM282.221 401.226C282.451 400.942 282.608 400.607 282.681 400.249C282.317 395.708 282.681 390.037 278.159 387.661C273.638 385.285 273.293 391.263 273.446 395.018C273.46 397.749 273.827 400.467 274.538 403.104C275.256 405.162 276.497 406.998 278.14 408.43C278.605 408.765 279.133 408.999 279.692 409.12C280.169 409.293 280.691 409.293 281.168 409.12C281.376 409.047 281.555 408.908 281.679 408.726C281.803 408.543 281.866 408.325 281.857 408.105C281.859 407.497 281.782 406.892 281.627 406.304C281.567 405.775 281.354 405.276 281.014 404.867C280.689 404.579 280.784 404.867 280.459 404.867C280.133 404.867 279.96 405.077 279.539 404.867C279.117 404.656 278.907 404.867 278.408 404.388C277.736 403.826 277.244 403.08 276.991 402.242C276.682 400.988 276.528 399.701 276.531 398.41C278.198 399.464 279.807 400.575 281.532 401.571C281.742 401.782 282.068 401.399 282.221 401.226V401.226ZM276.473 395.172C276.442 393.932 276.617 392.695 276.991 391.512C277.393 390.65 277.585 390.554 278.313 390.995C278.657 391.24 278.943 391.557 279.152 391.924C279.36 392.292 279.486 392.7 279.52 393.122C279.764 394.5 279.861 395.9 279.807 397.298C278.715 396.609 277.585 395.9 276.492 395.172H276.473ZM288.487 434.239C287.931 433.473 287.567 433.089 287.165 432.572C286.898 432.215 286.661 431.837 286.456 431.442C286.243 431.03 286.113 430.581 286.072 430.12C286.072 429.698 285.958 429.353 286.302 429.104C286.647 428.855 286.877 429.104 287.26 429.104C287.695 429.356 288.09 429.672 288.429 430.043C288.736 430.292 288.793 430.675 289.157 430.752C289.521 430.828 289.636 430.464 289.694 430.024C289.853 429.549 289.899 429.044 289.828 428.548C289.633 427.796 289.204 427.125 288.602 426.632C287.902 426.03 287.113 425.539 286.264 425.176C285.364 424.851 284.252 424.391 283.409 425.176C283.053 425.653 282.807 426.202 282.688 426.785C282.568 427.368 282.579 427.97 282.719 428.548C282.872 429.794 283.215 431.009 283.735 432.15C284.321 433.255 285.021 434.295 285.823 435.254C286.456 436.078 287.011 436.787 287.452 437.496C287.803 438.081 288.025 438.734 288.103 439.412C288.173 439.627 288.187 439.855 288.143 440.077C288.1 440.298 288 440.505 287.854 440.677C287.529 441.041 287.184 440.677 286.839 440.677C286.488 440.496 286.175 440.249 285.919 439.949C285.632 439.68 285.364 439.221 285.114 438.971C284.865 438.722 284.942 438.435 284.597 438.358C284.252 438.282 284.003 438.492 283.888 438.952C283.773 439.412 283.409 439.719 283.582 440.428C283.811 441.292 284.268 442.079 284.904 442.708C285.641 443.536 286.516 444.229 287.49 444.758C288.506 445.218 289.675 445.716 290.652 444.758C291.052 444.247 291.336 443.655 291.485 443.023C291.634 442.391 291.644 441.734 291.514 441.098C291.391 439.815 291.061 438.559 290.537 437.381C289.97 436.267 289.289 435.214 288.506 434.239H288.487Z" fill="#9F86C0"/>
<path d="M296.822 366.451L295.097 364.88C294.542 357.35 291.476 353.384 287.567 351.18C290.007 354.237 291.475 357.954 291.783 361.852L290.058 360.281C289.713 359.975 289.445 360.281 289.598 360.913L292.089 369.133C292.204 369.516 292.472 369.765 292.683 369.67L296.956 367.6C297.243 367.466 297.167 366.757 296.822 366.451Z" fill="#455A64"/>
<path d="M290.097 357.235C289.424 354.877 288.269 352.685 286.705 350.797C286.705 350.797 282.873 349.245 281.168 354.246C281.225 354.284 284.962 351.429 290.097 357.235Z" fill="#455A64"/>
<path d="M279.673 355.223L280.171 358.078C276.339 360.281 276.55 365.531 278.428 371.72C277.987 368.654 279.079 364.439 281.129 363.519L281.647 366.374C281.647 366.93 282.183 367.255 282.375 366.911L285.076 361.718C285.127 361.556 285.137 361.385 285.107 361.218C285.077 361.051 285.008 360.894 284.904 360.76L280.229 354.821C279.903 354.418 279.558 354.667 279.673 355.223Z" fill="#455A64"/>
<path d="M279.788 366.776C278.912 368.72 278.593 370.87 278.869 372.984C278.869 372.984 281.129 378.962 285.364 380.495C282.157 376.593 280.213 371.809 279.788 366.776V366.776Z" fill="#455A64"/>
<path d="M287.203 382.622L288.429 381.357C292.855 386.684 295.672 385.323 297.703 381.357C296.285 382.564 292.989 381.759 290.767 378.885L291.993 377.621C292.242 377.372 291.993 376.644 291.725 376.433L286.513 373.444C286.283 373.31 286.092 373.444 286.111 373.866L286.513 381.874C286.532 382.411 286.954 382.871 287.203 382.622Z" fill="#455A64"/>
<path d="M293.736 380.303C294.36 380.755 295.101 381.015 295.87 381.053C296.639 381.09 297.402 380.903 298.066 380.514C299.004 376.859 298.666 372.992 297.108 369.555C297.108 369.555 298.047 377.276 293.736 380.303Z" fill="#455A64"/>
<path d="M344.147 325.716C344.952 325.582 345.814 325.487 346.676 325.391C351.773 324.835 356.524 322.325 357.827 319.968C360.127 315.772 358.383 315.274 352.079 315.811C349.627 316.022 346.925 316.041 344.128 316.098C339.57 316.053 335.021 316.509 330.563 317.459C323.167 319.26 320.389 322.498 313.223 319.643C306.057 316.788 279.425 300.483 279.425 300.483L320.389 254.154C331.674 238.653 335.717 218.191 324.489 195.141C295.002 199.203 288.66 208.304 272.048 233.155C258.138 253.962 245.339 272.739 235.644 293.623C226.926 312.534 230.816 316.903 246.278 326.598C258.195 334.07 296.707 348.44 309.832 352.905C322.956 357.369 328.034 357.273 342.499 358.653C356.965 360.032 367.005 351.985 371.584 347.444C376.163 342.903 378.673 339.78 378.673 339.78C378.673 339.78 383.923 339.78 381.835 335.105C379.746 330.43 365.97 330.775 360.165 331.273C354.359 331.771 340.794 330.392 337.978 328.495C336.483 327.498 339.644 326.445 344.109 325.774" fill="#B16668"/>
<path d="M351.792 325.832V331.062C346.044 330.641 339.836 329.644 338.015 328.437C337.862 328.359 337.74 328.231 337.671 328.073V327.805V324.969C337.671 310.235 337.402 272.509 335.218 246.049C332.44 212.519 321.174 195.62 321.174 195.62L334.356 192.171C334.356 192.171 345.545 206.675 348.4 239.133C350.948 267.873 351.792 317.363 351.792 325.832Z" fill="#FAFAFA"/>
<path d="M348.592 177.092C345.143 177.514 343.84 178.568 338.744 180.407C329.164 183.856 319.584 180.675 317.668 172.992C316.729 169.16 317.668 165.041 316.173 161.381C314.104 156.208 307.264 154.541 304.428 149.732C301.593 144.923 304.141 137.834 308.739 134.174C311.096 132.258 314.085 130.744 314.985 127.87C315.713 125.61 314.985 123.176 314.545 120.82C313.031 111.374 319.565 97.0611 333.149 95.6241C336.176 64.3742 386.797 63.876 409.348 81.9247C413.454 85.3928 416.602 89.8561 418.49 94.8878C420.379 99.9195 420.945 105.352 420.135 110.665C419.818 111.959 419.996 113.326 420.634 114.497C423.623 120.762 431.689 122.161 435.444 127.64C436.82 129.815 437.426 132.389 437.165 134.949C436.905 137.509 435.793 139.908 434.007 141.761C432.091 143.677 429.658 144.731 428.087 146.8C425.577 150.077 425.998 154.752 424.121 158.411C418.967 167.512 406.877 165.232 398.063 164.37C390.016 163.029 386.567 168.662 382.256 174.41C379.899 177.048 376.881 179.01 373.513 180.095C370.146 181.179 366.55 181.347 363.096 180.58C358.268 179.545 353.593 176.479 348.592 177.092Z" fill="#37474F"/>
<path d="M347.863 179.047C347.863 174.084 346.733 158.124 346.733 158.124C346.541 159.695 338.877 163.987 332.037 155.844C325.197 147.701 324.737 139.06 328.857 133.542C333.398 127.468 343.495 127.794 347.518 137.757C354.109 139.309 357.098 129.25 352.098 119.613C352.577 107.312 365.203 107.982 371.564 92.1179C387.39 100.491 402.124 93.9381 412.183 105.932C414.234 111.91 416.226 121.26 415.824 137.949C415.249 161.573 411.283 170.195 403.868 173.471C399.461 175.387 395.361 176.518 385.149 175.809V183.741C385.417 185.906 386.701 186.462 389.326 186.692L392.908 187.017C398.534 191.864 403.604 197.319 408.026 203.284C406.12 212.67 403.637 221.929 400.592 231.009C387.831 223.824 366.334 215.029 348.361 208.783C337.977 197.096 333.685 192.363 333.685 192.363C333.685 192.363 337.517 191.041 342.824 189.087C349.051 186.826 347.921 183.262 347.863 179.047Z" fill="#B16668"/>
<path d="M378.386 151.188L390.169 155.02C389.954 155.807 389.582 156.542 389.077 157.183C388.572 157.824 387.944 158.356 387.229 158.749C386.514 159.142 385.728 159.388 384.916 159.472C384.105 159.555 383.285 159.475 382.505 159.235C380.905 158.696 379.579 157.553 378.809 156.05C378.04 154.546 377.888 152.802 378.386 151.188V151.188Z" fill="#9A4A4D"/>
<path d="M379.133 153.986C380.697 153.963 382.222 154.478 383.453 155.444C384.683 156.41 385.546 157.768 385.896 159.293C384.78 159.642 383.583 159.642 382.467 159.293C381.348 158.907 380.359 158.217 379.611 157.299C378.863 156.382 378.385 155.274 378.232 154.101L379.133 153.986Z" fill="#FFA8A7"/>
<path d="M411.016 115.953L401.589 114.899C401.624 114.281 401.785 113.677 402.062 113.124C402.339 112.57 402.726 112.079 403.2 111.681C403.674 111.282 404.224 110.985 404.817 110.807C405.409 110.629 406.032 110.574 406.647 110.646C407.916 110.804 409.075 111.443 409.888 112.43C410.7 113.417 411.104 114.678 411.016 115.953Z" fill="#263238"/>
<path d="M366.257 116.47L375.684 114.554C375.595 113.936 375.38 113.342 375.053 112.809C374.726 112.277 374.293 111.817 373.782 111.458C373.27 111.099 372.691 110.849 372.079 110.722C371.467 110.596 370.835 110.596 370.223 110.722C368.948 110.982 367.822 111.726 367.083 112.798C366.344 113.869 366.048 115.185 366.257 116.47V116.47Z" fill="#263238"/>
<path d="M400.324 127.813C400.259 128.867 400.603 129.906 401.285 130.712C401.967 131.519 402.934 132.032 403.984 132.143C404.493 132.198 405.009 132.151 405.5 132.004C405.991 131.856 406.447 131.612 406.842 131.285C407.237 130.958 407.562 130.555 407.799 130.1C408.035 129.645 408.178 129.148 408.218 128.637C408.288 127.587 407.948 126.55 407.269 125.746C406.59 124.942 405.625 124.433 404.578 124.326C404.068 124.268 403.552 124.312 403.06 124.457C402.568 124.602 402.11 124.844 401.713 125.17C401.317 125.495 400.989 125.896 400.751 126.35C400.512 126.804 400.367 127.302 400.324 127.813V127.813Z" fill="#263238"/>
<path d="M371.622 128.484C371.557 129.538 371.901 130.576 372.583 131.383C373.265 132.19 374.231 132.702 375.282 132.814C375.79 132.869 376.304 132.822 376.794 132.676C377.283 132.53 377.739 132.287 378.134 131.962C378.528 131.637 378.854 131.237 379.091 130.784C379.329 130.332 379.473 129.836 379.516 129.327C379.591 128.273 379.253 127.232 378.574 126.424C377.894 125.615 376.926 125.103 375.876 124.996C375.366 124.938 374.85 124.983 374.358 125.128C373.866 125.273 373.408 125.515 373.011 125.84C372.615 126.165 372.287 126.567 372.049 127.021C371.81 127.475 371.665 127.972 371.622 128.484Z" fill="#263238"/>
<path d="M403.466 140.363L390.667 145.747L387.237 122.621L403.466 140.363Z" fill="#9A4A4D"/>
<path d="M385.149 175.809C370.109 174.276 355.394 170.233 352.021 163.355C352.021 163.355 352.021 170.846 358.076 174.448C366.621 179.487 385.149 182.112 385.149 182.112V175.809Z" fill="#9A4A4D"/>
<path d="M876.891 103.939C876.916 126.082 868.518 147.406 853.401 163.585L846.158 170.463C829.469 184.554 808.1 191.87 786.276 190.964C764.452 190.058 743.763 180.997 728.299 165.571C712.835 150.145 703.721 129.479 702.761 107.657C701.801 85.8359 709.063 64.4485 723.113 47.724L730.01 40.5007C742.405 28.8405 757.94 21.0611 774.702 18.121C791.463 15.1808 808.719 17.2084 824.342 23.9539C839.965 30.6993 853.274 41.868 862.628 56.0838C871.982 70.2995 876.974 86.9413 876.987 103.959L876.891 103.939Z" fill="white"/>
<path d="M789.444 9.40408C765.692 9.42291 742.815 18.3695 725.352 34.4688C707.888 50.5681 697.115 72.6438 695.168 96.316C693.222 119.988 700.245 143.527 714.844 162.263C729.444 180.998 750.552 193.561 773.982 197.459L784.635 224.858C785.041 225.889 785.748 226.775 786.663 227.398C787.579 228.022 788.662 228.356 789.77 228.356C790.878 228.356 791.961 228.022 792.876 227.398C793.792 226.775 794.499 225.889 794.905 224.858L805.5 197.383C828.884 193.375 849.91 180.734 864.417 161.962C878.924 143.19 885.854 119.655 883.835 96.0168C881.816 72.3785 870.995 50.3598 853.515 34.3198C836.034 18.2798 813.169 9.38779 789.444 9.40408ZM876.891 103.959C876.911 126.095 868.513 147.41 853.4 163.585L846.158 170.463C829.468 184.554 808.099 191.87 786.276 190.964C764.452 190.058 743.763 180.997 728.298 165.571C712.834 150.145 703.721 129.479 702.761 107.657C701.8 85.8359 709.063 64.4485 723.112 47.7241L730.01 40.5008C742.405 28.8406 757.94 21.0612 774.701 18.121C791.463 15.1808 808.718 17.2084 824.341 23.9539C839.965 30.6994 853.274 41.868 862.628 56.0838C871.982 70.2995 876.973 86.9413 876.986 103.959H876.891Z" fill="#455A64"/>
<path opacity="0.7" d="M876.891 103.939C876.916 126.082 868.518 147.406 853.401 163.585L846.158 170.463C829.469 184.554 808.1 191.87 786.276 190.964C764.452 190.058 743.763 180.997 728.299 165.571C712.835 150.145 703.721 129.479 702.761 107.657C701.801 85.8359 709.063 64.4485 723.113 47.724L730.01 40.5007C742.405 28.8405 757.94 21.0611 774.702 18.121C791.463 15.1808 808.719 17.2084 824.342 23.9539C839.965 30.6993 853.274 41.868 862.628 56.0838C871.982 70.2995 876.974 86.9413 876.987 103.959L876.891 103.939Z" fill="white"/>
<path d="M799.407 113.596C854.339 115.742 836.788 48.7205 836.788 48.7205C836.788 48.7205 769.997 67.1332 799.407 113.596Z" fill="#9F86C0"/>
<path d="M778.887 131.204C737.693 146.226 734.608 91.064 734.608 91.064C734.608 91.064 789.866 88.7456 778.887 131.204Z" fill="#9F86C0"/>
<path d="M798.411 135.86C798.793 128.663 799.812 121.514 801.458 114.497C803.083 107.453 805.446 100.601 808.508 94.053C811.618 87.4271 815.475 81.1786 820.004 75.4294C817.285 77.9418 814.767 80.6646 812.475 83.5724C810.126 86.4734 807.999 89.5477 806.113 92.7692C802.338 99.2585 799.396 106.198 797.357 113.424C795.309 120.646 794.025 128.063 793.525 135.554C793.257 139.271 793.18 142.999 793.295 146.724C789.792 141.287 785.831 136.159 781.455 131.396C778.008 127.626 774.349 124.057 770.495 120.705C766.672 117.346 762.647 114.223 758.443 111.354C762.084 114.88 765.667 118.444 769.039 122.18C772.411 125.916 775.706 129.71 778.772 133.676C781.868 137.583 784.765 141.643 787.452 145.842C789.67 149.308 791.667 152.911 793.43 156.63C793.731 157.24 794.239 157.725 794.862 157.998C795.486 158.272 796.187 158.316 796.84 158.124C797.461 157.913 797.99 157.495 798.338 156.941C798.687 156.386 798.835 155.728 798.756 155.078C798.146 148.69 798.031 142.265 798.411 135.86V135.86Z" fill="#9F86C0"/>
<path opacity="0.3" d="M798.411 135.86C798.793 128.663 799.812 121.514 801.458 114.497C803.083 107.453 805.446 100.601 808.508 94.053C811.618 87.4271 815.475 81.1786 820.004 75.4294C817.285 77.9418 814.767 80.6646 812.475 83.5724C810.126 86.4734 807.999 89.5477 806.113 92.7692C802.338 99.2585 799.396 106.198 797.357 113.424C795.309 120.646 794.025 128.063 793.525 135.554C793.257 139.271 793.18 142.999 793.295 146.724C789.792 141.287 785.831 136.159 781.455 131.396C778.008 127.626 774.349 124.057 770.495 120.705C766.672 117.346 762.647 114.223 758.443 111.354C762.084 114.88 765.667 118.444 769.039 122.18C772.411 125.916 775.706 129.71 778.772 133.676C781.868 137.583 784.765 141.643 787.452 145.842C789.67 149.308 791.667 152.911 793.43 156.63C793.731 157.24 794.239 157.725 794.862 157.998C795.486 158.272 796.187 158.316 796.84 158.124C797.461 157.913 797.99 157.495 798.338 156.941C798.687 156.386 798.835 155.728 798.756 155.078C798.146 148.69 798.031 142.265 798.411 135.86V135.86Z" fill="black"/>
</g>
<defs>
<clipPath id="clip0_106_554">
<rect width="1131" height="923" fill="white"/>
</clipPath>
</defs>
</svg>
